<svg xmlns="http://www.w3.org/2000/svg" width="651.975" height="205.2" viewBox="0 0 651.975 205.2"><g transform="translate(29.573 -711)"><g transform="translate(-29.573 803.118)"><path d="M517,666.495s13.354-19.679,14.759-22.49.7-14.056.7-14.056h-4.92S531.759,618,543.707,618s15.462,5.623,16.868,8.434.7,4.217.7,4.217h-4.217V641.9l20.382,33.735h8.434v54.82S535.976,704.447,517,666.495Z" transform="translate(-517 -618)" fill="#bac6f2"/><path d="M584,750.6h9.84V736.547s-4.92-7.731-9.84,0Z" transform="translate(-536.911 -652.209)" fill="#fff"/><circle cx="6.206" cy="6.206" r="6.206" transform="translate(43.94 57.399)" fill="#e9edfa"/><path d="M522.79,697.331a6.206,6.206,0,1,1,7.281,10.051" transform="translate(-518.721 -641.224)" fill="#e9edfa"/><circle cx="6.206" cy="6.206" r="6.206" transform="translate(21.752 29.258)" fill="#e9edfa"/><path d="M542.049,697.824a6.979,6.979,0,0,1,1.652-4.379,11.027,11.027,0,0,1,8.047-4.1,9.79,9.79,0,0,1,9.8,7.569c.6,3.395.471,20.487.471,20.487l-15.3-.084L541.93,712.3Z" transform="translate(-524.409 -639.202)" fill="#fff"/></g><g transform="translate(37.041 774.53)"><path d="M612.72,669.037l1.6,76.523s28.97,10.809,41.185,13.389,40.637,18.793,40.637,18.793L695.667,669.4l-82.933-.555" transform="translate(-612.059 -637.473)" fill="#e9edfa"/><path d="M611.85,655.774l83.537.352-.38-19.967H670.269S667.2,624.21,655.678,624.21c-14.134,0-16.488,12.581-16.488,12.581l-27.41-.288Z" transform="translate(-611.78 -624.21)" fill="#bac6f2"/><rect width="14.773" height="16.024" transform="translate(8.905 42.914)" fill="#bac6f2"/><rect width="14.773" height="16.024" transform="translate(35.598 42.689)" fill="#bac6f2"/><rect width="14.773" height="16.024" transform="translate(61.947 42.921)" fill="#fff"/><rect width="14.773" height="16.024" transform="translate(62.172 73.065)" fill="#bac6f2"/><rect width="14.773" height="16.024" transform="translate(62.382 108.143)" fill="#bac6f2"/><rect width="14.773" height="16.024" transform="translate(35.022 72.608)" fill="#bac6f2"/><rect width="14.773" height="16.024" transform="translate(35.022 72.608)" fill="#fff"/><rect width="14.773" height="16.024" transform="translate(9.017 73.297)" fill="#bac6f2"/><path d="M625.032,779.481l-.112-4.681,14.345.3.042,9.425S628.687,780.992,625.032,779.481Z" transform="translate(-615.685 -668.962)" fill="#bac6f2"/><path d="M169.081,587.214l-.211-11.934,14.541.3-.323,15.61Z" transform="translate(-133.265 -467.875)" fill="#bac6f2"/><circle cx="8.125" cy="8.125" r="8.125" transform="translate(34.986 7.281)" fill="#fff"/></g><g transform="translate(120.402 753.882)"><path d="M730.39,724.8l.7,55.01s43.772,29.125,46.541,31.205,25.66,13.178,36.069,13.874l1.876-111-6.15-.239-30.073-37.348-11.14-.534L730.4,724.768" transform="translate(-730.39 -662.8)" fill="#bac6f2"/><path d="M236.82,517.566l37.861-47.56,4.182.155,4.779.281,2.636.274,29.582,35.731,6.15.232v-2.13l-5.918-.239-28.338-34.635.183-13.4-13.726-.71-.527,13.712L237.291,486.8Z" transform="translate(-236.82 -455.57)" fill="#e9edfa"/><rect width="6.888" height="8.054" transform="translate(24.029 51.678)" fill="#fff"/><rect width="6.888" height="8.054" transform="translate(54.398 51.742)" fill="#fff"/><rect width="6.888" height="8.054" transform="translate(43.223 51.721)" fill="#fff"/><rect width="6.888" height="8.054" transform="translate(34.08 51.657)" fill="#fff"/><rect width="6.888" height="8.054" transform="translate(24.036 63.992)" fill="#fff"/><rect width="6.888" height="8.054" transform="translate(54.405 64.055)" fill="#fff"/><rect width="6.888" height="8.054" transform="translate(43.238 64.041)" fill="#fff"/><rect width="6.888" height="8.054" transform="translate(34.094 63.978)" fill="#fff"/><rect width="6.888" height="8.054" transform="translate(7.696 100.377)" fill="#fff"/><rect width="6.888" height="8.054" transform="translate(16.643 91.114)" fill="#fff"/><rect width="6.888" height="8.054" transform="translate(7.499 91.05)" fill="#fff"/><rect width="6.888" height="8.054" transform="translate(16.734 100.454)" fill="#fff"/><rect width="6.888" height="8.054" transform="translate(34.677 100.567)" fill="#fff"/><rect width="6.888" height="8.054" transform="translate(43.617 91.303)" fill="#fff"/><rect width="6.888" height="8.054" transform="translate(34.473 91.24)" fill="#fff"/><rect width="6.888" height="8.054" transform="translate(43.708 100.644)" fill="#fff"/><rect width="6.888" height="8.054" transform="translate(60.794 100.834)" fill="#fff"/><rect width="6.888" height="8.054" transform="translate(69.734 91.563)" fill="#fff"/><rect width="6.888" height="8.054" transform="translate(60.59 91.5)" fill="#fff"/><rect width="6.888" height="8.054" transform="translate(69.825 100.911)" fill="#fff"/><rect width="6.888" height="11.491" transform="translate(60.428 140.156)" fill="#fff"/><rect width="6.888" height="8.054" transform="translate(69.375 130.886)" fill="#fff"/><rect width="6.888" height="8.054" transform="translate(60.232 130.83)" fill="#fff"/><rect width="6.888" height="8.054" transform="translate(42.268 130.661)" fill="#fff"/><path d="M303.926,664.388l-6.881-4.477-.035-4.421H303.9Z" transform="translate(-254.707 -514.982)" fill="#fff"/><rect width="6.888" height="8.054" transform="translate(33.124 130.598)" fill="#fff"/><path d="M291.748,658.07,290,656.861l-2.868-1.891,4.6.014Z" transform="translate(-251.771 -514.828)" fill="#fff"/><rect width="6.888" height="11.442" transform="translate(69.467 140.234)" fill="#fff"/></g><g transform="translate(203.764 723.706)"><path d="M408.661,421.226h12.981l-.2-6.332-13-.133Z" transform="translate(-371.186 -414.76)" fill="#bac6f2"/><path d="M850.244,685.119,849,810s22.307,3.437,42.373-1.63,43.3-10.542,43.3-10.542l.773-111.523-13.508-6.635-21.914-38.8-.541-15.167h-13l-.415,15.167-23.088,38.114Z" transform="translate(-849 -619.244)" fill="#e9edfa"/><rect width="8.518" height="10.599" transform="translate(34.6 76.586)" fill="#bac6f2"/><rect width="9.087" height="10.409" transform="translate(46.147 76.776)" fill="#bac6f2"/><rect width="8.518" height="10.599" transform="translate(34.41 89.167)" fill="#bac6f2"/><rect width="9.087" height="10.409" transform="translate(45.957 89.357)" fill="#bac6f2"/><rect width="8.518" height="10.599" transform="translate(34.783 114.419)" fill="#bac6f2"/><rect width="8.518" height="10.599" transform="translate(14.71 114.356)" fill="#bac6f2"/><rect width="8.518" height="10.599" transform="translate(65.088 114.827)" fill="#bac6f2"/><rect width="8.518" height="10.599" transform="translate(65.334 161.515)" fill="#bac6f2"/><rect width="8.518" height="10.599" transform="translate(14.808 161.817)" fill="#bac6f2"/><rect width="9.087" height="10.409" transform="translate(46.33 114.602)" fill="#bac6f2"/><rect width="8.518" height="10.599" transform="translate(34.593 127)" fill="#bac6f2"/><rect width="9.087" height="10.409" transform="translate(46.14 127.189)" fill="#bac6f2"/><rect width="8.518" height="10.599" transform="translate(34.628 160.348)" fill="#bac6f2"/><rect width="9.087" height="10.409" transform="translate(46.175 160.538)" fill="#bac6f2"/><rect width="8.518" height="10.599" transform="translate(34.438 172.936)" fill="#bac6f2"/><rect width="9.087" height="10.409" transform="translate(45.986 173.126)" fill="#bac6f2"/><circle cx="5.953" cy="5.953" r="5.953" transform="translate(13.487 82.413)" fill="#bac6f2"/><circle cx="5.953" cy="5.953" r="5.953" transform="translate(61.764 83.734)" fill="#bac6f2"/><path d="M357.108,505.756h12.981l-.2-6.332-13-.133Z" transform="translate(-355.864 -439.881)" fill="#bac6f2"/><path d="M459.841,507.446h12.981l-.2-6.332-12.988-.134Z" transform="translate(-386.396 -440.383)" fill="#bac6f2"/><circle cx="10.233" cy="10.233" r="10.233" transform="translate(34.213 42.345)" fill="#bac6f2"/></g><g transform="translate(284.827 742.765)"><path d="M964.34,691.971l.752,53.892s1.968,57.737,2.158,57.547c4.618-4.772,75.961-9.643,84.2-9.84l-1.919-112.451-6.15-.239L1013.3,643.5l-11.14-.534L964.34,691.978" transform="translate(-964.34 -629.975)" fill="#bac6f2"/><path d="M470.77,484.726l37.861-47.56,4.182.162,4.779.281,2.636.267,29.582,35.731,6.15.239v-2.13l-5.918-.239L521.7,436.836l.183-13.4-13.726-.71-.527,13.719L470.8,477.824Z" transform="translate(-470.77 -422.73)" fill="#e9edfa"/><rect width="6.888" height="8.054" transform="translate(24.022 51.678)" fill="#fff"/><rect width="6.888" height="8.054" transform="translate(54.398 51.749)" fill="#fff"/><rect width="6.888" height="8.054" transform="translate(43.223 51.728)" fill="#fff"/><rect width="6.888" height="8.054" transform="translate(34.08 51.664)" fill="#fff"/><rect width="6.888" height="8.054" transform="translate(24.036 63.992)" fill="#fff"/><rect width="6.888" height="8.054" transform="translate(54.405 64.062)" fill="#fff"/><rect width="6.888" height="8.054" transform="translate(43.238 64.041)" fill="#fff"/><rect width="6.888" height="8.054" transform="translate(34.094 63.978)" fill="#fff"/><rect width="6.888" height="8.054" transform="translate(7.858 106.161)" fill="#fff"/><rect width="6.888" height="8.054" transform="translate(16.797 96.898)" fill="#fff"/><rect width="6.888" height="8.054" transform="translate(7.654 96.835)" fill="#fff"/><rect width="6.888" height="8.054" transform="translate(16.889 106.238)" fill="#fff"/><rect width="6.888" height="8.054" transform="translate(34.832 106.351)" fill="#fff"/><rect width="6.888" height="8.054" transform="translate(43.779 97.088)" fill="#fff"/><rect width="6.888" height="8.054" transform="translate(34.635 97.024)" fill="#fff"/><rect width="6.888" height="8.054" transform="translate(43.87 106.428)" fill="#fff"/><rect width="6.888" height="8.054" transform="translate(60.949 106.618)" fill="#fff"/><rect width="6.888" height="8.054" transform="translate(69.895 97.348)" fill="#fff"/><rect width="6.888" height="8.054" transform="translate(60.752 97.284)" fill="#fff"/><rect width="6.888" height="8.054" transform="translate(69.987 106.695)" fill="#fff"/><rect width="6.888" height="8.054" transform="translate(8.047 141.485)" fill="#fff"/><rect width="6.888" height="8.054" transform="translate(16.987 132.215)" fill="#fff"/><rect width="6.888" height="8.054" transform="translate(7.843 132.151)" fill="#fff"/><rect width="6.888" height="8.054" transform="translate(17.079 141.555)" fill="#fff"/><rect width="6.888" height="8.054" transform="translate(35.022 141.675)" fill="#fff"/><rect width="6.888" height="8.054" transform="translate(43.968 132.404)" fill="#fff"/><rect width="6.888" height="8.054" transform="translate(34.825 132.341)" fill="#fff"/><rect width="6.888" height="8.054" transform="translate(44.06 141.745)" fill="#fff"/><rect width="6.888" height="8.054" transform="translate(61.138 141.935)" fill="#fff"/><rect width="6.888" height="8.054" transform="translate(70.085 132.671)" fill="#fff"/><rect width="6.888" height="8.054" transform="translate(60.942 132.608)" fill="#fff"/><rect width="6.888" height="8.054" transform="translate(70.177 142.012)" fill="#fff"/></g><g transform="translate(369.832 728.471)"><path d="M1093.52,651.751s18.175-28.935,19.58-31.746.7-14.056.7-14.056h-4.92S1113.1,594,1125.048,594s15.462,5.623,16.868,8.434.7,4.217.7,4.217H1138.4V617.9l20.382,33.735h8.434l2.769,129.959s-80.171-3.76-81.865-2.629c-.527.351-.485-3.324-.569-3.964-.351-2.741-3.353-102.155-1.841-123.127C1085.711,651.891,1093.576,651.744,1093.52,651.751Z" transform="translate(-1085.289 -594)" fill="#e9edfa"/><path d="M1170.38,727.084h9.839V713.027s-4.92-7.731-9.839,0Z" transform="translate(-1110.576 -628.351)" fill="#fff"/><path d="M1103.15,728.693h9.839V714.637s-4.92-7.731-9.839,0Z" transform="translate(-1090.597 -628.83)" fill="#fff"/><path d="M1103.15,780.323h9.839V766.267s-4.92-7.731-9.839,0Z" transform="translate(-1090.597 -644.173)" fill="#fff"/><path d="M1136.58,780.924h9.839V766.867s-4.92-7.731-9.839,0Z" transform="translate(-1100.532 -644.351)" fill="#fff"/><path d="M1170,781.524h9.839V767.467s-4.92-7.731-9.839,0Z" transform="translate(-1110.463 -644.53)" fill="#fff"/><path d="M1104,829.724h9.839V815.667s-4.92-7.731-9.839,0Z" transform="translate(-1090.849 -658.854)" fill="#fff"/><path d="M1137.44,830.323h9.839V816.267s-4.92-7.731-9.839,0Z" transform="translate(-1100.787 -659.032)" fill="#fff"/><path d="M1170.88,830.933h9.84V816.877s-4.92-7.731-9.84,0Z" transform="translate(-1110.725 -659.213)" fill="#fff"/><circle cx="6.206" cy="6.206" r="6.206" transform="translate(56.655 57.73)" fill="#e9edfa"/><circle cx="6.206" cy="6.206" r="6.206" transform="translate(12.293 56.788)" fill="#e9edfa"/><circle cx="6.206" cy="6.206" r="6.206" transform="translate(34.938 87.41)" fill="#e9edfa"/><circle cx="6.206" cy="6.206" r="6.206" transform="translate(34.474 29.596)" fill="#e9edfa"/><path d="M1128.395,674.3a6.98,6.98,0,0,1,1.652-4.379,11.028,11.028,0,0,1,8.047-4.1,9.79,9.79,0,0,1,9.8,7.569c.6,3.395.471,20.487.471,20.487h-20.2l.105-5.082Z" transform="translate(-1098.032 -615.345)" fill="#fff"/></g><g transform="translate(451.445 776.118)"><path d="M1202.36,710.827l2.108,105.557s23.137.239,37.3,2c12.391,1.546,42.169.12,42.169.12l1.406-107.321-82.933-.555" transform="translate(-1201.692 -679.263)" fill="#bac6f2"/><path d="M1201.487,697.564l83.537.351-.38-19.967H1259.9S1256.828,666,1245.308,666c-14.134,0-16.488,12.58-16.488,12.58l-27.41-.288Z" transform="translate(-1201.41 -666)" fill="#bac6f2"/><rect width="14.773" height="16.024" transform="translate(8.912 42.914)" fill="#fff"/><rect width="14.773" height="16.024" transform="translate(35.605 42.682)" fill="#fff"/><rect width="14.773" height="16.024" transform="translate(61.954 42.914)" fill="#fff"/><rect width="14.773" height="16.024" transform="translate(62.179 73.058)" fill="#fff"/><rect width="14.773" height="16.024" transform="translate(62.389 108.143)" fill="#fff"/><rect width="14.773" height="16.024" transform="translate(35.626 107.496)" fill="#fff"/><rect width="14.773" height="16.024" transform="translate(8.919 107.166)" fill="#fff"/><rect width="14.773" height="16.024" transform="translate(35.029 72.601)" fill="#fff"/><rect width="14.773" height="16.024" transform="translate(35.029 72.601)" fill="#fff"/><rect width="14.773" height="16.024" transform="translate(9.024 73.29)" fill="#fff"/><circle cx="8.125" cy="8.125" r="8.125" transform="translate(34.993 7.274)" fill="#fff"/></g><g transform="translate(533.169 711)"><path d="M877.788,377.716h12.981l-.2-6.325-12.995-.141Z" transform="translate(-840.004 -371.25)" fill="#fff"/><path d="M1319.243,641.622l-1.553,138.884s27.79-7.028,45.388-15.771c16.678-8.272,24.6-26.482,26.5-30.039a8.154,8.154,0,0,0,.506-1.188l9.643-28.661a14.372,14.372,0,0,0,.6-2.418l4.4-28.281,2.108-12.946a7.737,7.737,0,0,0,0-2.418l-2.326-15.4a1.089,1.089,0,0,0-.6-.808l-13.03-6.4-21.914-38.8-.541-15.167h-12.981l-.415,15.167-23.06,38.093Z" transform="translate(-1317.69 -575.74)" fill="#e9edfa"/><rect width="8.518" height="10.599" transform="translate(34.909 76.593)" fill="#fff"/><rect width="9.087" height="10.409" transform="translate(46.449 76.776)" fill="#fff"/><rect width="8.518" height="10.599" transform="translate(34.719 89.174)" fill="#fff"/><rect width="9.087" height="10.409" transform="translate(46.26 89.364)" fill="#fff"/><rect width="8.518" height="10.599" transform="translate(35.092 114.419)" fill="#fff"/><rect width="8.518" height="10.599" transform="translate(15.019 114.363)" fill="#fff"/><rect width="8.518" height="10.599" transform="translate(65.397 114.834)" fill="#fff"/><path d="M919.988,605.459l-2.558,3.683.323-9.291,5.173-.211Z" transform="translate(-851.85 -439.123)" fill="#fff"/><rect width="8.518" height="10.599" transform="translate(15.118 161.824)" fill="#fff"/><rect width="9.087" height="10.409" transform="translate(46.632 114.609)" fill="#fff"/><rect width="8.518" height="10.599" transform="translate(34.902 127.007)" fill="#fff"/><rect width="9.087" height="10.409" transform="translate(46.442 127.196)" fill="#fff"/><rect width="8.518" height="10.599" transform="translate(34.937 160.355)" fill="#fff"/><rect width="9.087" height="10.409" transform="translate(46.477 160.545)" fill="#fff"/><rect width="8.518" height="10.599" transform="translate(34.747 172.943)" fill="#fff"/><path d="M898.351,627.261l-.963.738H889.98V617.59h9.088v8.982Z" transform="translate(-843.692 -444.457)" fill="#fff"/><circle cx="5.953" cy="5.953" r="5.953" transform="translate(13.796 82.413)" fill="#fff"/><circle cx="5.953" cy="5.953" r="5.953" transform="translate(62.073 83.741)" fill="#fff"/><path d="M826.231,462.256h12.981l-.2-6.332-13-.134Z" transform="translate(-824.685 -396.374)" fill="#fff"/><path d="M928.968,463.946h12.981l-.843-3.971-.548-2.376-11.807-.119Z" transform="translate(-855.214 -396.876)" fill="#fff"/><circle cx="10.233" cy="10.233" r="10.233" transform="translate(34.515 42.352)" fill="#fff"/></g></g></svg>