<svg width="30" height="30" viewBox="0 0 30 30" fill="none" xmlns="http://www.w3.org/2000/svg">
<path d="M29.9945 10.5C29.945 9.6445 28.9275 8.976 26.8925 8.466C26.961 8.316 26.9995 8.16 27 7.998V4.5H26.9915C26.8125 1.586 14.8715 1.5 13.5 1.5C12.1285 1.5 0.1875 1.586 0.0085 4.5H0V4.565V7.9995C0.0025 8.9495 1.2285 9.693 3.0525 10.2465C3.0275 10.3295 3.0125 10.414 3.0075 10.5H3V10.565V13.9935C1.035 14.4995 0.0535 15.1585 0.005 16H0V16.065V19.4995C0.0015 20.161 0.598 20.722 1.574 21.1895C1.537 21.291 1.514 21.3945 1.5075 21.5005H1.5V21.5655V25C1.504 26.663 5.2485 27.6955 9.409 28.1775C9.4395 28.1835 9.4675 28.196 9.5 28.196C9.5095 28.196 9.5175 28.191 9.527 28.1905C10.329 28.281 11.144 28.3515 11.9505 28.402C11.9675 28.404 11.9825 28.412 12 28.412C12.0095 28.412 12.017 28.407 12.026 28.4065C13.05 28.4685 14.0575 28.5 15 28.5C15.9425 28.5 16.95 28.4685 17.974 28.406C17.983 28.4065 17.991 28.4115 18 28.4115C18.0175 28.4115 18.0325 28.403 18.0495 28.4015C18.856 28.351 19.671 28.281 20.473 28.19C20.4825 28.19 20.4905 28.195 20.5 28.195C20.5325 28.195 20.5605 28.1825 20.591 28.1765C24.7515 27.6945 28.4955 26.6615 28.5 24.998V21.5H28.492C28.457 20.887 27.9345 20.3755 26.9025 19.948C26.9655 19.8035 27 19.6535 27 19.498V16.23C28.795 15.678 29.9975 14.9395 30 13.998V10.5H29.9945ZM25.946 19.6605L25.7755 19.81C25.513 20.0415 25.0755 20.275 24.5 20.5V18.116C25.0945 17.909 25.6005 17.6795 26 17.428V19.497C26 19.5485 25.981 19.6035 25.946 19.6605ZM14.763 21.984C14.69 21.986 14.6165 21.987 14.543 21.9885C14.3645 21.992 14.1815 21.993 14.0005 21.9945V19.497C14.138 19.4955 14.2755 19.4935 14.413 19.491C14.4395 19.4905 14.466 19.49 14.4925 19.4895C14.996 19.48 15.4995 19.4645 16.0005 19.4415V21.938C15.8935 21.9435 15.786 21.9485 15.6775 21.953C15.3765 21.9665 15.0725 21.9765 14.763 21.984ZM12.5795 21.991C12.3505 21.987 12.1225 21.9815 11.896 21.9745C11.868 21.9735 11.84 21.9725 11.812 21.9715C11.5395 21.9625 11.269 21.951 11.0005 21.938V19.442C11.5015 19.4655 12.005 19.481 12.5085 19.49C12.535 19.4905 12.5615 19.491 12.5875 19.4915C12.725 19.494 12.8625 19.496 13 19.4975V21.9965C12.903 21.9955 12.806 21.9955 12.7095 21.994C12.6655 21.993 12.623 21.9915 12.5795 21.991ZM3.5485 20.851C3.532 20.846 3.5165 20.8415 3.5 20.837V18.4215C3.967 18.5475 4.469 18.6625 5 18.767V21.2075C4.541 21.11 4.1175 21.0075 3.732 20.9025C3.671 20.885 3.608 20.8685 3.5485 20.851ZM14.0875 24.9915C14.225 24.994 14.3625 24.996 14.5 24.9975V27.497C13.809 27.4905 13.142 27.4705 12.5 27.439V24.9425C13.001 24.966 13.5045 24.9815 14.008 24.9905C14.0345 24.9905 14.061 24.991 14.0875 24.9915ZM15.992 24.99C16.4955 24.9805 16.999 24.965 17.5 24.942V27.4385C16.858 27.47 16.191 27.49 15.5 27.4965V24.997C15.6375 24.9955 15.775 24.9935 15.9125 24.991C15.939 24.991 15.9655 24.9905 15.992 24.99ZM20 24.764V27.247C19.5195 27.2975 19.0195 27.342 18.5 27.3785V24.885C19.007 24.852 19.508 24.8115 20 24.764ZM21 24.656C21.5155 24.594 22.016 24.5235 22.5 24.445V26.9C22.029 26.983 21.5285 27.0595 21 27.129V24.656ZM23.5 24.2665C24.031 24.162 24.533 24.047 25 23.921V26.3365C24.5545 26.465 24.053 26.5895 23.5 26.707V24.2665ZM6.5 24.2665V26.707C5.947 26.5895 5.4455 26.465 5 26.3365V23.921C5.467 24.047 5.969 24.1625 6.5 24.2665ZM7.5 24.4455C7.984 24.524 8.4845 24.5945 9 24.6565V27.1295C8.4715 27.06 7.971 26.9835 7.5 26.9005V24.4455ZM10 24.764C10.492 24.8115 10.993 24.852 11.5 24.8855V27.379C10.9805 27.3425 10.4805 27.298 10 27.2475V24.764ZM8.7595 21.774C8.7085 21.769 8.658 21.7635 8.6075 21.7585C8.5715 21.755 8.536 21.7505 8.5 21.747V19.2645C8.992 19.312 9.493 19.3525 10 19.386V21.8775C9.58 21.8475 9.165 21.8135 8.7595 21.774ZM7.5 19.156V21.629C6.9715 21.5595 6.471 21.483 6 21.4V18.945C6.484 19.0235 6.9845 19.0945 7.5 19.156ZM17.333 21.854C17.223 21.8625 17.112 21.871 17 21.879V19.3855C17.507 19.352 18.008 19.312 18.5 19.264V21.747C18.191 21.7795 17.875 21.81 17.5505 21.8365C17.478 21.843 17.4055 21.8485 17.333 21.854ZM19.5 21.629V19.156C20.0155 19.094 20.516 19.0235 21 18.945V21.4C20.529 21.483 20.0285 21.56 19.5 21.629ZM22 18.7665C22.531 18.662 23.033 18.547 23.5 18.421V20.8365C23.0545 20.965 22.553 21.0895 22 21.207V18.7665ZM15.1625 16.4825C14.7865 16.473 14.419 16.4585 14.058 16.441C14.0385 16.44 14.019 16.439 14 16.4385V13.942C14.501 13.9655 15.0045 13.981 15.508 13.99C15.5345 13.9905 15.561 13.991 15.587 13.9915C15.7245 13.994 15.862 13.996 15.9995 13.9975V16.494C15.756 16.4915 15.5105 16.4905 15.273 16.485C15.2365 16.484 15.199 16.4835 15.1625 16.4825ZM3.5 9.337V6.9215C3.967 7.0475 4.469 7.1625 5 7.267V9.7075C4.9385 9.6945 4.875 9.6815 4.815 9.6685C4.549 9.61 4.2895 9.549 4.0415 9.4845C3.8525 9.436 3.673 9.3865 3.5 9.337ZM12.5875 7.9915C12.725 7.994 12.8625 7.996 13 7.9975V10.494C12.327 10.4875 11.658 10.47 11 10.437V7.9425C11.501 7.966 12.0045 7.9815 12.508 7.9905C12.5345 7.9905 12.561 7.991 12.5875 7.9915ZM14.492 7.99C14.9955 7.9805 15.499 7.965 16 7.942V10.4365C15.915 10.4405 15.8335 10.4465 15.748 10.4505C15.741 10.451 15.734 10.451 15.7265 10.4515C15.391 10.4665 15.049 10.4775 14.7025 10.4855C14.6485 10.487 14.5945 10.4875 14.5405 10.489C14.3625 10.4925 14.1805 10.493 14 10.495V7.9975C14.1375 7.996 14.275 7.994 14.4125 7.9915C14.439 7.991 14.4655 7.9905 14.492 7.99ZM25.8855 8.241L25.8715 8.238L25.6895 8.3795C25.4255 8.585 25.02 8.793 24.5 8.994V6.6155C25.0945 6.4085 25.6005 6.179 26 5.9275V7.9965C26 8.0725 25.96 8.1545 25.8855 8.241ZM19.5 10.126V7.656C20.0155 7.594 20.516 7.5235 21 7.445V9.896C20.526 9.98 20.027 10.057 19.5 10.126ZM22 9.7035V7.267C22.531 7.1625 23.033 7.0475 23.5 6.9215V9.3315C23.052 9.462 22.5475 9.5865 22 9.7035ZM18.5 7.764V10.244C18.017 10.295 17.517 10.3395 17 10.3765V7.8855C17.507 7.852 18.008 7.8115 18.5 7.764ZM8.5 10.245V7.764C8.992 7.8115 9.493 7.852 10 7.8855V10.3745C9.491 10.338 8.989 10.2965 8.5 10.245ZM7.5 7.656V10.1265C7.401 10.1135 7.298 10.103 7.2 10.0895C7.136 10.0805 7.075 10.071 7.012 10.062C6.723 10.0205 6.4405 9.976 6.1635 9.9295C6.108 9.92 6.0545 9.91 6 9.9005V7.4455C6.484 7.5235 6.9845 7.5945 7.5 7.656ZM12.876 16.3695C12.8085 16.3645 12.7405 16.3595 12.6735 16.3545C12.3535 16.3295 12.041 16.302 11.736 16.2715C11.6705 16.265 11.605 16.258 11.54 16.2515C11.5265 16.25 11.5135 16.248 11.5 16.247V13.764C11.992 13.8115 12.493 13.852 13 13.8855V16.3775C12.9595 16.3745 12.9165 16.3725 12.876 16.3695ZM9.5725 15.996C9.3745 15.9645 9.1885 15.9305 9 15.8975V13.4455C9.484 13.524 9.9845 13.5945 10.5 13.6565V16.1295C10.194 16.089 9.8945 16.047 9.607 16.002C9.5955 15.9995 9.584 15.9975 9.5725 15.996ZM8 13.2665V15.703C7.4475 15.5845 6.9465 15.4585 6.5 15.3275V12.921C6.967 13.047 7.469 13.1625 8 13.2665ZM5.5 12.6155V14.991C4.714 14.6875 4.207 14.3775 4.042 14.1015L4.0085 14.0455C4.0055 14.03 4.0005 14.0135 4 13.998V11.9275C4.3995 12.179 4.9055 12.4085 5.5 12.6155ZM17.492 13.99C17.9955 13.9805 18.499 13.965 19 13.942V16.436C18.343 16.4685 17.675 16.4865 17 16.4935V13.9975C17.1375 13.996 17.275 13.994 17.4125 13.9915C17.439 13.991 17.4655 13.9905 17.492 13.99ZM23.9535 15.9085C23.734 15.9465 23.5125 15.984 23.285 16.0185C23.1545 16.0385 23.021 16.0575 22.887 16.0765C22.7605 16.0945 22.629 16.11 22.5005 16.1265V13.656C23.016 13.594 23.5165 13.5235 24.0005 13.445V15.9C23.9845 15.903 23.969 15.906 23.9535 15.9085ZM20.568 16.3355C20.3815 16.351 20.189 16.361 20 16.3745V13.8855C20.507 13.852 21.008 13.812 21.5 13.764V16.2445C21.2095 16.275 20.9195 16.3055 20.621 16.3305C20.603 16.332 20.586 16.334 20.568 16.3355ZM26.282 15.398C26.033 15.4675 25.7695 15.5325 25.5005 15.596C25.376 15.625 25.249 15.654 25.119 15.682C25.0805 15.6905 25.0395 15.698 25.0005 15.7065V13.267C25.5315 13.1625 26.0335 13.0475 26.5005 12.9215V15.337C26.4285 15.357 26.356 15.3775 26.282 15.398ZM28.9945 10.5325C28.9485 10.872 28.179 11.3235 26.8055 11.748C25.0365 12.2945 22.2685 12.795 18.7605 12.95C18.581 12.9575 18.402 12.965 18.219 12.971C18.0695 12.976 17.9195 12.9805 17.767 12.9845C17.353 12.9935 16.933 13 16.5 13C16.067 13 15.647 12.9935 15.233 12.984C15.081 12.9805 14.931 12.9755 14.781 12.9705C14.5975 12.965 14.4185 12.957 14.2395 12.9495C10.7315 12.7945 7.963 12.294 6.1945 11.7475C4.832 11.3265 4.064 10.8785 4.007 10.5405C4.0095 10.531 4.0095 10.523 4.0155 10.511C4.0495 10.5195 4.0875 10.5265 4.122 10.535C4.3175 10.5815 4.518 10.6265 4.722 10.6695C5.7155 10.8835 6.8165 11.059 7.9895 11.193C7.9935 11.193 7.9965 11.195 8 11.195C8.001 11.195 8.002 11.1945 8.0025 11.1945C8.8015 11.2855 9.6305 11.357 10.4815 11.4075C10.488 11.4075 10.4935 11.411 10.5 11.411C10.5035 11.411 10.506 11.409 10.5095 11.409C11.122 11.445 11.7425 11.4715 12.3705 11.4855C12.755 11.495 13.1325 11.5 13.5 11.5C13.7625 11.5 14.0315 11.497 14.303 11.492C17.936 11.436 21.303 11.004 23.646 10.3345C23.754 10.304 23.8595 10.2725 23.9635 10.241C24.027 10.2215 24.092 10.2025 24.1535 10.183C24.3345 10.125 24.508 10.0655 24.6755 10.0035C24.7045 9.9925 24.732 9.9815 24.761 9.9705C24.9025 9.917 25.0385 9.8615 25.1685 9.805C25.206 9.7885 25.2445 9.7725 25.281 9.756C25.4195 9.6935 25.5535 9.6295 25.6775 9.563C25.7335 9.5335 25.782 9.503 25.8345 9.473C25.8945 9.4385 25.9545 9.4035 26.01 9.368C26.0415 9.348 26.079 9.329 26.109 9.309C28.3475 9.7945 28.9375 10.3255 28.9945 10.5325ZM13.5 2.5C21.7445 2.5 25.9145 3.798 25.9925 4.543C25.932 4.881 25.1645 5.3275 23.8055 5.7475C22.0365 6.294 19.2685 6.7945 15.7605 6.9495C15.581 6.957 15.402 6.9645 15.219 6.9705C15.0695 6.9755 14.9195 6.98 14.767 6.984C14.353 6.9935 13.933 7 13.5 7C13.067 7 12.647 6.9935 12.233 6.984C12.081 6.9805 11.931 6.9755 11.781 6.9705C11.5975 6.965 11.4185 6.957 11.2395 6.9495C7.7315 6.7945 4.963 6.294 3.1945 5.7475C1.835 5.3275 1.068 4.881 1.0075 4.543C1.0855 3.798 5.2555 2.5 13.5 2.5ZM1 7.998V5.9275C1.3995 6.179 1.9055 6.4085 2.5 6.6155V9.0095C1.5275 8.645 1.001 8.2795 1 7.998ZM3.422 14.9175C3.4295 14.9255 3.441 14.9325 3.4485 14.9405C4.133 15.6315 5.5505 16.1745 7.315 16.5795C7.3555 16.589 7.3985 16.598 7.4395 16.6075C7.569 16.6365 7.7005 16.665 7.8335 16.6925C9.454 17.0375 11.3885 17.287 13.496 17.4105C13.4975 17.4105 13.4985 17.411 13.4995 17.411C13.5005 17.411 13.501 17.4105 13.5015 17.4105C14.1785 17.45 14.871 17.4775 15.578 17.4895C15.891 17.496 16.199 17.5 16.5 17.5C16.845 17.5 17.199 17.496 17.559 17.4875C18.213 17.474 18.8575 17.447 19.493 17.41C19.4955 17.41 19.4975 17.4115 19.5 17.4115C19.5045 17.4115 19.508 17.409 19.5125 17.409C21.6255 17.2845 23.608 17.0325 25.2845 16.67C24.9215 16.86 24.4245 17.0565 23.8055 17.248C21.938 17.825 18.9555 18.3505 15.165 18.4725C15.0525 18.476 14.9415 18.48 14.8275 18.483C14.705 18.486 14.5805 18.488 14.456 18.4905C14.1415 18.4955 13.825 18.5 13.5 18.5C13.067 18.5 12.647 18.4935 12.233 18.484C12.081 18.4805 11.931 18.4755 11.781 18.4705C11.5975 18.465 11.4185 18.457 11.2395 18.4495C7.7315 18.2945 4.963 17.794 3.1945 17.2475C1.8195 16.8225 1.05 16.3705 1.0055 16.031C1.061 15.843 1.5665 15.3725 3.422 14.9175ZM1 19.498V17.4275C1.3995 17.679 1.9055 17.9085 2.5 18.1155V20.5L2.2145 20.389L2.2085 20.395C1.4235 20.0695 1.001 19.75 1 19.498ZM2.5 24.998V22.9275C2.8995 23.179 3.4055 23.4085 4 23.6155V26.0095C3.0275 25.645 2.501 25.2795 2.5 24.998ZM26 26.0095V23.616C26.5945 23.409 27.1005 23.1795 27.5 22.928V24.997C27.4995 25.2785 26.9725 25.6445 26 26.0095ZM27.4935 21.5385C27.439 21.877 26.671 22.326 25.3055 22.748C23.5365 23.2945 20.7685 23.795 17.2605 23.95C17.081 23.9575 16.902 23.965 16.719 23.971C16.5695 23.976 16.4195 23.9805 16.267 23.9845C15.853 23.9935 15.433 24 15 24C14.567 24 14.1465 23.9935 13.732 23.984C13.5815 23.9805 13.433 23.9755 13.2845 23.9705C13.1 23.9645 12.92 23.957 12.7395 23.9495C9.2315 23.7945 6.4635 23.294 4.6945 22.7475C3.372 22.339 2.608 21.905 2.512 21.57C2.661 21.622 2.8155 21.6725 2.974 21.722C2.99 21.727 3.006 21.732 3.022 21.7365C3.157 21.778 3.295 21.818 3.4365 21.857C3.49 21.872 3.544 21.887 3.5985 21.9015C3.6785 21.923 3.7605 21.9435 3.8425 21.9645C5.6635 22.431 7.988 22.7615 10.4975 22.91C10.4985 22.91 10.499 22.9105 10.5 22.9105C10.5005 22.9105 10.501 22.91 10.5015 22.91C11.2765 22.956 12.068 22.9845 12.868 22.994C13.081 22.998 13.2925 23 13.5 23C13.7755 23 14.0575 22.9965 14.343 22.9915C15.0725 22.9795 15.7925 22.9525 16.4965 22.9105C16.498 22.9105 16.499 22.9115 16.5005 22.9115C16.503 22.9115 16.5045 22.91 16.507 22.91C17.3645 22.8585 18.1945 22.785 18.992 22.6935C18.995 22.6935 18.9975 22.695 19.0005 22.695C19.0115 22.695 19.0205 22.6895 19.0315 22.6885C19.9195 22.586 20.7615 22.46 21.543 22.3135C21.704 22.284 21.8625 22.2535 22.0195 22.222C22.0545 22.215 22.0895 22.208 22.1245 22.2005C23.601 21.8975 24.879 21.505 25.756 21.0185C25.804 20.9925 25.849 20.9655 25.8945 20.939C25.95 20.906 26.003 20.8725 26.0545 20.8385C26.1025 20.8075 26.158 20.7775 26.202 20.746C27.189 21.098 27.461 21.413 27.4935 21.5385ZM27.5 15.0095V12.616C28.0945 12.409 28.6005 12.1795 29 11.928V13.997C28.9995 14.2785 28.4725 14.6445 27.5 15.0095Z" fill="#A1A4B1"/>
</svg>
