<svg width="24" height="24" viewBox="0 0 24 24" fill="none" xmlns="http://www.w3.org/2000/svg">
<path d="M12 0C5.38319 0 0 5.38319 0 12C0 18.6168 5.38319 24 12 24C18.6168 24 24 18.6168 24 12C24 5.38319 18.6168 0 12 0ZM12.6196 3.49535L15.0525 1.74101C17.385 2.43935 19.3924 3.91281 20.7609 5.8615L19.8281 8.75483L16.5167 9.82699L12.6196 7.00978V3.49535ZM8.92194 1.74061L11.3266 3.49519V7.00986L7.4939 9.80065L4.1217 8.70271L3.20485 5.88663C4.57406 3.92517 6.57891 2.44178 8.92194 1.74061ZM3.4139 18.39C2.08226 16.6051 1.29293 14.3931 1.29293 12C1.29293 11.9019 1.29446 11.8041 1.29713 11.7067L3.73479 9.9343L7.18158 11.0541L8.60994 15.4432L6.46214 18.3994L3.4139 18.39ZM15.4469 22.1377C14.3648 22.5067 13.2054 22.7071 12 22.7071C10.758 22.7071 9.56493 22.4937 8.45479 22.103L7.50028 19.1699L9.65673 16.2019H14.2231L16.4036 19.2031L15.4469 22.1377ZM17.4591 18.4562L15.3529 15.5573L16.8036 11.098L20.2312 9.98432L22.7043 11.7848C22.7058 11.8564 22.7071 11.9279 22.7071 11.9999C22.7071 14.4251 21.8961 16.6642 20.5317 18.4613L17.4591 18.4562Z" fill="#57C467"/>
</svg>
