<svg width="30" height="30" viewBox="0 0 30 30" fill="none" xmlns="http://www.w3.org/2000/svg">
<path d="M24.7893 10.9436L25.9594 7.32694C24.2489 4.89108 21.7312 3.04916 18.8156 2.17633L15.7744 4.36926V8.76219L20.6479 12.2837L24.7893 10.9436Z" fill="white"/>
<path d="M28.3807 14.7312L25.2893 12.4806L21.0047 13.8727L19.1914 19.4469L21.8241 23.0705L25.6649 23.077C27.3704 20.8305 28.3841 18.0316 28.3841 15.0001C28.3841 14.9101 28.3824 14.8207 28.3807 14.7312Z" fill="white"/>
<path d="M8.97702 13.8178L4.66853 12.418L1.62146 14.6334C1.61813 14.7552 1.61621 14.8774 1.61621 15C1.61621 17.9913 2.60288 20.7564 4.26742 22.9875L8.07773 22.9993L10.7625 19.304L8.97702 13.8178Z" fill="white"/>
<path d="M9.36684 12.2508L14.1577 8.76229V4.36895L11.1519 2.17572C8.2231 3.05218 5.72128 4.90643 4.00977 7.35825L5.14734 10.8784L9.36684 12.2508Z" fill="white"/>
<path d="M12.0706 20.2525L9.375 23.9625L10.5681 27.6289C11.9558 28.1172 13.4471 28.3838 14.9996 28.3838C16.5064 28.3838 17.9557 28.1333 19.3083 27.6721L20.5041 24.0039L17.7785 20.2525H12.0706Z" fill="white"/>
<path d="M15 0C6.72899 0 0 6.72899 0 15C0 23.271 6.72899 30 15 30C23.271 30 30 23.271 30 15C30 6.72899 23.271 0 15 0ZM15.7744 4.36919L18.8157 2.17626C21.7312 3.04919 24.2405 4.89101 25.9511 7.32687L24.7852 10.9435L20.6459 12.2837L15.7744 8.76222V4.36919ZM11.1524 2.17576L14.1583 4.36899V8.76232L9.36737 12.2508L5.15212 10.8784L4.00606 7.35828C5.71758 4.90646 8.22364 3.05222 11.1524 2.17576ZM4.26737 22.9875C2.60283 20.7564 1.61616 17.9913 1.61616 15C1.61616 14.8774 1.61808 14.7552 1.62141 14.6333L4.66848 12.4179L8.97697 13.8177L10.7624 19.3039L8.07768 22.9993L4.26737 22.9875ZM19.3087 27.6721C17.9561 28.1333 16.5068 28.3838 15 28.3838C13.4475 28.3838 11.9562 28.1172 10.5685 27.6288L9.37535 23.9624L12.0709 20.2524H17.7789L20.5044 24.0038L19.3087 27.6721ZM21.8238 23.0703L19.1911 19.4467L21.0044 13.8725L25.289 12.4804L28.3804 14.731C28.3822 14.8205 28.3838 14.9099 28.3838 14.9999C28.3838 18.0314 27.3701 20.8303 25.6646 23.0767L21.8238 23.0703Z" fill="#A1A4B1"/>
</svg>
