<svg width="30" height="30" viewBox="0 0 30 30" fill="none" xmlns="http://www.w3.org/2000/svg">
<path d="M24.6878 22.8189H10.3292C9.73746 22.8189 9.25781 22.3393 9.25781 21.7475C9.25781 21.1557 9.73746 20.6761 10.3292 20.6761H24.6875C25.2792 20.6761 25.7589 21.1557 25.7589 21.7475C25.7589 22.3393 25.2796 22.8189 24.6878 22.8189Z" fill="#A1A4B1"/>
<path d="M24.6878 16.0936H10.3292C9.73746 16.0936 9.25781 15.6139 9.25781 15.0221C9.25781 14.4304 9.73746 13.9507 10.3292 13.9507H24.6875C25.2792 13.9507 25.7589 14.4304 25.7589 15.0221C25.7592 15.6139 25.2796 16.0936 24.6878 16.0936Z" fill="#A1A4B1"/>
<path d="M24.6878 9.36811H10.3292C9.73746 9.36811 9.25781 8.88846 9.25781 8.29668C9.25781 7.70489 9.73746 7.22525 10.3292 7.22525H24.6875C25.2792 7.22525 25.7589 7.70489 25.7589 8.29668C25.7589 8.88846 25.2796 9.36811 24.6878 9.36811Z" fill="#A1A4B1"/>
<path d="M5.72506 9.81853C6.51976 9.81853 7.16399 9.1743 7.16399 8.3796C7.16399 7.5849 6.51976 6.94067 5.72506 6.94067C4.93036 6.94067 4.28613 7.5849 4.28613 8.3796C4.28613 9.1743 4.93036 9.81853 5.72506 9.81853Z" fill="#A1A4B1"/>
<path d="M5.72506 16.461C6.51976 16.461 7.16399 15.8167 7.16399 15.022C7.16399 14.2273 6.51976 13.5831 5.72506 13.5831C4.93036 13.5831 4.28613 14.2273 4.28613 15.022C4.28613 15.8167 4.93036 16.461 5.72506 16.461Z" fill="#A1A4B1"/>
<path d="M5.72506 23.1035C6.51976 23.1035 7.16399 22.4593 7.16399 21.6646C7.16399 20.8699 6.51976 20.2257 5.72506 20.2257C4.93036 20.2257 4.28613 20.8699 4.28613 21.6646C4.28613 22.4593 4.93036 23.1035 5.72506 23.1035Z" fill="#A1A4B1"/>
<rect x="1" y="1" width="28" height="28" rx="3" stroke="#A1A4B1" stroke-width="2" stroke-linecap="round" stroke-linejoin="round"/>
</svg>
