<svg width="24" height="24" viewBox="0 0 24 24" fill="none" xmlns="http://www.w3.org/2000/svg">
<path d="M13.4896 5.48001C14.5896 5.48001 15.4896 4.58001 15.4896 3.48001C15.4896 2.38001 14.5896 1.48001 13.4896 1.48001C12.3896 1.48001 11.4896 2.38001 11.4896 3.48001C11.4896 4.58001 12.3896 5.48001 13.4896 5.48001ZM9.88965 19.38L10.8896 14.98L12.9896 16.98V22.98H14.9896V15.48L12.8896 13.48L13.4896 10.48C14.7896 11.98 16.7896 12.98 18.9896 12.98V10.98C17.0896 10.98 15.4896 9.98001 14.6896 8.58001L13.6896 6.98001C13.2896 6.38001 12.6896 5.98001 11.9896 5.98001C11.6896 5.98001 11.4896 6.08001 11.1896 6.08001L5.98965 8.28001V12.98H7.98965V9.58001L9.78965 8.88001L8.18965 16.98L3.28965 15.98L2.88965 17.98L9.88965 19.38Z" fill="black"/>
</svg>
