<svg width="24" height="24" viewBox="0 0 24 24" fill="none" xmlns="http://www.w3.org/2000/svg">
<path d="M6.99977 18C5.89977 18 5.00977 18.9 5.00977 20C5.00977 21.1 5.89977 22 6.99977 22C8.09977 22 8.99977 21.1 8.99977 20C8.99977 18.9 8.09977 18 6.99977 18Z" fill="black"/>
<path d="M16.9998 18C15.8998 18 15.0098 18.9 15.0098 20C15.0098 21.1 15.8998 22 16.9998 22C18.0998 22 18.9998 21.1 18.9998 20C18.9998 18.9 18.0998 18 16.9998 18Z" fill="black"/>
<path d="M15.55 13C16.3 13 16.96 12.59 17.3 11.97L20.88 5.48C21.25 4.82 20.77 4 20.01 4H5.21L4.27 2H1V4H3L6.6 11.59L5.25 14.03C4.52 15.37 5.48 17 7 17H19V15H7L8.1 13H15.55ZM6.16 6H18.31L15.55 11H8.53L6.16 6Z" fill="black"/>
</svg>
