<svg width="24" height="24" viewBox="0 0 1050 1040" fill="none" xmlns="http://www.w3.org/2000/svg">
<path d="M245.822 212.96C245.822 212.96 310.074 185.905 370.475 173.571C400.266 229.587 440.006 273.36 440.019 273.36C463.092 185.749 490.38 147.255 490.38 147.255C567.329 136.722 651.13 134.294 652.333 134.26C652.533 134.42 720.655 189.309 771.72 246.111C735.223 298.029 693.071 346.717 693.058 346.717C768.322 326.147 839.954 324.85 839.954 324.85C884.518 389.141 932.013 466.324 932.013 466.324C934.536 426.753 926.731 374.031 922.405 344.812L922.405 344.81L922.404 344.808C920.815 334.075 919.696 326.514 919.731 323.942C962.622 323.735 1020.88 335.887 1020.88 335.887C965.047 261.739 891.054 217.435 891.054 217.435C874.868 150.731 839.227 90.4087 839.227 90.4087C839.227 90.4087 826.478 137.774 808.269 172.196C808.269 172.196 715.115 135.158 652.342 134.26L652.346 134.259C618.024 114.03 576.539 98.9735 553.589 90.6443C545.302 87.6366 539.431 85.5061 537.188 84.3258C569.055 44.0028 644.059 0.696777 644.059 0.696777C541.157 2.36988 441.847 56.804 441.847 56.804C383.393 37.8292 308.713 33.7308 308.713 33.7308C308.713 33.7308 324.445 83.1586 342.214 116.543C342.214 116.543 277.637 169.628 245.822 212.96Z" fill="black"/>
<path d="M142.324 403.465C142.328 402.802 142.635 357.631 147.862 287.056C189.054 250.637 245.822 212.96 245.822 212.96C198.742 209.964 163.607 212.26 163.607 212.26C174.528 158.305 199.196 100.408 199.196 100.408C99.0955 179.783 28.6437 294.838 6.76367 425.846C6.76367 425.846 45.3876 377.676 90.4705 338.559C90.4705 338.559 105.54 366.389 142.317 403.467C109.512 441.207 90.7743 494.015 84.5389 511.588C83.7566 513.793 83.171 515.443 82.7792 516.439C52.0927 523.547 16.9576 535.959 0.408203 542.132C0.587548 545.351 0.835602 548.563 1.08235 551.758C1.17465 552.953 1.26676 554.146 1.35502 555.336C30.1738 580.471 58.0458 599.809 58.0458 599.809C48.3185 637.784 44.9204 686.745 43.9088 724.76C48.9313 736.11 54.3605 747.275 60.1859 758.235C80.1334 725.603 113.505 672.349 130.106 652.609C130.106 652.609 177.381 686.11 222.074 711.401C222.074 711.401 192.166 653.776 177.303 593.739C218.287 541.666 283.37 490.409 283.37 490.409C213.138 487.828 154.852 501.031 154.852 501.031C144.881 445.687 142.357 404.022 142.324 403.465Z" fill="black"/>
<path d="M932.026 466.337C932.026 466.337 891.392 553.313 853.676 616.903C790.208 626.984 707.864 617.058 703.63 616.547C703.517 616.534 703.46 616.527 703.46 616.527C747.207 676.149 802.432 712.529 802.432 712.529C774.69 763.708 741.15 816.106 741.15 816.106C813.636 801.103 859.053 773.12 872.57 764.791C873.824 764.019 874.803 763.416 875.504 763.008C914.296 786.314 961.078 807.157 961.078 807.157C960.3 745.019 953.608 697.925 953.608 697.925C1019.75 637.655 1049.26 559.058 1049.26 559.058C1049.26 559.058 983.023 590.834 945.605 598.72C945.605 598.72 944.49 524.507 932.026 466.337Z" fill="black"/>
<path d="M586.875 487.141C644.733 558.812 703.447 616.527 703.447 616.527C607.523 602.273 529.639 575.374 529.639 575.374C490.678 637.836 448.163 710.454 448.163 710.454C448.163 710.454 424.39 631.676 420.369 542.262C420.369 542.262 372.187 525.401 283.383 490.435C283.383 490.435 344.639 452.408 418.774 431.669C414.442 423.122 425.804 316.822 440.018 273.373C440.018 273.373 483.247 343.449 518.447 394.965C518.447 394.965 587.342 371.593 693.084 346.717C693.071 346.717 635.213 420.139 586.875 487.141Z" fill="black"/>
<path d="M431.99 1030.85C424.756 1029.54 417.556 1028.06 410.395 1026.4C385.999 1000.24 348.789 957.528 320.372 912.64C320.372 912.64 215.551 904.184 141.688 871.837C141.688 871.837 202.775 860.359 269.855 825.768C269.5 825.067 269.002 824.107 268.377 822.901L268.372 822.893C261.371 809.391 238.477 765.243 222.062 711.427C222.062 711.427 286.132 763.189 333.602 793.487C333.602 793.487 393.924 758.779 448.15 710.454C448.15 710.454 434.402 777.248 426.789 853.537C461.824 873.545 497.148 893.041 532.752 912.017C478.059 919.981 424.221 918.308 424.221 918.308C422.094 960.667 427.788 1005.19 431.99 1030.85Z" fill="black"/>
<path d="M888.02 894.638C888.02 894.638 815.727 913.742 745.171 916.388C745.171 916.388 744.639 868.257 741.137 816.106C741.137 816.106 703.668 869.282 654.759 920.422C597.004 919.592 532.752 912.03 532.752 912.03C554.786 934.455 577.453 956.249 600.727 977.385C557.226 1014.36 517.02 1039.07 517.02 1039.07C522.727 1039.15 528.537 1039.19 534.283 1039.11C671.594 1036.86 795.688 982.21 888.02 894.638Z" fill="black"/>
</svg>
