<svg height="50" viewBox="0 0 261 90" fill="none" xmlns="http://www.w3.org/2000/svg">
<path d="M118.972 24.4072C119.141 24.6952 119.244 25.0174 119.272 25.3502L119.271 25.3512H114.389C114.553 24.7272 114.85 24.2312 115.279 23.8612C115.708 23.4912 116.234 23.3062 116.856 23.3062C117.373 23.3062 117.811 23.4112 118.17 23.6232C118.502 23.8087 118.779 24.0793 118.972 24.4072Z" fill="white"/>
<path d="M154.804 29.0432C154.381 29.2842 153.923 29.4042 153.429 29.4042C152.936 29.4042 152.477 29.2832 152.054 29.0432C151.631 28.8022 151.294 28.4552 151.041 28.0032C150.788 27.5502 150.662 27.0182 150.662 26.4082C150.662 25.7972 150.788 25.2682 151.041 24.8212C151.294 24.3752 151.631 24.0312 152.054 23.7902C152.477 23.5492 152.936 23.4292 153.429 23.4292C153.911 23.4264 154.386 23.5513 154.804 23.7912C155.23 24.035 155.58 24.3914 155.817 24.8212C156.07 25.2682 156.197 25.7972 156.197 26.4082C156.197 27.0192 156.07 27.5502 155.817 28.0032C155.564 28.4552 155.227 28.8022 154.804 29.0432Z" fill="white"/>
<path d="M108.133 53.0352C107.55 53.6282 106.746 53.9252 105.722 53.9252H102.005V47.8752H105.723C106.746 47.8752 107.55 48.1672 108.133 48.7502C108.717 49.3342 109.008 50.0452 109.008 50.8852C109.008 51.7252 108.717 52.4412 108.133 53.0352Z" fill="white"/>
<path d="M130.036 62.1712C129.349 62.9182 128.423 63.2922 127.256 63.2922C126.417 63.2922 125.771 63.0932 125.321 62.6932C124.871 62.2942 124.646 61.7772 124.646 61.1422C124.646 59.5862 125.69 58.8082 127.778 58.8082C128.915 58.806 130.037 59.0578 131.064 59.5452C131.064 60.5482 130.721 61.4242 130.036 62.1712Z" fill="white"/>
<path d="M195.417 62.1562C194.761 62.5248 194.02 62.7151 193.267 62.7082C192.514 62.7151 191.773 62.5248 191.117 62.1562C190.462 61.7872 189.935 61.2502 189.536 60.5432C189.136 59.8372 188.936 59.0232 188.936 58.1022C188.936 57.1802 189.136 56.3722 189.536 55.6762C189.935 54.9792 190.462 54.4472 191.117 54.0792C191.773 53.7103 192.514 53.5196 193.267 53.5262C194.02 53.5196 194.761 53.7103 195.417 54.0792C196.078 54.4542 196.621 55.0076 196.983 55.6762C197.372 56.3722 197.566 57.1802 197.566 58.1022C197.566 59.0442 197.372 59.8632 196.983 60.5592C196.621 61.2279 196.078 61.7813 195.417 62.1562Z" fill="white"/>
<path d="M224.551 54.7392C224.869 55.2202 225.048 55.7062 225.089 56.1982H217.288C217.595 55.2352 218.092 54.4732 218.778 53.9102C219.463 53.3472 220.288 53.0652 221.25 53.0652C222.007 53.0652 222.668 53.2242 223.231 53.5412C223.794 53.8592 224.234 54.2582 224.551 54.7392Z" fill="white"/>
<path fill-rule="evenodd" clip-rule="evenodd" d="M249.943 0H10.0566C6.55934 0 5.29139 0.381679 4.01354 1.09243C2.75007 1.79017 1.71695 2.86807 1.04839 4.18609C0.363968 5.51888 0 6.84135 0 10.489V79.511C0 83.1587 0.365946 84.4811 1.0474 85.8139C1.71638 87.1317 2.74984 88.2092 4.01354 88.9065C5.29139 89.6204 6.55934 90 10.0566 90H249.943C253.44 90 254.708 89.6204 255.986 88.9065C257.25 88.2091 258.283 87.1316 258.952 85.8139C259.635 84.4811 260 83.1587 260 79.511V10.489C260 6.84135 259.635 5.51888 258.952 4.18609C258.283 2.86845 257.25 1.79093 255.986 1.09346C254.708 0.379616 253.44 0 249.943 0ZM37.783 63.8772C36.593 64.5092 35.48 64.7122 34.538 64.5472L52.58 46.8352L58.65 52.7952L37.783 63.8772ZM32 29.5692C32 28.3052 32.298 27.2782 32.815 26.5322L51.035 44.9112L32.773 63.3342C32.282 62.5942 32 61.5882 32 60.3572V29.5692ZM38.989 25.9912L59.919 37.0782L53.857 43.0292L35.807 25.3052C36.736 25.1642 37.826 25.3752 38.989 25.9912ZM67.533 48.7632L61.471 51.9132L54.843 45.5492L61.434 39.2222L67.529 42.3792C70.917 44.1332 70.919 47.0062 67.533 48.7632ZM101.452 30.3212C102.461 30.8962 103.604 31.194 104.765 31.1842C106.692 31.1842 108.249 30.5562 109.437 29.2982C109.975 28.762 110.379 28.1071 110.617 27.3862C110.864 26.6522 110.987 25.8852 110.987 25.0862C110.987 24.7342 110.958 24.3932 110.899 24.0642H104.748V25.8262H109.031C108.977 26.2655 108.855 26.6937 108.669 27.0952C108.488 27.4832 108.267 27.8062 108.008 28.0652C107.61 28.4397 107.151 28.7435 106.651 28.9632C106.146 29.1872 105.517 29.2982 104.765 29.2982C103.964 29.3038 103.175 29.1038 102.474 28.7172C101.769 28.3297 101.184 27.7567 100.782 27.0602C100.359 26.3432 100.148 25.5212 100.148 24.5922C100.148 23.6642 100.359 22.8422 100.782 22.1252C101.184 21.4287 101.769 20.8557 102.474 20.4682C103.179 20.0802 103.937 19.8862 104.748 19.8862C105.398 19.8776 106.044 20.0036 106.643 20.2562C107.205 20.4974 107.707 20.8585 108.114 21.3142L109.489 19.9392C108.937 19.3282 108.249 18.8522 107.427 18.5122C106.605 18.1702 105.717 18.0002 104.765 18.0002C103.604 17.991 102.461 18.2895 101.452 18.8652C100.454 19.4282 99.624 20.2461 99.046 21.2352C98.453 22.2392 98.156 23.3592 98.156 24.5922C98.156 25.8262 98.453 26.9452 99.046 27.9502C99.6238 28.9397 100.454 29.7579 101.452 30.3212ZM114.592 30.5672C115.291 30.9792 116.081 31.1842 116.962 31.1842C117.914 31.1842 118.731 30.9732 119.412 30.5502C120.103 30.1176 120.673 29.5174 121.069 28.8052L119.43 28.0302C119.183 28.4642 118.857 28.8082 118.452 29.0602C118.046 29.3132 117.567 29.4392 117.015 29.4392C116.344 29.4475 115.694 29.2058 115.191 28.7612C114.668 28.3082 114.371 27.6652 114.301 26.8312H121.192C121.228 26.5842 121.245 26.3782 121.245 26.2142C121.245 25.3442 121.072 24.5632 120.725 23.8702C120.379 23.1762 119.873 22.6302 119.209 22.2312C118.546 21.8312 117.761 21.6312 116.856 21.6312C115.987 21.6312 115.211 21.8492 114.53 22.2832C113.851 22.715 113.301 23.3206 112.935 24.0372C112.552 24.7747 112.356 25.5944 112.362 26.4252C112.362 27.3302 112.559 28.1442 112.952 28.8672C113.331 29.5744 113.899 30.1628 114.592 30.5672ZM125.299 30.8492C125.652 30.9792 126.027 31.0432 126.427 31.0432C126.979 31.0432 127.449 30.9552 127.837 30.7792V28.8932C127.661 29.0102 127.496 29.0962 127.344 29.1482C127.191 29.2012 127.015 29.2282 126.815 29.2282C126.38 29.2282 126.075 29.1102 125.898 28.8752C125.71 28.6762 125.616 28.3352 125.616 27.8532V23.6232H127.802V21.9132H125.617V19.3752H123.677V21.9132H122.109V23.6232H123.677V28.2762C123.677 29.1462 123.93 29.8332 124.435 30.3392C124.659 30.5492 124.947 30.7202 125.299 30.8492ZM133.962 20.2302C134.215 20.4832 134.523 20.6092 134.887 20.6092C135.059 20.6125 135.23 20.5806 135.389 20.5154C135.548 20.4503 135.692 20.3532 135.812 20.2302C136.065 19.9772 136.192 19.6692 136.192 19.3052C136.192 18.9402 136.065 18.6322 135.813 18.3802C135.56 18.1272 135.252 18.0002 134.887 18.0002C134.523 18.0002 134.215 18.1272 133.962 18.3792C133.709 18.6322 133.583 18.9402 133.583 19.3052C133.58 19.4771 133.612 19.6478 133.677 19.8069C133.742 19.966 133.839 20.1101 133.962 20.2302ZM135.857 21.9132H133.917V30.9032H135.857V21.9132ZM140.739 30.8492C141.091 30.9792 141.467 31.0432 141.867 31.0432C142.419 31.0432 142.889 30.9552 143.277 30.7792V28.8932C143.101 29.0102 142.936 29.0962 142.783 29.1482C142.631 29.2012 142.455 29.2282 142.255 29.2282C141.82 29.2282 141.514 29.1102 141.338 28.8752C141.15 28.6762 141.056 28.3352 141.056 27.8532V23.6232H143.242V21.9132H141.057V19.3752H139.117V21.9132H137.549V23.6232H139.117V28.2762C139.117 29.1462 139.37 29.8332 139.875 30.3392C140.099 30.5492 140.386 30.7202 140.739 30.8492ZM150.997 30.5592C151.714 30.9762 152.524 31.1842 153.429 31.1842C154.334 31.1842 155.145 30.9762 155.862 30.5592C156.568 30.1524 157.148 29.5572 157.536 28.8402C157.936 28.1122 158.136 27.3012 158.136 26.4082C158.136 25.5262 157.936 24.7222 157.536 23.9932C157.147 23.2752 156.568 22.6778 155.862 22.2662C155.145 21.8432 154.334 21.6312 153.429 21.6312C152.524 21.6312 151.714 21.8402 150.997 22.2572C150.291 22.6638 149.711 23.2586 149.323 23.9752C148.923 24.7042 148.723 25.5152 148.723 26.4082C148.723 27.3002 148.923 28.1122 149.322 28.8402C149.71 29.5574 150.29 30.1525 150.997 30.5592ZM161.589 21.9142H159.739V30.9022H161.678V26.0382C161.678 25.5802 161.772 25.1502 161.96 24.7502C162.148 24.3512 162.413 24.0312 162.753 23.7902C163.094 23.5492 163.482 23.4292 163.916 23.4292C164.527 23.4292 165.006 23.5932 165.352 23.9232C165.699 24.2522 165.872 24.7692 165.872 25.4742V30.9022H167.812V25.2092C167.812 24.1052 167.527 23.2322 166.957 22.5912C166.387 21.9512 165.555 21.6312 164.462 21.6312C163.892 21.6297 163.332 21.7721 162.832 22.0452C162.321 22.3222 161.936 22.6712 161.678 23.0942H161.589V21.9142ZM105.6 43.9442H97.86L97.859 43.9452V65.9332H102.005V57.8562H105.6C106.992 57.8562 108.261 57.5642 109.408 56.9812C110.523 56.4268 111.459 55.5702 112.11 54.5092C112.765 53.4442 113.093 52.2362 113.093 50.8852C113.093 49.5342 112.765 48.3312 112.11 47.2762C111.455 46.2222 110.554 45.4032 109.408 44.8202C108.261 44.2362 106.992 43.9442 105.6 43.9442ZM118.961 43.9452H114.938V65.9332H118.961V43.9452ZM122.22 64.9652C123.284 65.9382 124.646 66.4252 126.304 66.4252C127.307 66.4252 128.193 66.2302 128.96 65.8412C129.728 65.4522 130.348 64.9502 130.818 64.3362H131.064V65.9332H135.026V56.2902C135.026 54.1612 134.402 52.5432 133.152 51.4382C131.904 50.3322 130.081 49.7792 127.686 49.7792C126.335 49.7792 125.086 50.0452 123.939 50.5782C122.816 51.0916 121.836 51.8715 121.083 52.8502L123.663 54.8772C124.127 54.3134 124.709 53.8575 125.367 53.5412C126.053 53.2032 126.765 53.0352 127.502 53.0352C128.587 53.0352 129.452 53.3012 130.097 53.8332C130.742 54.3652 131.064 55.0612 131.064 55.9212V56.5972C129.918 56.1262 128.536 55.8912 126.918 55.8912C125.751 55.8912 124.687 56.1062 123.724 56.5362C122.762 56.9662 122.005 57.5802 121.452 58.3782C120.899 59.1772 120.623 60.0982 120.623 61.1422C120.623 62.7192 121.155 63.9932 122.22 64.9652ZM135.459 50.2712L142.061 65.1962L138.714 72.5662H143.044L152.718 50.2712H148.234L144.334 60.0062H144.088L140.034 50.2712H135.459ZM160.77 64.7972C162.244 65.8822 163.943 66.4242 165.868 66.4242C167.098 66.4239 168.316 66.1731 169.446 65.6872C170.577 65.216 171.558 64.4466 172.286 63.4612C173.023 62.4682 173.391 61.2552 173.391 59.8222C173.391 58.0812 172.885 56.6742 171.871 55.5992C170.858 54.5242 169.399 53.6592 167.495 53.0032L166.113 52.5432C164.844 52.1132 163.933 51.6682 163.38 51.2072C162.827 50.7472 162.551 50.1892 162.551 49.5342C162.551 48.8582 162.843 48.3112 163.426 47.8912C164.01 47.4712 164.752 47.2612 165.653 47.2612C166.533 47.2612 167.255 47.4922 167.818 47.9522C168.368 48.3944 168.779 48.9861 169 49.6562L172.655 48.1202C172.225 46.8722 171.436 45.7822 170.29 44.8502C169.143 43.9192 167.577 43.4532 165.591 43.4532C164.219 43.4532 162.991 43.7242 161.906 44.2672C160.821 44.8092 159.981 45.5512 159.387 46.4932C158.794 47.4352 158.497 48.4792 158.497 49.6262C158.497 51.1612 158.999 52.4362 160.002 53.4492C161.006 54.4632 162.213 55.2152 163.626 55.7062L164.977 56.1982C166.574 56.7912 167.685 57.3492 168.309 57.8712C168.933 58.3932 169.246 59.0642 169.246 59.8832C169.246 60.7022 168.918 61.3422 168.263 61.8032C167.608 62.2632 166.82 62.4932 165.898 62.4932C164.793 62.4932 163.871 62.1452 163.134 61.4492C162.398 60.7532 161.875 59.8222 161.568 58.6552L157.668 60.1902C158.262 62.1772 159.295 63.7122 160.77 64.7972ZM179.413 65.8262C180.104 66.0676 180.831 66.187 181.563 66.1792C182.519 66.1839 183.468 66.0064 184.358 65.6562V61.7262C184.039 61.9251 183.705 62.0996 183.36 62.2482C183.104 62.3512 182.782 62.4012 182.393 62.4012C181.697 62.4012 181.205 62.2372 180.919 61.9102C180.57 61.5612 180.396 60.9892 180.396 60.1912V53.7112H184.236V50.2712H180.396V45.8482H176.373V50.2702H173.64V53.7102H176.373V60.9282C176.373 62.6272 176.854 63.9372 177.817 64.8582C178.226 65.2682 178.759 65.5902 179.413 65.8262ZM188.937 65.3342C190.207 66.0612 191.65 66.4242 193.267 66.4242L193.266 66.4252C194.864 66.4252 196.297 66.0612 197.566 65.3352C198.81 64.6341 199.836 63.6028 200.53 62.3552C201.236 61.0962 201.59 59.6782 201.59 58.1022C201.59 56.5462 201.236 55.1342 200.53 53.8642C199.839 52.6103 198.813 51.5733 197.567 50.8692C196.297 50.1432 194.864 49.7792 193.267 49.7792C191.65 49.7792 190.207 50.1432 188.937 50.8692C187.69 51.5731 186.664 52.6101 185.973 53.8642C185.267 55.1332 184.913 56.5462 184.913 58.1022C184.913 59.6782 185.267 61.0962 185.973 62.3552C186.668 63.6024 187.693 64.6334 188.937 65.3342ZM206.874 50.2712H203.097V65.9332H207.12V58.1332C207.12 56.8222 207.468 55.7372 208.164 54.8772C208.86 54.0172 209.802 53.5872 210.99 53.5872C211.398 53.585 211.806 53.6317 212.203 53.7262C212.677 53.8482 213.143 53.9968 213.6 54.1712V50.1482C213.006 49.9232 212.351 49.8102 211.635 49.8102C210.685 49.8013 209.751 50.0509 208.932 50.5322C208.113 51.0132 207.51 51.6222 207.12 52.3592H206.874V50.2712ZM217.165 65.3492C218.414 66.0662 219.817 66.4242 221.373 66.4242C224.628 66.4242 227.054 65.0322 228.651 62.2482L225.396 60.6512C225.017 61.3164 224.472 61.8718 223.814 62.2632C223.149 62.6622 222.355 62.8622 221.434 62.8622C220.328 62.8622 219.382 62.5392 218.594 61.8952C217.805 61.2502 217.309 60.3032 217.104 59.0532H228.866C228.928 58.6232 228.958 58.1732 228.958 57.7032C228.958 56.2292 228.656 54.8872 228.052 53.6792C227.464 52.4886 226.541 51.4958 225.396 50.8232C224.229 50.1272 222.837 49.7792 221.219 49.7792C219.704 49.7792 218.332 50.1582 217.104 50.9162C215.888 51.6606 214.891 52.7149 214.217 53.9712C213.521 55.2475 213.162 56.6797 213.172 58.1332C213.172 59.7092 213.526 61.1262 214.232 62.3862C214.918 63.6249 215.933 64.6502 217.165 65.3492Z" fill="white"/>
</svg>
