<svg height="50" viewBox="0 0 261 90" fill="none" xmlns="http://www.w3.org/2000/svg">
<path d="M105.351 27.437C104.558 28.219 103.456 28.609 102.046 28.609H100.019V19.762H102.046C103.456 19.762 104.558 20.155 105.351 20.942C106.144 21.73 106.541 22.811 106.541 24.185C106.541 25.572 106.144 26.656 105.351 27.437Z" fill="white"/>
<path d="M115.794 28.636C115.371 28.877 114.913 28.997 114.419 28.997C113.925 28.997 113.468 28.876 113.045 28.636C112.622 28.395 112.284 28.048 112.032 27.596C111.779 27.143 111.652 26.611 111.652 26.001C111.652 25.39 111.779 24.861 112.031 24.414C112.284 23.968 112.622 23.624 113.045 23.383C113.468 23.142 113.926 23.022 114.419 23.022C114.901 23.0192 115.376 23.1441 115.794 23.384C116.22 23.6278 116.57 23.9842 116.807 24.414C117.06 24.861 117.187 25.39 117.187 26.001C117.187 26.612 117.06 27.143 116.808 27.596C116.555 28.048 116.217 28.395 115.794 28.636Z" fill="white"/>
<path d="M154.905 28.636C154.482 28.877 154.024 28.997 153.53 28.997C153.037 28.997 152.578 28.876 152.155 28.636C151.732 28.395 151.395 28.048 151.142 27.596C150.889 27.143 150.763 26.611 150.763 26.001C150.763 25.39 150.889 24.861 151.142 24.414C151.395 23.968 151.732 23.624 152.155 23.383C152.578 23.142 153.037 23.022 153.53 23.022C154.012 23.0192 154.487 23.1441 154.905 23.384C155.331 23.6278 155.681 23.9842 155.918 24.414C156.171 24.861 156.298 25.39 156.298 26.001C156.298 26.612 156.171 27.143 155.918 27.596C155.665 28.048 155.328 28.395 154.905 28.636Z" fill="white"/>
<path d="M164.441 28.838C164.064 29.062 163.641 29.173 163.171 29.173C162.666 29.173 162.255 29.041 161.938 28.777C161.62 28.512 161.462 28.174 161.462 27.764C161.462 27.305 161.632 26.932 161.973 26.644C162.314 26.356 162.848 26.213 163.576 26.213C163.954 26.2113 164.33 26.2584 164.696 26.353C165.025 26.4353 165.342 26.5597 165.639 26.723C165.641 27.1495 165.532 27.5691 165.321 27.94C165.111 28.316 164.816 28.615 164.441 28.838Z" fill="white"/>
<path d="M175.007 28.627C174.601 28.874 174.164 28.997 173.694 28.997C173.224 28.997 172.783 28.874 172.372 28.627C171.961 28.38 171.632 28.028 171.385 27.569C171.138 27.111 171.015 26.588 171.015 26.001C171.015 25.413 171.138 24.893 171.385 24.441C171.613 24.0084 171.954 23.6458 172.372 23.392C172.769 23.1495 173.225 23.0212 173.689 23.0212C174.154 23.0212 174.61 23.1495 175.007 23.392C175.421 23.648 175.759 24.0102 175.985 24.441C176.232 24.893 176.355 25.413 176.355 26.001C176.355 26.589 176.232 27.111 175.985 27.569C175.738 28.027 175.412 28.38 175.007 28.627Z" fill="white"/>
<path d="M190.173 28.636C189.75 28.877 189.292 28.997 188.799 28.997C188.305 28.997 187.847 28.876 187.424 28.636C187.001 28.395 186.663 28.048 186.411 27.596C186.158 27.143 186.031 26.611 186.031 26.001C186.031 25.39 186.158 24.861 186.41 24.414C186.664 23.968 187.001 23.624 187.424 23.383C187.847 23.142 188.305 23.022 188.799 23.022C189.281 23.0194 189.755 23.1443 190.173 23.384C190.599 23.6278 190.949 23.9842 191.186 24.414C191.44 24.861 191.566 25.39 191.566 26.001C191.566 26.612 191.44 27.143 191.187 27.596C190.934 28.048 190.596 28.395 190.173 28.636Z" fill="white"/>
<path d="M232.915 24C233.084 24.288 233.187 24.6102 233.215 24.943L228.333 24.944C228.497 24.32 228.793 23.824 229.223 23.454C229.651 23.084 230.177 22.899 230.8 22.899C231.317 22.899 231.755 23.004 232.113 23.216C232.445 23.4015 232.722 23.6721 232.915 24Z" fill="white"/>
<path d="M106.605 50.939L108.54 56.468L102.797 56.467L104.762 50.939L105.561 48.299H105.807L106.605 50.939Z" fill="white"/>
<path d="M127.645 61.719C126.989 62.108 126.283 62.302 125.526 62.302C124.789 62.3025 124.067 62.1008 123.437 61.719C122.779 61.3264 122.238 60.7642 121.871 60.091C121.482 59.396 121.287 58.596 121.287 57.696C121.287 56.795 121.482 55.996 121.871 55.3C122.235 54.6293 122.777 54.0716 123.437 53.688C124.092 53.31 124.788 53.12 125.525 53.12C126.27 53.1163 127.002 53.3124 127.645 53.688C128.305 54.0716 128.847 54.6293 129.211 55.3C129.6 55.996 129.794 56.795 129.794 57.696C129.794 58.597 129.6 59.395 129.211 60.091C128.844 60.7642 128.303 61.3264 127.645 61.719Z" fill="white"/>
<path d="M145.337 61.719C144.681 62.108 143.975 62.302 143.218 62.302C142.481 62.3025 141.759 62.1008 141.129 61.719C140.471 61.3264 139.93 60.7642 139.563 60.091C139.174 59.396 138.98 58.596 138.98 57.696C138.98 56.795 139.174 55.996 139.563 55.3C139.927 54.6293 140.469 54.0716 141.129 53.688C141.784 53.31 142.481 53.12 143.217 53.12C143.962 53.1163 144.694 53.3124 145.337 53.688C145.997 54.0716 146.539 54.6293 146.903 55.3C147.292 55.996 147.486 56.795 147.486 57.696C147.486 58.597 147.292 59.395 146.903 60.091C146.536 60.7642 145.995 61.3264 145.337 61.719Z" fill="white"/>
<path d="M195.068 61.75C194.412 62.1186 193.671 62.3089 192.918 62.302C192.165 62.3089 191.424 62.1186 190.768 61.75C190.113 61.381 189.586 60.844 189.188 60.137C188.788 59.431 188.588 58.617 188.588 57.696C188.588 56.774 188.788 55.966 189.188 55.27C189.586 54.573 190.113 54.041 190.768 53.673C191.424 53.3041 192.165 53.1134 192.918 53.12C193.671 53.1134 194.412 53.3041 195.068 53.673C195.729 54.048 196.272 54.6013 196.634 55.27C197.023 55.966 197.218 56.774 197.218 57.696C197.218 58.638 197.024 59.457 196.634 60.153C196.272 60.8217 195.729 61.375 195.068 61.75Z" fill="white"/>
<path d="M224.203 54.333C224.52 54.814 224.7 55.3 224.74 55.792H216.939C217.247 54.829 217.743 54.067 218.429 53.504C219.115 52.941 219.939 52.659 220.901 52.659C221.659 52.659 222.319 52.818 222.883 53.135C223.445 53.453 223.885 53.852 224.203 54.333Z" fill="white"/>
<path fill-rule="evenodd" clip-rule="evenodd" d="M250.943 0H11.0566C7.55934 0 6.29139 0.381679 5.01354 1.09243C3.75007 1.79017 2.71695 2.86807 2.04839 4.18609C1.36397 5.51888 1 6.84135 1 10.489V79.511C1 83.1587 1.36496 84.4811 2.0474 85.8139C2.71638 87.1317 3.74984 88.2092 5.01354 88.9065C6.29139 89.6204 7.55934 90 11.0566 90H250.943C254.44 90 255.708 89.6204 256.986 88.9065C258.25 88.2091 259.283 87.1316 259.952 85.8139C260.635 84.4811 261 83.1587 261 79.511V10.489C261 6.84135 260.635 5.51888 259.952 4.18609C259.283 2.86845 258.25 1.79093 256.986 1.09346C255.708 0.379616 254.44 0 250.943 0ZM63.3565 32.3772C63.0712 32.5433 58.3144 35.3133 58.366 40.965C58.428 47.787 64.482 50.045 64.554 50.07C64.518 50.229 63.605 53.327 61.335 56.47C59.439 59.238 57.452 61.946 54.297 61.994C52.7969 62.0278 51.784 61.6069 50.7285 61.1683C49.6275 60.7108 48.4801 60.234 46.685 60.234C44.7827 60.234 43.5847 60.7262 42.4294 61.2008C41.43 61.6113 40.4627 62.0087 39.099 62.063C36.093 62.17 33.797 59.109 31.833 56.364C27.905 50.763 24.847 40.579 28.947 33.649C30.933 30.25 34.556 28.062 38.427 28.004C40.1331 27.9694 41.7688 28.6114 43.2025 29.1742C44.2983 29.6042 45.276 29.988 46.077 29.988C46.7808 29.988 47.7315 29.6194 48.8396 29.1899C50.5862 28.5128 52.7239 27.6841 54.902 27.908C56.39 27.951 60.628 28.482 63.362 32.374L63.3565 32.3772ZM54.939 17C55.24 19.666 54.158 22.293 52.576 24.223C50.926 26.124 48.286 27.578 45.715 27.391C45.379 24.826 46.682 22.098 48.139 20.434C49.789 18.546 52.65 17.1 54.939 17ZM102.082 17.875H98.046L98.045 30.495H102.081C103.386 30.495 104.526 30.231 105.501 29.702C106.453 29.196 107.235 28.4203 107.748 27.472C108.271 26.515 108.533 25.419 108.533 24.185C108.533 22.952 108.271 21.856 107.748 20.899C107.235 19.9507 106.453 19.175 105.501 18.669C104.526 18.14 103.386 17.875 102.082 17.875ZM111.987 30.152C112.704 30.569 113.515 30.777 114.419 30.777C115.324 30.777 116.135 30.569 116.852 30.152C117.558 29.7451 118.138 29.15 118.526 28.433C118.926 27.705 119.126 26.894 119.126 26.001C119.126 25.119 118.926 24.315 118.526 23.586C118.137 22.868 117.558 22.2706 116.852 21.859C116.135 21.436 115.324 21.224 114.419 21.224C113.515 21.224 112.704 21.433 111.987 21.85C111.281 22.2566 110.701 22.8514 110.313 23.568C109.913 24.297 109.713 25.108 109.713 26.001C109.713 26.893 109.913 27.705 110.313 28.433C110.701 29.15 111.281 29.7451 111.987 30.152ZM121.822 21.507H119.725L122.597 30.495H124.607L126.651 24.044H126.704L128.767 30.496H130.811L133.684 21.506H131.622L129.806 27.94H129.736L127.727 21.506H125.735L123.708 27.94H123.638L121.822 21.507ZM136.786 21.507H134.935V30.495H136.874V25.631C136.874 25.173 136.968 24.743 137.156 24.343C137.344 23.944 137.609 23.624 137.949 23.383C138.29 23.142 138.678 23.022 139.113 23.022C139.724 23.022 140.202 23.186 140.549 23.516C140.896 23.845 141.069 24.362 141.069 25.067V30.495H143.008V24.802C143.008 23.698 142.723 22.825 142.153 22.184C141.583 21.544 140.752 21.224 139.659 21.224C139.089 21.2225 138.529 21.3649 138.029 21.638C137.518 21.915 137.133 22.264 136.874 22.687H136.786V21.507ZM147.133 17.875H145.193V30.495H147.133V17.875ZM151.098 30.152C151.815 30.569 152.625 30.777 153.53 30.777C154.435 30.777 155.246 30.569 155.963 30.152C156.669 29.7451 157.249 29.15 157.637 28.433C158.037 27.705 158.237 26.894 158.237 26.001C158.237 25.119 158.037 24.315 157.637 23.586C157.248 22.868 156.669 22.2706 155.963 21.859C155.246 21.436 154.435 21.224 153.53 21.224C152.625 21.224 151.815 21.433 151.098 21.85C150.392 22.2566 149.812 22.8514 149.424 23.568C149.024 24.297 148.824 25.108 148.824 26.001C148.824 26.893 149.024 27.705 149.423 28.433C149.811 29.1502 150.391 29.7453 151.098 30.152ZM161.109 30.398C161.614 30.651 162.19 30.777 162.836 30.777C163.448 30.777 163.988 30.648 164.458 30.39C164.928 30.131 165.292 29.808 165.551 29.42H165.639V30.495H167.542V24.89C167.542 23.727 167.19 22.825 166.485 22.184C165.78 21.544 164.775 21.224 163.471 21.224C162.695 21.224 161.99 21.377 161.355 21.683C160.721 21.988 160.205 22.417 159.805 22.969L161.162 24.009C161.412 23.654 161.749 23.3689 162.14 23.181C162.546 22.981 162.977 22.881 163.436 22.881C164.082 22.881 164.611 23.054 165.022 23.401C165.433 23.748 165.639 24.197 165.639 24.749V25.208C165.392 25.09 165.057 24.982 164.634 24.882C164.211 24.782 163.735 24.732 163.207 24.732C162.137 24.732 161.254 25.002 160.554 25.542C159.855 26.083 159.505 26.817 159.505 27.746C159.497 28.3009 159.643 28.8471 159.929 29.323C160.211 29.7871 160.621 30.1603 161.109 30.398ZM171.209 30.16C171.867 30.572 172.601 30.777 173.411 30.777C174.008 30.7865 174.597 30.6407 175.121 30.354C175.627 30.072 176.009 29.732 176.267 29.332H176.356V30.495H178.206V17.875H176.267V21.418L176.355 22.687H176.267C176.009 22.276 175.627 21.929 175.122 21.647C174.616 21.365 174.046 21.224 173.412 21.224C172.634 21.2152 171.869 21.4297 171.209 21.842C170.546 22.2585 170.007 22.8457 169.649 23.542C169.266 24.265 169.076 25.084 169.076 26C169.076 26.917 169.267 27.737 169.649 28.46C170.007 29.1563 170.546 29.7435 171.209 30.16ZM186.366 30.152C187.083 30.569 187.894 30.777 188.799 30.777C189.703 30.777 190.514 30.569 191.231 30.152C191.937 29.7451 192.517 29.15 192.905 28.433C193.305 27.705 193.505 26.894 193.505 26.001C193.505 25.119 193.305 24.315 192.905 23.586C192.516 22.868 191.937 22.2706 191.231 21.859C190.514 21.436 189.703 21.224 188.799 21.224C187.894 21.224 187.083 21.433 186.366 21.85C185.66 22.2566 185.08 22.8514 184.692 23.568C184.292 24.297 184.092 25.108 184.092 26.001C184.092 26.893 184.292 27.705 184.692 28.433C185.08 29.15 185.66 29.7451 186.366 30.152ZM196.959 21.507H195.109V30.495H197.047V25.631C197.047 25.173 197.141 24.743 197.329 24.343C197.517 23.944 197.782 23.624 198.123 23.383C198.463 23.142 198.851 23.022 199.286 23.022C199.897 23.022 200.376 23.186 200.722 23.516C201.069 23.845 201.242 24.362 201.242 25.067V30.495H203.181V24.802C203.181 23.698 202.896 22.825 202.326 22.184C201.756 21.544 200.925 21.224 199.832 21.224C199.262 21.2225 198.702 21.3649 198.202 21.638C197.691 21.915 197.306 22.264 197.047 22.687H196.959V21.507ZM212.047 30.442C212.399 30.572 212.775 30.637 213.175 30.637V30.636C213.727 30.636 214.197 30.548 214.585 30.372V28.486C214.408 28.603 214.244 28.689 214.092 28.741C213.938 28.794 213.762 28.821 213.562 28.821C213.128 28.821 212.822 28.703 212.646 28.468C212.458 28.269 212.364 27.928 212.364 27.446V23.216H214.549V21.506H212.364V18.968H210.426V21.506H208.856V23.216H210.425V27.869C210.425 28.739 210.678 29.426 211.183 29.932C211.407 30.142 211.694 30.313 212.047 30.442ZM218.427 17.875H216.488V30.496H218.427V25.666C218.427 25.208 218.526 24.776 218.726 24.37C218.913 23.9802 219.195 23.6439 219.546 23.392C219.893 23.145 220.284 23.022 220.718 23.022C221.294 23.022 221.761 23.193 222.12 23.533C222.477 23.874 222.657 24.385 222.657 25.067V30.495H224.596V24.802C224.596 23.698 224.308 22.825 223.732 22.184C223.157 21.544 222.322 21.224 221.229 21.224C220.654 21.2209 220.087 21.3633 219.581 21.638C219.07 21.915 218.686 22.264 218.427 22.687H218.339L218.427 21.312V17.875ZM228.536 30.16C229.234 30.572 230.025 30.777 230.906 30.777C231.858 30.777 232.674 30.566 233.356 30.143C234.047 29.7104 234.617 29.1101 235.013 28.398L233.373 27.623C233.127 28.057 232.801 28.401 232.395 28.653C231.989 28.906 231.511 29.032 230.959 29.032C230.288 29.0405 229.637 28.7988 229.134 28.354C228.612 27.901 228.314 27.258 228.244 26.424H235.136C235.171 26.177 235.189 25.971 235.189 25.807C235.189 24.937 235.015 24.156 234.669 23.463C234.323 22.769 233.817 22.223 233.153 21.824C232.49 21.424 231.705 21.224 230.8 21.224C229.931 21.224 229.155 21.442 228.474 21.876C227.795 22.3076 227.244 22.9133 226.878 23.63C226.496 24.3675 226.299 25.1873 226.306 26.018C226.306 26.923 226.502 27.737 226.896 28.46C227.275 29.1672 227.843 29.7556 228.536 30.16ZM108.048 43.538H103.288L95.058 65.527H99.634L101.476 60.275H109.891L111.734 65.527H116.31L108.048 43.538ZM121.287 49.865H117.51V72.16H121.533V65.865L121.287 63.653H121.533C121.942 64.329 122.562 64.893 123.392 65.343C124.22 65.793 125.167 66.019 126.232 66.019C127.645 66.019 128.929 65.665 130.086 64.959C131.243 64.253 132.149 63.27 132.804 62.011C133.459 60.752 133.787 59.313 133.787 57.696C133.787 56.099 133.459 54.666 132.804 53.396C132.149 52.127 131.243 51.139 130.086 50.433C128.929 49.726 127.645 49.374 126.232 49.374C125.167 49.374 124.226 49.604 123.406 50.064C122.588 50.525 121.963 51.093 121.533 51.769H121.287V49.865ZM138.98 49.865H135.202V72.16H139.225V65.865L138.98 63.653H139.225C139.634 64.329 140.254 64.893 141.084 65.343C141.912 65.793 142.859 66.019 143.924 66.019C145.337 66.019 146.621 65.665 147.778 64.959C148.935 64.253 149.841 63.27 150.496 62.011C151.151 60.752 151.479 59.313 151.479 57.696C151.479 56.099 151.151 54.666 150.496 53.396C149.841 52.127 148.935 51.139 147.778 50.433C146.621 49.726 145.337 49.374 143.924 49.374C142.859 49.374 141.917 49.604 141.099 50.064C140.28 50.525 139.655 51.093 139.225 51.769H138.98V49.865ZM160.421 64.391C161.895 65.476 163.594 66.018 165.519 66.018C166.749 66.0177 167.967 65.7669 169.097 65.281C170.228 64.81 171.21 64.0406 171.938 63.055C172.675 62.062 173.043 60.849 173.043 59.416C173.043 57.675 172.536 56.268 171.523 55.193C170.509 54.118 169.051 53.253 167.147 52.597L165.765 52.137C164.495 51.707 163.584 51.262 163.032 50.801C162.479 50.341 162.202 49.783 162.202 49.128C162.202 48.452 162.494 47.905 163.078 47.485C163.661 47.065 164.404 46.855 165.304 46.855C166.184 46.855 166.906 47.086 167.469 47.546C168.019 47.9882 168.43 48.5799 168.651 49.25L172.306 47.714C171.876 46.466 171.088 45.376 169.941 44.444C168.795 43.513 167.229 43.047 165.243 43.047C163.871 43.047 162.642 43.318 161.557 43.861C160.472 44.403 159.633 45.145 159.039 46.087C158.445 47.029 158.148 48.073 158.148 49.22C158.148 50.755 158.65 52.03 159.653 53.043C160.657 54.057 161.864 54.809 163.278 55.3L164.628 55.792C166.225 56.385 167.336 56.943 167.96 57.465C168.585 57.987 168.897 58.658 168.897 59.477C168.897 60.296 168.57 60.936 167.914 61.397C167.26 61.857 166.471 62.087 165.55 62.087C164.444 62.087 163.523 61.739 162.786 61.043C162.049 60.347 161.527 59.416 161.219 58.249L157.319 59.784C157.913 61.771 158.947 63.306 160.421 64.391ZM179.065 65.42C179.756 65.6614 180.483 65.7808 181.215 65.773C182.171 65.7777 183.12 65.6002 184.01 65.25V61.32C183.691 61.519 183.357 61.6935 183.011 61.842C182.756 61.945 182.434 61.995 182.044 61.995C181.348 61.995 180.857 61.831 180.57 61.504C180.222 61.155 180.047 60.583 180.047 59.785V53.305H183.887V49.865H180.048V45.442H176.025V49.864H173.292V53.304H176.025V60.522C176.025 62.221 176.506 63.531 177.468 64.452C177.878 64.862 178.41 65.184 179.065 65.42ZM188.588 64.928C189.858 65.655 191.301 66.018 192.918 66.018C194.515 66.018 195.948 65.655 197.218 64.929C198.461 64.2278 199.487 63.1964 200.181 61.949C200.888 60.69 201.241 59.272 201.241 57.696C201.241 56.14 200.888 54.728 200.181 53.458C199.49 52.2041 198.464 51.1671 197.218 50.463C195.948 49.737 194.515 49.373 192.918 49.373C191.301 49.373 189.858 49.737 188.588 50.463C187.342 51.1671 186.316 52.2041 185.625 53.458C184.918 54.727 184.565 56.14 184.565 57.696C184.565 59.272 184.918 60.69 185.625 61.949C186.319 63.1961 187.345 64.227 188.588 64.928ZM206.526 49.865H202.748L202.749 65.527H206.772V57.727C206.772 56.416 207.12 55.331 207.816 54.471C208.511 53.611 209.454 53.181 210.641 53.181C211.049 53.1788 211.457 53.2254 211.854 53.32C212.328 53.442 212.795 53.5905 213.252 53.765V49.742C212.658 49.517 212.003 49.404 211.286 49.404C210.337 49.3953 209.403 49.6449 208.584 50.126C207.765 50.607 207.161 51.216 206.772 51.953H206.526V49.865ZM216.817 64.943C218.066 65.66 219.468 66.018 221.024 66.018C224.279 66.018 226.706 64.626 228.303 61.842L225.047 60.245C224.668 60.9102 224.123 61.4656 223.465 61.857C222.8 62.256 222.007 62.456 221.085 62.456C219.98 62.456 219.033 62.133 218.245 61.489C217.457 60.844 216.96 59.897 216.755 58.647H228.517C228.579 58.217 228.61 57.767 228.61 57.297C228.61 55.823 228.308 54.481 227.704 53.273C227.116 52.0822 226.192 51.0895 225.047 50.417C223.881 49.721 222.488 49.373 220.871 49.373C219.355 49.373 217.984 49.752 216.755 50.51C215.539 51.2545 214.543 52.3088 213.869 53.565C213.173 54.8413 212.814 56.2735 212.824 57.727C212.824 59.303 213.178 60.72 213.884 61.98C214.57 63.2187 215.585 64.244 216.817 64.943Z" fill="white"/>
</svg>
