<svg width="30" height="24" viewBox="0 0 30 24" fill="none" xmlns="http://www.w3.org/2000/svg">
<path fill-rule="evenodd" clip-rule="evenodd" d="M28.9278 3.85724C28.1427 5.01057 27.1638 6.01924 26.0345 6.83858C26.1147 8.65752 25.8912 10.4771 25.3732 12.2226C24.9071 13.7951 24.2126 15.2906 23.3118 16.6612C22.4001 18.0657 21.291 19.3316 20.0185 20.4199C18.7438 21.5092 17.2078 22.3772 15.4105 23.0266C13.6132 23.6759 11.6905 23.9999 9.64249 23.9999C6.41582 23.9999 3.46382 23.1372 0.785156 21.4106C1.20249 21.4586 1.66649 21.4826 2.17849 21.4826C4.85716 21.4826 7.24382 20.6612 9.33849 19.0172C8.12497 19.0058 6.94771 18.6022 5.98249 17.8666C5.01874 17.1568 4.30571 16.159 3.94649 15.0172C4.33849 15.0772 4.70249 15.1066 5.03582 15.1066C5.54782 15.1066 6.05316 15.0412 6.55316 14.9106C5.25027 14.6549 4.07828 13.9505 3.24116 12.9199C2.37606 11.8947 1.90976 10.5919 1.92782 9.25058V9.17858C2.73849 9.63191 3.60782 9.87458 4.53582 9.91058C3.75264 9.38948 3.109 8.6845 2.66116 7.85725C2.19725 7.0151 1.95715 6.06802 1.96382 5.10658C1.96382 4.05991 2.22649 3.08924 2.75049 2.19591C4.18711 3.96711 5.97836 5.41819 8.00916 6.45591C10.0745 7.52125 12.2852 8.11325 14.6425 8.23191C14.5493 7.7976 14.5014 7.35478 14.4998 6.91058C14.4998 5.31591 15.0625 3.95591 16.1878 2.83058C17.3118 1.70524 18.6718 1.14258 20.2678 1.14258C21.9345 1.14258 23.3385 1.74924 24.4812 2.96391C25.7733 2.7164 27.0123 2.24534 28.1425 1.57191C27.7025 2.93991 26.8572 3.99991 25.6065 4.74924C26.7521 4.61974 27.8718 4.31859 28.9278 3.85591V3.85724Z" fill="#323C46"/>
</svg>
