<svg viewBox="0 0 1585 351" fill="none" xmlns="http://www.w3.org/2000/svg">
<defs><style>
	.white {
		fill: #ffffff;
	}

	.colored {
		fill: #FA850B;
	}

	.text {
		<!-- display: none; -->
	}
</style></defs>
<path d="M74 312.515C74 332.949 57.4345 349.515 37 349.515C16.5655 349.515 0 332.949 0 312.515C0 292.08 16.5655 275.515 37 275.515C57.4345 275.515 74 292.08 74 312.515Z" class="white icon"/>
<path d="M222.727 132.576C222.727 153.078 206.108 169.697 185.606 169.697C165.105 169.697 148.485 153.078 148.485 132.576C148.485 112.075 165.105 95.4551 185.606 95.4551C206.108 95.4551 222.727 112.075 222.727 132.576Z" class="colored icon"/>
<path d="M222.727 228.03C222.727 248.532 206.108 265.152 185.606 265.152C165.105 265.152 148.485 248.532 148.485 228.03C148.485 207.529 165.105 190.909 185.606 190.909C206.108 190.909 222.727 207.529 222.727 228.03Z" class="colored icon"/>
<path d="M143.25 74.2424C86.1547 74.2424 74.2778 86.1137 74.2778 143.182V285.162C65.5238 274.349 52.1391 265.152 37.1389 265.152C22.1387 265.152 8.75393 274.349 0 285.162V100.758C0 45.1107 45.1322 0 100.806 0H281.194C336.868 0 382 45.1107 382 100.758V312.879C382 333.38 365.372 350 344.861 350C324.35 350 307.722 333.38 307.722 312.879C307.722 312.879 307.722 200.25 307.722 143.182C307.722 86.1137 295.845 74.2424 238.75 74.2424C181.655 74.2424 143.25 74.2424 143.25 74.2424Z" class="colored icon"/>
<path d="M755.764 257H705.922V163.634C705.922 144.68 704.05 131.459 700.306 123.971C695.86 115.313 687.67 110.984 675.736 110.984C661.228 110.984 649.177 118.004 639.583 132.044C640.753 142.106 641.338 151.817 641.338 161.177V257H591.496V163.634C591.496 143.978 589.624 130.64 585.88 123.62C581.434 115.196 573.595 110.984 562.363 110.984C549.259 110.984 537.442 117.068 526.912 129.236V257H477.07V72.3742H520.243L523.753 94.8382C537.793 77.0542 555.577 68.1622 577.105 68.1622C587.635 68.1622 597.814 71.0872 607.642 76.9372C617.47 82.5532 624.724 89.9242 629.404 99.0502C643.912 78.4582 664.387 68.1622 690.829 68.1622C710.719 68.1622 726.865 76.1182 739.267 92.0302C750.265 106.304 755.764 129.353 755.764 161.177V257Z" class="white text"/>
<path d="M869.394 68.1622C897.24 68.1622 920.289 77.4052 938.541 95.8912C956.793 114.377 965.919 137.309 965.919 164.687C965.919 192.065 956.793 214.997 938.541 233.483C920.289 251.969 897.24 261.212 869.394 261.212C841.314 261.212 818.148 251.969 799.896 233.483C781.644 214.997 772.518 192.065 772.518 164.687C772.518 137.309 781.644 114.377 799.896 95.8912C818.148 77.4052 841.314 68.1622 869.394 68.1622ZM902.388 203.297C910.812 193.001 915.024 180.131 915.024 164.687C915.024 149.243 910.812 136.49 902.388 126.428C893.964 116.132 882.966 110.984 869.394 110.984C855.822 110.984 844.707 116.132 836.049 126.428C827.625 136.724 823.413 149.477 823.413 164.687C823.413 179.897 827.625 192.65 836.049 202.946C844.707 213.242 855.822 218.39 869.394 218.39C882.966 218.39 893.964 213.359 902.388 203.297Z" class="white text"/>
<path d="M1083.22 113.792H1036.19V185.396C1036.19 192.416 1036.42 197.681 1036.89 201.191C1038.29 212.891 1043.67 218.741 1053.03 218.741C1059.35 218.741 1066.02 216.986 1073.04 213.476L1088.48 250.331C1076.08 257.585 1061.46 261.212 1044.61 261.212C1030.57 261.212 1018.75 257.702 1009.16 250.682C999.798 243.428 993.363 233.717 989.853 221.549C987.513 214.061 986.343 203.765 986.343 190.661V113.792H964.23V72.3742H986.343L994.065 31.6582H1036.19V72.3742H1083.22V113.792Z" class="white text"/>
<path d="M1267.82 257H1224.65L1220.79 231.728C1206.75 251.384 1187.68 261.212 1163.57 261.212C1143.45 261.212 1127.07 253.139 1114.43 236.993C1103.44 222.719 1097.94 199.787 1097.94 168.197V72.3742H1147.78V165.74C1147.78 184.694 1149.65 197.915 1153.39 205.403C1157.84 214.061 1166.03 218.39 1177.96 218.39C1185.45 218.39 1192.82 216.284 1200.08 212.072C1207.57 207.86 1213.53 202.127 1217.98 194.873V72.3742H1267.82V257Z" class="white text"/>
<path d="M1397.75 113.792H1350.71V185.396C1350.71 192.416 1350.95 197.681 1351.42 201.191C1352.82 212.891 1358.2 218.741 1367.56 218.741C1373.88 218.741 1380.55 216.986 1387.57 213.476L1403.01 250.331C1390.61 257.585 1375.99 261.212 1359.14 261.212C1345.1 261.212 1333.28 257.702 1323.69 250.682C1314.33 243.428 1307.89 233.717 1304.38 221.549C1302.04 214.061 1300.87 203.765 1300.87 190.661V113.792H1278.76V72.3742H1300.87L1308.59 31.6582H1350.71V72.3742H1397.75V113.792Z" class="white text"/>
<path d="M1581.65 176.972H1451.78C1453.65 190.076 1458.56 200.723 1466.52 208.913C1474.71 217.103 1485.24 221.198 1498.11 221.198C1509.34 221.198 1518.58 218.975 1525.84 214.529C1533.09 210.083 1539.88 203.18 1546.2 193.82L1578.84 215.933C1568.08 231.611 1556.14 243.077 1543.04 250.331C1530.17 257.585 1514.02 261.212 1494.6 261.212C1466.75 261.212 1444.17 252.437 1426.86 234.887C1409.77 217.337 1401.23 194.639 1401.23 166.793C1401.23 138.947 1410.24 115.547 1428.26 96.5932C1446.28 77.6392 1468.51 68.1622 1494.95 68.1622C1520.69 68.1622 1541.98 76.2352 1558.83 92.3812C1575.68 108.527 1584.1 128.885 1584.1 153.455C1584.1 160.475 1583.29 168.314 1581.65 176.972ZM1454.23 142.925H1533.21C1532.74 131.927 1529 123.269 1521.98 116.951C1515.19 110.399 1506.65 107.123 1496.35 107.123C1474.36 107.123 1460.32 119.057 1454.23 142.925Z" class="white text"/>
<path d="M504.512 350H476.992V305.2H486.144V342.256H504.512V350Z" class="colored text"/>
<path d="M563.438 350H534.702V305.2H563.438V312.944H543.854V323.056H563.438V330.8H543.854V342.256H563.438V350Z" class="colored text"/>
<path d="M636.061 350H625.501L622.62 341.68H606.685L603.677 350H593.501L611.805 305.2H619.229L636.061 350ZM614.812 319.152L609.372 334.192H620.061L614.877 319.152H614.812Z" class="colored text"/>
<path d="M667.122 305.2H681.33C683.25 305.2 685.127 305.456 686.962 305.968C688.797 306.48 690.546 307.248 692.21 308.272C693.874 309.253 695.197 310.661 696.178 312.496C697.202 314.288 697.714 316.336 697.714 318.64C697.714 321.882 696.797 324.549 694.962 326.64C693.127 328.688 690.802 330.181 687.986 331.12C692.509 337.477 697.074 343.77 701.682 350H690.162L677.874 332.144H676.274V350H667.122V305.2ZM676.274 312.944V324.4H679.858C682.29 324.4 684.231 323.952 685.682 323.056C687.175 322.117 687.922 320.709 687.922 318.832C687.922 317.082 687.282 315.674 686.002 314.608C684.765 313.498 683.122 312.944 681.074 312.944H676.274Z" class="colored text"/>
<path d="M770.596 350H762.341L741.797 321.968V350H732.645V305.2H740.708L761.444 333.296V305.2H770.596V350Z" class="colored text"/>
<path d="M854.312 350H844.52V340.464H854.312V350Z" class="colored text"/>
<path d="M957.095 350H928.359V305.2H957.095V312.944H937.512V323.056H957.095V330.8H937.512V342.256H957.095V350Z" class="colored text"/>
<path d="M1029.72 350H1019.16L1016.28 341.68H1000.34L997.334 350H987.158L1005.46 305.2H1012.89L1029.72 350ZM1008.47 319.152L1003.03 334.192H1013.72L1008.53 319.152H1008.47Z" class="colored text"/>
<path d="M1060.78 305.2H1074.99C1076.91 305.2 1078.78 305.456 1080.62 305.968C1082.45 306.48 1084.2 307.248 1085.87 308.272C1087.53 309.253 1088.85 310.661 1089.84 312.496C1090.86 314.288 1091.37 316.336 1091.37 318.64C1091.37 321.882 1090.45 324.549 1088.62 326.64C1086.78 328.688 1084.46 330.181 1081.64 331.12C1086.17 337.477 1090.73 343.77 1095.34 350H1083.82L1071.53 332.144H1069.93V350H1060.78V305.2ZM1069.93 312.944V324.4H1073.52C1075.95 324.4 1077.89 323.952 1079.34 323.056C1080.83 322.117 1081.58 320.709 1081.58 318.832C1081.58 317.082 1080.94 315.674 1079.66 314.608C1078.42 313.498 1076.78 312.944 1074.73 312.944H1069.93Z" class="colored text"/>
<path d="M1164.25 350H1156L1135.45 321.968V350H1126.3V305.2H1134.37L1155.1 333.296V305.2H1164.25V350Z" class="colored text"/>
<path d="M1247.97 350H1238.18V340.464H1247.97V350Z" class="colored text"/>
<path d="M1364.13 317.296L1350.75 350H1344.22L1331.17 317.168V350H1322.02V305.2H1335.52L1347.55 336.432L1360.03 305.2H1373.28V350H1364.13V317.296Z" class="colored text"/>
<path d="M1439.52 338.416C1442.13 335.472 1443.43 331.866 1443.43 327.6C1443.43 323.333 1442.13 319.749 1439.52 316.848C1436.96 313.904 1433.72 312.432 1429.8 312.432C1425.87 312.432 1422.61 313.882 1420 316.784C1417.4 319.685 1416.1 323.29 1416.1 327.6C1416.1 331.909 1417.4 335.514 1420 338.416C1422.61 341.317 1425.87 342.768 1429.8 342.768C1433.72 342.768 1436.96 341.317 1439.52 338.416ZM1446.44 311.216C1450.96 315.696 1453.22 321.157 1453.22 327.6C1453.22 334.042 1450.96 339.525 1446.44 344.048C1441.91 348.528 1436.37 350.768 1429.8 350.768C1423.18 350.768 1417.62 348.528 1413.09 344.048C1408.57 339.525 1406.31 334.042 1406.31 327.6C1406.31 321.157 1408.57 315.696 1413.09 311.216C1417.62 306.693 1423.18 304.432 1429.8 304.432C1436.37 304.432 1441.91 306.693 1446.44 311.216Z" class="colored text"/>
<path d="M1522.89 305.2L1504.65 350H1497.16L1480.33 305.2H1490.95L1501.57 335.984H1501.64L1512.77 305.2H1522.89Z" class="colored text"/>
<path d="M1581.88 350H1553.15V305.2H1581.88V312.944H1562.3V323.056H1581.88V330.8H1562.3V342.256H1581.88V350Z" class="colored text"/>
</svg>
