<svg width="30" height="28" viewBox="0 0 30 28" fill="none" xmlns="http://www.w3.org/2000/svg">
<circle cx="14.5841" cy="10.4167" r="2.91667" fill="#FA850B"/>
<circle cx="14.5841" cy="17.9167" r="2.91667" fill="#FA850B"/>
<path d="M11.25 5.83333C6.76607 5.83333 5.83333 6.76607 5.83333 11.25V22.4056C5.14585 21.556 4.09469 20.8333 2.91667 20.8333C1.73864 20.8333 0.687481 21.556 0 22.4056V7.91667C0 3.54441 3.54441 0 7.91667 0H22.0833C26.4556 0 30 3.54441 30 7.91667V24.5833C30 26.1942 28.6942 27.5 27.0833 27.5C25.4725 27.5 24.1667 26.1942 24.1667 24.5833C24.1667 24.5833 24.1667 15.7339 24.1667 11.25C24.1667 6.76607 23.2339 5.83333 18.75 5.83333C14.2661 5.83333 11.25 5.83333 11.25 5.83333Z" fill="#FA850B"/>
<path d="M5.83333 24.1657C5.83333 25.7765 4.5275 27.0824 2.91667 27.0824C1.30584 27.0824 0 25.7765 0 24.1657C0 22.5549 1.30584 21.249 2.91667 21.249C4.5275 21.249 5.83333 22.5549 5.83333 24.1657Z" fill="white"/>
</svg>
