<svg width="411" height="234" viewBox="0 0 411 234" fill="none" xmlns="http://www.w3.org/2000/svg">
<g opacity="0.07">
<path d="M37.6541 117C58.4129 117 75.2413 100.102 75.2413 79.258C75.2413 58.4138 58.4129 41.5161 37.6541 41.5161C16.8952 41.5161 0.0668335 58.4138 0.0668335 79.258C0.0668335 100.102 16.8952 117 37.6541 117Z" fill="#FB840D"/>
<path d="M0.0668217 79.2581C0.0668217 79.2581 -3.6919 37.7419 45.1715 0L52.6889 7.54839C52.6889 7.54839 22.6192 37.7419 33.8953 79.2581H0.0668217Z" fill="#FB840D"/>
<path d="M120.413 117C141.172 117 158 100.102 158 79.258C158 58.4138 141.172 41.5161 120.413 41.5161C99.6539 41.5161 82.8256 58.4138 82.8256 79.258C82.8256 100.102 99.6539 117 120.413 117Z" fill="#FB840D"/>
<path d="M82.8255 79.2581C82.8255 79.2581 79.0668 37.7419 127.93 0L135.448 7.54839C135.448 7.54839 105.378 37.7419 116.654 79.2581H82.8255Z" fill="#FB840D"/>
<g clip-path="url(#clip0)">
<path d="M373.346 117C352.587 117 335.759 133.898 335.759 154.742C335.759 175.586 352.587 192.484 373.346 192.484C394.105 192.484 410.933 175.586 410.933 154.742C410.933 133.898 394.105 117 373.346 117Z" fill="#FB840D"/>
<path d="M410.933 154.742C410.933 154.742 414.692 196.258 365.829 234L358.311 226.452C358.311 226.452 388.381 196.258 377.105 154.742L410.933 154.742Z" fill="#FB840D"/>
<path d="M290.587 117C269.828 117 253 133.898 253 154.742C253 175.586 269.828 192.484 290.587 192.484C311.346 192.484 328.174 175.586 328.174 154.742C328.174 133.898 311.346 117 290.587 117Z" fill="#FB840D"/>
<path d="M328.174 154.742C328.174 154.742 331.933 196.258 283.07 234L275.552 226.452C275.552 226.452 305.622 196.258 294.346 154.742L328.174 154.742Z" fill="#FB840D"/>
</g>
</g>
<defs>
<clipPath id="clip0">
<rect width="158" height="117" fill="white" transform="translate(411 234) rotate(-180)"/>
</clipPath>
</defs>
</svg>
