<svg width="50" height="50" viewBox="0 0 50 50" fill="none" xmlns="http://www.w3.org/2000/svg">
<path d="M22.5808 3.22583H24.1937V4.83873H22.5808V3.22583Z" fill="#D80027"/>
<path d="M32.2583 3.22583H25.8066V4.83873H32.2583V3.22583Z" fill="#D80027"/>
<path d="M33.8708 3.22583H35.4838V4.83873H33.8708V3.22583Z" fill="#D80027"/>
<path fill-rule="evenodd" clip-rule="evenodd" d="M25.0001 13.0119L30.9371 8.06452H38.7098V0H19.355V8.06452H25.0001V13.0119ZM20.9679 6.45161V1.6129H37.0969V6.45161H30.3535L26.613 9.56874V6.45161H20.9679Z" fill="#D80027"/>
<path fill-rule="evenodd" clip-rule="evenodd" d="M40.4002 41.8586L41.0522 48.387H50V49.9999H0V48.387H7.25806V35.4838H5.64516V30.6451H8.87097V27.6315C8.87097 26.1982 9.83296 24.9223 11.2104 24.5297L14.5161 23.5863V22.145C13.5289 21.2579 12.9032 19.9765 12.9032 18.5483V16.9354C12.9032 14.2668 15.0733 12.0967 17.7419 12.0967C20.4106 12.0967 22.5806 14.2668 22.5806 16.9354V18.5483C22.5806 19.9773 21.9549 21.2586 20.9677 22.145V23.5855L24.2735 24.5289C25.5816 24.903 26.505 26.0749 26.5952 27.4193H31.1177L35.4461 23.0909C33.5894 22.4136 32.2581 20.6361 32.2581 18.5483V16.9354C32.2581 14.2668 34.4282 12.0967 37.0968 12.0967C39.7654 12.0967 41.9355 14.2668 41.9355 16.9354V18.5483C41.9355 19.9564 41.3275 21.2216 40.3643 22.1064C41.333 22.6113 41.9355 23.5957 41.9355 24.692V25.8064H45.1613V36.2902C45.1613 39.1014 43.0928 41.4329 40.4002 41.8586ZM33.871 31.7854V35.4838H31.4516V37.0967H37.9032C39.2369 37.0967 40.3226 36.011 40.3226 34.6773V24.692C40.3226 24.6547 40.316 24.6195 40.3094 24.5843C40.3056 24.5644 40.3019 24.5445 40.2993 24.5242C40.2442 25.1031 39.9985 25.6579 39.5854 26.071L33.871 31.7854ZM35.5607 41.9354H31.4516V48.387H36.2057L35.5607 41.9354ZM38.7865 41.9354H37.1814L37.8264 48.387H39.4315L38.7865 41.9354ZM41.9355 27.4193V34.6773C41.9355 36.9006 40.1265 38.7096 37.9032 38.7096H31.4516V40.3225H39.5161C41.7394 40.3225 43.5484 38.5135 43.5484 36.2902V27.4193H41.9355ZM33.871 16.9354V18.5483C33.871 20.3274 35.3177 21.7741 37.0968 21.7741C38.8759 21.7741 40.3226 20.3274 40.3226 18.5483V16.9354C40.3226 15.1563 38.8759 13.7096 37.0968 13.7096C35.3177 13.7096 33.871 15.1563 33.871 16.9354ZM37.1661 23.6516L31.7855 29.0322H24.1935C23.7486 29.0322 23.3871 29.3937 23.3871 29.8386C23.3871 30.2836 23.7486 30.6451 24.1935 30.6451H32.7306L38.4451 24.9306C38.6136 24.7621 38.7097 24.5289 38.7097 24.2911C38.7097 23.7926 38.3041 23.387 37.8056 23.387C37.5677 23.387 37.3346 23.4831 37.1661 23.6516ZM17.7419 13.7096C15.9629 13.7096 14.5161 15.1563 14.5161 16.9354V18.5483C14.5161 20.3274 15.9629 21.7741 17.7419 21.7741C19.521 21.7741 20.9677 20.3274 20.9677 18.5483V16.9354C20.9677 15.1563 19.521 13.7096 17.7419 13.7096ZM19.3548 23.1047C18.8492 23.2838 18.3082 23.387 17.7419 23.387C17.1757 23.387 16.6346 23.2838 16.129 23.1047V23.971C16.3291 24.2797 16.8847 24.9999 17.7419 24.9999C18.5992 24.9999 19.1548 24.2797 19.3548 23.971V23.1047ZM11.6534 26.0804C10.9655 26.2773 10.4839 26.9144 10.4839 27.6315V30.6443H21.9226C21.8321 30.3911 21.7742 30.1217 21.7742 29.8378C21.7742 28.5041 22.8598 27.4185 24.1935 27.4185H24.9653C24.8791 26.7936 24.4483 26.2564 23.8305 26.0796L20.5082 25.1306C20.0404 25.741 19.13 26.6128 17.7419 26.6128C16.3539 26.6128 15.4435 25.741 14.9757 25.1314L11.6534 26.0804ZM32.2581 32.258H7.25806V33.8709H32.2581V32.258ZM11.2903 38.7096H8.87097V48.387H10.7918L12.4047 45.1612H26.305L27.9179 48.387H29.8387V38.7096H12.9032V37.0967H29.8387V35.4838H8.87097V37.0967H11.2903V38.7096ZM13.4017 46.7741L12.5953 48.387H26.1144L25.3079 46.7741H13.4017Z" fill="#D80027"/>
</svg>
