<?xml version="1.0"?>
<svg xmlns="http://www.w3.org/2000/svg" height="512px" viewBox="-36 0 511 512" width="512px"><path d="m202.617188 451.671875c-10.992188 0-19.933594 8.941406-19.933594 19.933594 0 10.992187 8.941406 19.933593 19.933594 19.933593 10.992187 0 19.933593-8.941406 19.933593-19.933593 0-10.992188-8.941406-19.933594-19.933593-19.933594zm0 24.867187c-2.722657 0-4.933594-2.214843-4.933594-4.933593 0-2.722657 2.210937-4.933594 4.933594-4.933594 2.71875 0 4.933593 2.210937 4.933593 4.933594 0 2.71875-2.214843 4.933593-4.933593 4.933593zm0 0" fill="#D80027"/><path d="m399.179688 74.550781v-31.050781c0-23.984375-19.515626-43.5-43.5-43.5h-88.03125c-23.988282 0-43.5 19.515625-43.5 43.5v11.542969h-114.167969c-9.675781 0-17.546875 7.871093-17.546875 17.542969v37.75h-18.066406v-62.785157c0-5.28125 4.296874-9.574219 9.574218-9.574219h113.597656c4.140626 0 7.5-3.359374 7.5-7.5 0-4.144531-3.359374-7.5-7.5-7.5h-113.597656c-13.550781 0-24.574218 11.023438-24.574218 24.574219v62.785157h-51.367188c-4.144531 0-7.5 3.355468-7.5 7.5 0 4.140624 3.355469 7.5 7.5 7.5h51.367188v17.625h-51.367188c-4.144531 0-7.5 3.359374-7.5 7.5 0 4.144531 3.355469 7.5 7.5 7.5h51.367188v329.464843c0 13.550781 11.023437 24.574219 24.574218 24.574219h237.347656c13.550782 0 24.574219-11.023438 24.574219-24.574219v-238.058593h49.03125c24.074219 0 43.660157-19.585938 43.660157-43.660157v-87.710937c0-22.628906-17.304688-41.285156-39.375-43.445313zm-18.785157 92.980469c0 16.1875-13.167969 29.355469-29.355469 29.355469-13.59375 0-25.054687-9.289063-28.378906-21.855469h33.019532c9.171874 0 17.683593-2.859375 24.707031-7.726562 0 .078124.007812.152343.007812.226562zm-141.246093-124.03125c0-15.714844 12.785156-28.5 28.5-28.5h88.03125c15.714843 0 28.5 12.785156 28.5 28.5v88.03125c0 5.992188-1.863282 11.554688-5.03125 16.148438-.316407.355468-.59375.738281-.835938 1.144531-5.210938 6.808593-13.417969 11.207031-22.632812 11.207031h-88.03125c-15.714844 0-28.5-12.785156-28.5-28.5zm-164.78125 81.835938h18.066406v17.625h-18.066406zm256.496093 362.089843c0 5.277344-4.292969 9.574219-9.574219 9.574219h-237.347656c-5.277344 0-9.574218-4.296875-9.574218-9.574219v-329.464843h18.066406v271.742187c0 9.675781 7.871094 17.542969 17.546875 17.542969h185.273437c9.671875 0 17.542969-7.871094 17.542969-17.542969v-96.203125c0-4.140625-3.355469-7.5-7.5-7.5s-7.5 3.359375-7.5 7.5v96.203125c0 1.402344-1.140625 2.542969-2.542969 2.542969h-185.273437c-1.402344 0-2.546875-1.140625-2.546875-2.542969v-271.742187h72.476562c4.144532 0 7.5-3.355469 7.5-7.5 0-4.140626-3.355468-7.5-7.5-7.5h-72.476562v-17.625h101.667968c4.144532 0 7.5-3.359376 7.5-7.5 0-4.144532-3.355468-7.5-7.5-7.5h-101.667968v-37.75c0-1.402344 1.144531-2.542969 2.546875-2.542969h114.167969v61.488281c0 22.597656 17.316406 41.214844 39.375 43.300781v30.875c0 20.851563 14.699218 38.328125 34.273437 42.632813v50.160156c0 4.140625 3.355469 7.5 7.5 7.5s7.5-3.359375 7.5-7.5v-49.132812h18.066406zm92.691407-281.71875c0 15.804688-12.855469 28.660157-28.660157 28.660157h-87.710937c-15.804688 0-28.660156-12.855469-28.660156-28.660157v-30.675781h28.808593c3.574219 20.898438 21.808594 36.855469 43.707031 36.855469 24.457032 0 44.355469-19.898438 44.355469-44.355469 0-4.789062-.757812-9.460938-2.246093-13.9375 3.828124-6.476562 6.03125-14.015625 6.03125-22.0625v-41.875c13.777343 2.074219 24.375 13.992188 24.375 28.339844zm0 0" fill="#D80027"/><path d="m247.503906 243.511719h-88.03125c-23.988281 0-43.5 19.511719-43.5 43.5v88.03125c0 23.984375 19.511719 43.5 43.5 43.5h88.03125c23.984375 0 43.5-19.515625 43.5-43.5v-88.03125c0-23.988281-19.515625-43.5-43.5-43.5zm-33.40625 87.417969 58.074219-58.167969c2.429687 4.195312 3.832031 9.058593 3.832031 14.25v88.03125c0 5.132812-1.371094 9.949219-3.757812 14.113281zm33.40625-72.417969c5.089844 0 9.871094 1.347656 14.011719 3.695312l-58.019531 58.109375-58.035156-58.109375c4.140624-2.347656 8.921874-3.695312 14.011718-3.695312zm-88.03125 145.03125c-15.714844 0-28.5-12.785157-28.5-28.5v-88.03125c0-5.191407 1.398438-10.054688 3.832032-14.25l58.09375 58.167969-39.480469 39.542968c-2.925781 2.929688-2.921875 7.679688.011719 10.605469 1.460937 1.460937 3.378906 2.191406 5.296874 2.191406 1.921876 0 3.84375-.734375 5.308594-2.199219l39.460938-39.523437 58.148437 58.222656c-4.167969 2.394531-8.996093 3.773438-14.140625 3.773438zm0 0" fill="#D80027"/><path d="m123.472656 191.277344h85.628906c4.144532 0 7.5-3.355469 7.5-7.5 0-4.140625-3.355468-7.5-7.5-7.5h-85.628906c-4.144531 0-7.5 3.359375-7.5 7.5 0 4.144531 3.355469 7.5 7.5 7.5zm0 0" fill="#D80027"/><path d="m123.472656 223.90625h85.628906c4.144532 0 7.5-3.359375 7.5-7.5s-3.355468-7.5-7.5-7.5h-85.628906c-4.144531 0-7.5 3.359375-7.5 7.5s3.355469 7.5 7.5 7.5zm0 0" fill="#D80027"/><path d="m276.890625 127.046875c12.710937 0 23.050781-10.339844 23.050781-23.050781 0-6.84375-3.003906-13-7.757812-17.226563v-18.527343h41.5625v12.796874c-.097656-.003906-.195313-.007812-.296875-.007812-12.707031 0-23.050781 10.339844-23.050781 23.050781 0 12.707031 10.34375 23.050781 23.050781 23.050781 12.710937 0 23.054687-10.34375 23.054687-23.050781 0-6.847656-3.003906-13-7.757812-17.226562v-46.460938c0-4.140625-3.355469-7.5-7.5-7.5h-56.5625c-4.140625 0-7.5 3.359375-7.5 7.5v40.558594c-.097656 0-.195313-.007813-.292969-.007813-12.710937 0-23.050781 10.339844-23.050781 23.050782 0 12.710937 10.339844 23.050781 23.050781 23.050781zm56.558594-14.914063c-4.4375 0-8.050781-3.613281-8.050781-8.050781 0-4.441406 3.613281-8.050781 8.050781-8.050781 4.441406 0 8.054687 3.609375 8.054687 8.050781 0 4.4375-3.613281 8.050781-8.054687 8.050781zm.296875-64.238281v5.347657h-41.5625v-5.347657zm-56.855469 48.050781c4.4375 0 8.050781 3.613282 8.050781 8.050782s-3.613281 8.050781-8.050781 8.050781c-4.441406 0-8.050781-3.613281-8.050781-8.050781s3.609375-8.050782 8.050781-8.050782zm0 0" fill="#D80027"/></svg>
