<svg width="21" height="15" viewBox="0 0 21 15" fill="none" xmlns="http://www.w3.org/2000/svg">
<path d="M0.292893 8.20583L6.65686 14.5698C7.04738 14.9603 7.68054 14.9603 8.07107 14.5698C8.46159 14.1793 8.46159 13.5461 8.07107 13.1556L4.26777 9.35228C3.95278 9.0373 4.17587 8.49873 4.62132 8.49873H20C20.5523 8.49873 21 8.05101 21 7.49873C21 6.94644 20.5523 6.49873 20 6.49873H4.62132C4.17587 6.49873 3.95278 5.96016 4.26777 5.64517L8.07107 1.84187C8.46159 1.45135 8.46159 0.818183 8.07107 0.427659C7.68054 0.0371345 7.04738 0.0371345 6.65686 0.427659L0.292893 6.79162C-0.097631 7.18214 -0.097631 7.81531 0.292893 8.20583Z" fill="#F0F0F0"/>
</svg>
