<svg width="16" height="16" viewBox="0 0 16 16" fill="none" xmlns="http://www.w3.org/2000/svg">
<path d="M11.4005 2.02749C11.2806 1.97443 11.1391 1.99949 11.0434 2.0913L7.73177 5.25052C7.67597 5.30375 7.60181 5.33345 7.52469 5.33345H5.33001C5.1476 5.33345 5 5.48254 5 5.66676V10.3334C5 10.5176 5.1476 10.6667 5.33001 10.6667H7.52469C7.60181 10.6667 7.67597 10.6964 7.73177 10.7496L11.0434 13.9088C11.106 13.9687 11.1875 14 11.27 14C11.3141 14 11.3586 13.9912 11.4005 13.9727C11.5217 13.9202 11.6 13.7998 11.6 13.6667V2.33349C11.6 2.20033 11.5217 2.0799 11.4005 2.02749ZM10.94 12.8932L8.00254 10.0912C7.94131 10.0326 7.8601 10 7.77598 10H5.65999V6.00007H7.77598C7.8601 6.00007 7.94131 5.96751 8.00254 5.90891L10.94 3.10692V12.8932Z" fill="black"/>
</svg>
