<svg width="14" height="13" viewBox="0 0 14 13" fill="none" xmlns="http://www.w3.org/2000/svg">
<path d="M5.77641 6.85734C5.40255 6.85734 5.09949 7.1604 5.09949 7.53425V9.565C5.09949 9.93885 5.40255 10.2419 5.77641 10.2419C6.15026 10.2419 6.45332 9.93885 6.45332 9.565V7.53425C6.45332 7.1604 6.15026 6.85734 5.77641 6.85734Z" fill="#FA850B"/>
<path d="M8.48407 6.85734C8.11022 6.85734 7.80715 7.1604 7.80715 7.53425V9.565C7.80715 9.93885 8.11022 10.2419 8.48407 10.2419C8.85792 10.2419 9.16099 9.93885 9.16099 9.565V7.53425C9.16099 7.1604 8.85792 6.85734 8.48407 6.85734Z" fill="#FA850B"/>
<path fill-rule="evenodd" clip-rule="evenodd" d="M12.2613 4.15083H13.2225C13.3267 4.15046 13.4296 4.17418 13.523 4.22014C13.6165 4.2661 13.6981 4.33305 13.7614 4.41577C13.8247 4.49848 13.868 4.59471 13.888 4.69695C13.908 4.79918 13.904 4.90465 13.8764 5.0051L11.9818 11.9523C11.8207 12.5412 11.2832 12.9507 10.6753 12.9507H3.58597C3.28913 12.9503 3.00063 12.8525 2.76466 12.6724C2.5287 12.4923 2.35828 12.2398 2.27952 11.9536L0.384828 5.00578C0.357595 4.90536 0.353853 4.80002 0.373892 4.69792C0.39393 4.59583 0.437211 4.49972 0.500379 4.41704C0.563546 4.33437 0.644904 4.26735 0.738146 4.22118C0.831388 4.17502 0.934008 4.15095 1.03805 4.15083H1.99927L4.17619 0.34122C4.36166 0.016653 4.7751 -0.0961571 5.09971 0.0892294C5.42446 0.274696 5.53731 0.688356 5.35172 1.01304L3.98583 3.40271C3.7953 3.73604 4.03598 4.15083 4.41992 4.15083H9.84082C10.2247 4.15083 10.4654 3.7361 10.2749 3.40277L8.90922 1.01265C8.7238 0.688143 8.83654 0.274765 9.16104 0.0893357C9.48555 -0.096096 9.89894 0.0166463 10.0844 0.341152L12.2613 4.15083ZM4.34981 11.5969H10.6746L12.1636 6.1362C12.2503 5.81813 12.0109 5.50466 11.6812 5.50466H2.5794C2.24972 5.50466 2.01029 5.81813 2.09701 6.1362L3.38503 10.86C3.50366 11.2951 3.89883 11.5969 4.34981 11.5969Z" fill="#FA850B"/>
</svg>
