<svg width="23" height="25" viewBox="0 0 23 25" fill="none" xmlns="http://www.w3.org/2000/svg">
<path fill-rule="evenodd" clip-rule="evenodd" d="M11.352 0C9.25648 0 7.24675 0.832456 5.76497 2.31424C4.28319 3.79602 3.45073 5.80575 3.45073 7.90131C3.45073 11.7797 2.621 14.1997 1.84751 15.6178C1.45938 16.3293 1.07997 16.7988 0.81329 17.0803C0.67969 17.2213 0.573703 17.3159 0.508164 17.3705C0.475381 17.3978 0.452686 17.4151 0.441686 17.4233L0.435331 17.428C0.0757428 17.674 -0.0835403 18.1252 0.042986 18.543C0.170684 18.9648 0.559411 19.2533 1.00008 19.2533H21.704C22.1447 19.2533 22.5334 18.9648 22.6611 18.543C22.7876 18.1252 22.6283 17.674 22.2687 17.428L22.2624 17.4233C22.2514 17.4151 22.2287 17.3978 22.1959 17.3705C22.1304 17.3159 22.0244 17.2213 21.8908 17.0803C21.6241 16.7988 21.2447 16.3293 20.8566 15.6178C20.0831 14.1997 19.2533 11.7797 19.2533 7.90131C19.2533 5.80575 18.4209 3.79602 16.9391 2.31424C15.4573 0.832456 13.4476 0 11.352 0ZM19.1008 16.5755C19.2352 16.8219 19.3704 17.0475 19.5037 17.2533H3.2004C3.3337 17.0475 3.46885 16.8219 3.6033 16.5755C4.55514 14.8304 5.45073 12.0744 5.45073 7.90131C5.45073 6.33618 6.07247 4.83516 7.17918 3.72845C8.28589 2.62174 9.78691 2 11.352 2C12.9172 2 14.4182 2.62174 15.5249 3.72845C16.6316 4.83516 17.2533 6.33618 17.2533 7.90131C17.2533 12.0744 18.1489 14.8304 19.1008 16.5755Z" fill="white"/>
<path d="M10.2271 22.3519C9.95001 21.8742 9.33809 21.7115 8.86036 21.9887C8.38264 22.2658 8.22001 22.8777 8.49713 23.3554C8.78726 23.8556 9.20368 24.2707 9.70472 24.5593C10.2058 24.8479 10.7738 24.9998 11.352 24.9998C11.9302 24.9998 12.4983 24.8479 12.9993 24.5593C13.5003 24.2707 13.9168 23.8556 14.2069 23.3554C14.484 22.8777 14.3214 22.2658 13.8437 21.9887C13.3659 21.7115 12.754 21.8742 12.4769 22.3519C12.3626 22.5489 12.1985 22.7125 12.0011 22.8262C11.8037 22.9399 11.5798 22.9998 11.352 22.9998C11.1242 22.9998 10.9004 22.9399 10.7029 22.8262C10.5055 22.7125 10.3414 22.5489 10.2271 22.3519Z" fill="white"/>
</svg>
