<svg width="25" height="25" viewBox="0 0 25 25" fill="none" xmlns="http://www.w3.org/2000/svg">
<path d="M10.1582 5.15455C11.9078 4.34774 14.0646 4.34864 15.826 5.15364C16.0541 5.25774 16.1546 5.52728 16.0501 5.75592C15.9455 5.9841 15.6755 6.08455 15.4473 5.98001C13.9232 5.28319 12.0528 5.28137 10.5387 5.98001C9.73596 6.35046 8.37414 7.42228 8.36369 9.09365C8.36232 9.3441 8.15869 9.54546 7.90914 9.54546H7.90641C7.65505 9.54364 7.45323 9.3391 7.4546 9.08819C7.46823 6.96046 9.16051 5.61455 10.1582 5.15455Z" fill="#6A6A6A"/>
<path fill-rule="evenodd" clip-rule="evenodd" d="M20.6477 13.1818C20.6477 15.9905 21.7214 18.4818 23.8396 20.5868C23.96 20.7068 24.0036 20.8836 23.9523 21.0455C23.9009 21.2077 23.7636 21.3282 23.5959 21.3568L19.2823 22.1018C18.4832 22.24 17.7468 22.3532 17.0455 22.4464C16.2527 24.0018 14.6946 25 12.9923 25C11.2905 25 9.73274 24.0027 8.9391 22.4482C8.23501 22.3545 7.49501 22.2409 6.69137 22.1023L2.37728 21.3573C2.20956 21.3282 2.07183 21.2082 2.02092 21.0459C1.97001 20.8836 2.01365 20.7068 2.1341 20.5868C4.15637 18.5768 5.18183 16.0855 5.18183 13.1818V9.09091C5.20001 6.21864 7.21637 4.00773 9.20683 3.09045C9.67137 2.87591 10.15 2.70455 10.6368 2.57318V2.27273C10.6368 1.01955 11.6564 0 12.9096 0C14.1627 0 15.1823 1.01955 15.1823 2.27273V2.53364C15.7227 2.66864 16.2546 2.85045 16.7705 3.08636C18.5714 3.90955 20.6673 5.97682 20.6477 9.09364V13.1818ZM12.9091 0.909091C12.1573 0.909091 11.5455 1.52091 11.5455 2.27273V2.37682C12.4477 2.23091 13.3668 2.22545 14.2727 2.35545V2.27273C14.2727 1.52091 13.6609 0.909091 12.9091 0.909091ZM10.0755 22.5841C10.7659 23.5191 11.8414 24.0909 12.9923 24.0909C14.1432 24.0909 15.2191 23.5186 15.91 22.5827C14.89 22.6886 13.9386 22.7414 12.9873 22.7414C12.0396 22.7414 11.0914 22.6886 10.0755 22.5841ZM16.7005 21.575C17.4559 21.4786 18.2555 21.3564 19.1277 21.2059L22.6077 20.6055C20.7268 18.4745 19.7382 15.9245 19.7382 13.1823V9.09136C19.7541 6.57727 18.0691 4.68 16.3923 3.91318C15.83 3.65636 15.2464 3.46909 14.6536 3.34545C14.6509 3.34503 14.6481 3.3454 14.6453 3.34578C14.6422 3.34621 14.639 3.34663 14.6359 3.34591C13.5027 3.11364 12.3105 3.125 11.1905 3.37682C11.1882 3.37727 11.1858 3.37739 11.1834 3.3775C11.181 3.37761 11.1786 3.37773 11.1764 3.37818C10.6341 3.50227 10.1009 3.67909 9.58683 3.91591C7.85819 4.71318 6.10637 6.62318 6.09092 9.09364V13.1818C6.09092 16.0418 5.1741 18.5345 3.36365 20.6045L6.84592 21.2064C7.72228 21.3573 8.52456 21.4805 9.28274 21.5764H9.28683C9.61728 21.6182 9.93865 21.655 10.2532 21.6864L10.2823 21.6891C10.5646 21.7168 10.8405 21.74 11.1132 21.7595C11.17 21.7636 11.2264 21.7673 11.2827 21.7709C11.5223 21.7868 11.7596 21.7991 11.995 21.8082C12.045 21.8105 12.0959 21.8127 12.1459 21.8145C12.7109 21.8332 13.2686 21.8332 13.8341 21.8141C13.8635 21.8133 13.893 21.812 13.9224 21.8107C13.9421 21.8098 13.9617 21.8089 13.9814 21.8082C14.22 21.7991 14.46 21.7864 14.7027 21.7705C14.7201 21.7693 14.7374 21.7681 14.7547 21.767C14.7904 21.7646 14.826 21.7623 14.8618 21.7595C15.1418 21.7391 15.425 21.7159 15.7146 21.6868C15.7166 21.6865 15.7189 21.6864 15.721 21.6863L15.7246 21.6859C16.0414 21.6541 16.365 21.6173 16.6977 21.575H16.7005Z" fill="#6A6A6A"/>
</svg>
