<svg width="14" height="15" viewBox="0 0 14 15" fill="none" xmlns="http://www.w3.org/2000/svg">
<path d="M7.2903 11.3522C7.02952 11.1659 6.67921 11.1659 6.41844 11.3522L2.54127 14.1216C2.33113 14.2717 2.05473 14.2918 1.82511 14.1736C1.59549 14.0554 1.45117 13.8188 1.45117 13.5606V2.78619C1.45117 2.24616 1.6657 1.72825 2.04756 1.34639C2.42942 0.964527 2.94733 0.75 3.48737 0.75H10.2214C10.7614 0.75 11.2793 0.964527 11.6612 1.34639L12.1915 0.816058L11.6612 1.34639C12.043 1.72825 12.2576 2.24616 12.2576 2.78619V13.5606C12.2576 13.8188 12.1132 14.0554 11.8836 14.1736C11.654 14.2918 11.3776 14.2717 11.1675 14.1216L7.2903 11.3522Z" stroke="#2A2A2A" stroke-width="1.5" stroke-linecap="round" stroke-linejoin="round"/>
</svg>
