<svg xmlns="http://www.w3.org/2000/svg" viewBox="0 0 16.89 15.97"><path d="M6.65,12.75a1.61,1.61,0,1,0,1.61,1.61A1.61,1.61,0,0,0,6.65,12.75Zm0,2.65a1,1,0,1,1,1-1A1,1,0,0,1,6.65,15.4Z"/><path d="M16.83,2.59a.29.29,0,0,0-.23-.12H3.9l-.16-1A1.73,1.73,0,0,0,2,0H.29a.29.29,0,1,0,0,.57H2a1.16,1.16,0,0,1,1.15,1l1.38,8.71a1.73,1.73,0,0,0,1.71,1.46h8.52a.29.29,0,1,0,0-.57H6.27a1.16,1.16,0,0,1-1.15-1L4.88,8.69h8.73a1.74,1.74,0,0,0,1.64-1.17l1.62-4.67A.29.29,0,0,0,16.83,2.59ZM14.71,7.34a1.16,1.16,0,0,1-1.1.78H4.79L4,3H16.2Z"/><path d="M12.61,12.75a1.61,1.61,0,1,0,1.61,1.61A1.61,1.61,0,0,0,12.61,12.75Zm0,2.65a1,1,0,1,1,1-1A1,1,0,0,1,12.61,15.4Z"/></svg>