<svg xmlns="http://www.w3.org/2000/svg" width="30" viewBox="0 0 1085 1039">
  <path class="cls-1" d="M427.213,829.712c-57.122,0-103.42,46.838-103.42,104.626s46.3,104.622,103.42,104.622c57.09-.05,103.362-46.862,103.413-104.622C530.626,876.55,484.328,829.712,427.213,829.712Zm0,172.138c-36.842-.02-66.707-30.242-66.732-67.512,0-37.3,29.865-67.516,66.732-67.516s66.732,30.219,66.732,67.516S464.074,1001.85,427.213,1001.85ZM1081.45,169.371a18.355,18.355,0,0,0-14.96-7.792H250.618L240.372,96.028C232.014,41.129,185.219.7,130.328,0.918H18.45A18.449,18.449,0,0,0,.11,19.473,18.437,18.437,0,0,0,18.45,38.028H130.328c36.813-.136,68.2,26.985,73.808,63.8L292.7,667.8c8.357,54.866,55.156,95.317,110.042,95.083h547.42a18.556,18.556,0,0,0,0-37.11H402.737c-36.809.156-68.2-26.991-73.805-63.784l-15.064-96.221H874.514c47.473-.026,89.737-30.455,105.276-75.813L1083.81,186.23A18.767,18.767,0,0,0,1081.45,169.371Zm-136.3,308.421a74.9,74.9,0,0,1-70.638,50.87H308.074L256.431,198.689l784.279,0.026ZM810.165,829.712c-57.122,0-103.413,46.838-103.413,104.626,0.077,57.76,46.323,104.542,103.413,104.622,57.116,0.03,103.413-46.835,103.413-104.622S867.281,829.712,810.165,829.712Zm0,172.138c-36.841,0-66.732-30.216-66.732-67.512,0.026-37.27,29.891-67.463,66.732-67.516,36.835,0,66.733,30.219,66.733,67.516S847.026,1001.85,810.165,1001.85Z"/>
</svg>
