<svg width="13" height="13" viewBox="0 0 13 13" fill="none" xmlns="http://www.w3.org/2000/svg">
<path fill-rule="evenodd" clip-rule="evenodd" d="M1.47054 3.01168C1.47054 2.71252 1.71305 2.47001 2.01221 2.47001H10.9884C11.2876 2.47001 11.5301 2.71252 11.5301 3.01168V9.20215C11.5301 9.50131 11.2876 9.74382 10.9884 9.74382H2.01221C1.71305 9.74382 1.47054 9.50131 1.47054 9.20215V3.01168ZM3.18318 3.89381C2.93562 3.74852 2.62068 3.92297 2.62068 4.2054V5.79352C2.62068 6.08747 2.95892 6.25976 3.20509 6.0912L4.45401 5.23604C4.67442 5.08512 4.66281 4.76216 4.4321 4.62677L3.18318 3.89381ZM6.31392 4.47208C6.10879 4.47208 5.94249 4.63476 5.94249 4.83543C5.94249 5.03611 6.10879 5.19879 6.31392 5.19879H9.84249C10.0476 5.19879 10.2139 5.03611 10.2139 4.83543C10.2139 4.63476 10.0476 4.47208 9.84249 4.47208H6.31392ZM4.64249 6.47053C4.64249 6.26985 4.80879 6.10717 5.01392 6.10717H9.84249C10.0476 6.10717 10.2139 6.26985 10.2139 6.47053C10.2139 6.6712 10.0476 6.83388 9.84249 6.83388H5.01392C4.80879 6.83388 4.64249 6.6712 4.64249 6.47053ZM4.64249 8.10562C4.64249 7.90494 4.80879 7.74226 5.01392 7.74226H9.84249C10.0476 7.74226 10.2139 7.90494 10.2139 8.10562C10.2139 8.30629 10.0476 8.46897 9.84249 8.46897H5.01392C4.80879 8.46897 4.64249 8.30629 4.64249 8.10562Z" fill="#8A8A8A"/>
<path fill-rule="evenodd" clip-rule="evenodd" d="M0.866667 1H12.1333C12.3632 1 12.5836 1.09358 12.7462 1.26015C12.9087 1.42672 13 1.65263 13 1.8882V10.3261C13 10.5617 12.9087 10.7876 12.7462 10.9541C12.5836 11.1207 12.3632 11.2143 12.1333 11.2143H0.866667C0.636812 11.2143 0.416372 11.1207 0.253841 10.9541C0.0913093 10.7876 0 10.5617 0 10.3261V1.8882C0 1.65263 0.0913093 1.42672 0.253841 1.26015C0.416372 1.09358 0.636812 1 0.866667 1ZM11.7867 10.3261C11.9781 10.3261 12.1333 10.167 12.1333 9.97081V2.24348C12.1333 2.04726 11.9781 1.8882 11.7867 1.8882H1.21333C1.02187 1.8882 0.866667 2.04726 0.866667 2.24348V9.97081C0.866667 10.167 1.02187 10.3261 1.21333 10.3261H11.7867Z" fill="#8A8A8A"/>
</svg>
