<svg width="25" height="25" viewBox="0 0 25 25" fill="none" xmlns="http://www.w3.org/2000/svg">
<path d="M15.8335 1.66699H21.6668V2.50033H15.8335V1.66699Z" fill="black"/>
<path d="M21.6668 3.33301H15.8335V4.16634H21.6668V3.33301Z" fill="black"/>
<path d="M21.6668 5H15.8335V5.83333H21.6668V5Z" fill="black"/>
<path fill-rule="evenodd" clip-rule="evenodd" d="M14.583 0H22.9164C23.6067 0 24.1664 0.559693 24.1664 1.25V6.25001C24.1664 6.94032 23.6067 7.50001 22.9164 7.50001H18.1163L16.575 9.4271C16.496 9.52595 16.3762 9.58335 16.2497 9.58335C16.2027 9.58314 16.1561 9.57522 16.1118 9.55996C15.9447 9.50137 15.833 9.34366 15.833 9.16668V7.50001H14.583C13.8927 7.50001 13.333 6.94032 13.333 6.25001V1.25C13.333 0.559693 13.8927 0 14.583 0ZM22.9164 6.66668C23.1465 6.66668 23.333 6.48011 23.333 6.25001V1.25C23.333 1.0199 23.1465 0.833334 22.9164 0.833334H14.583C14.3529 0.833334 14.1663 1.0199 14.1663 1.25V6.25001C14.1663 6.48011 14.3529 6.66668 14.583 6.66668H16.2497C16.4798 6.66668 16.6663 6.85324 16.6663 7.08334V7.97871L17.591 6.82293C17.67 6.72407 17.7898 6.66668 17.9163 6.66668H22.9164Z" fill="black"/>
<path fill-rule="evenodd" clip-rule="evenodd" d="M22.0834 24.1664C22.3135 24.1664 22.5 23.9798 22.5 23.7497V8.33301H23.3334V23.7497C23.3334 24.44 22.7737 24.9997 22.0834 24.9997H1.25C0.559693 24.9997 0 24.44 0 23.7497V4.58301C0 3.8927 0.559693 3.33301 1.25 3.33301H12.5V4.16634H1.25C1.0199 4.16634 0.833334 4.3529 0.833334 4.58301V6.66635H12.5V7.49968H0.833334V23.7497C0.833334 23.9798 1.0199 24.1664 1.25 24.1664H5.41667V22.7414C5.42053 21.4279 6.29845 20.2776 7.56407 19.9272L10 19.2646V18.6352C9.21142 18.0982 8.74267 17.2034 8.75001 16.2497V15.463C8.65032 15.4173 8.58501 15.3851 8.56683 15.3761L8.56386 15.3746C8.42183 15.3039 8.33251 15.1584 8.33334 14.9997V12.4997L6.66668 11.8564V13.1605L7.79459 14.2884L7.20543 14.8776L6.66668 14.3389V14.9997H5.83334V14.3389L5.29459 14.8776L4.70541 14.2884L5.83334 13.1605V11.2497C5.83417 11.078 5.94016 10.9242 6.10048 10.8625L11.5171 8.77916C11.6134 8.74255 11.72 8.74255 11.8162 8.77916L17.2329 10.8625C17.3942 10.9244 17.5009 11.079 17.5009 11.2517C17.5009 11.4244 17.3942 11.5793 17.2329 11.6409L15 12.4997V14.9997C15 15.1576 14.9109 15.302 14.7695 15.3726L14.7655 15.3744L14.7505 15.3815L14.7337 15.3896L14.7325 15.3902C14.7003 15.4059 14.6491 15.4308 14.5834 15.4609V16.2497C14.5803 17.2006 14.1138 18.0905 13.3334 18.6339V19.2646L15.7678 19.9269C17.0343 20.277 17.9126 21.4275 17.9167 22.7414V24.1664H22.0834ZM10.8333 19.0415V19.583C10.8321 19.7027 10.779 19.8158 10.6879 19.8931L11.6667 20.7081L12.6455 19.8927C12.5543 19.8154 12.5014 19.7025 12.5 19.583V19.0415C11.957 19.2085 11.3764 19.2085 10.8333 19.0415ZM15.9225 11.2497L11.6667 9.61249L7.41089 11.2497L11.6667 12.8869L15.9225 11.2497ZM14.1667 12.8181L11.8162 13.7222C11.72 13.7589 11.6134 13.7589 11.5171 13.7222L9.16668 12.8177V14.7342C9.95158 15.1116 10.7988 15.3427 11.6667 15.4164C12.5346 15.3433 13.3818 15.1122 14.1667 14.7346V12.8181ZM9.58335 15.8025V16.2497C9.58069 16.802 9.80064 17.3322 10.1933 17.7204C10.3204 17.8492 10.4645 17.9599 10.6218 18.0492C11.2657 18.4228 12.0602 18.4242 12.7055 18.0529C13.3509 17.6816 13.749 16.9941 13.75 16.2497V15.8025C13.0849 16.0652 12.381 16.2163 11.6667 16.2497C10.9524 16.2163 10.2485 16.0652 9.58335 15.8025ZM7.78465 20.7309C6.88032 20.9814 6.25308 21.8031 6.25001 22.7414V24.1664H7.50001V22.4997H8.33334V24.1664H15V22.4997H15.8334V24.1664H17.0834V22.7414C17.0799 21.8027 16.4523 20.9807 15.5475 20.7305L13.5834 20.1964L11.9334 21.5714C11.7788 21.7001 11.5546 21.7001 11.4 21.5714L9.74996 20.1964L7.78465 20.7309Z" fill="black"/>
<path d="M2.5 5H3.33333V5.83333H2.5V5Z" fill="black"/>
<path d="M4.16699 5H5.00033V5.83333H4.16699V5Z" fill="black"/>
<path d="M5.8335 5H6.66683V5.83333H5.8335V5Z" fill="black"/>
</svg>
