<svg width="25" height="25" viewBox="0 0 25 25" fill="none" xmlns="http://www.w3.org/2000/svg">
<g clip-path="url(#clip0)">
<path d="M5.09742 15.7845C4.71591 15.593 4.28963 15.9367 4.42828 16.3404C4.9915 17.9804 5.84332 18.8482 7.90503 19.7502C10.3663 20.8252 11.535 22.0002 12.5 22.0002C13.4638 22.0002 14.56 20.9727 17.02 19.8952C19.0577 19.0042 18.9577 18.6263 19.1921 17.1899C19.2603 16.7715 18.825 16.4242 18.4438 16.6096L12.9444 19.2841C12.6643 19.4203 12.3368 19.4182 12.0584 19.2785L5.09742 15.7845ZM24.3888 9.17018L13.9825 3.34268C13.1675 2.88643 11.8325 2.88643 11.0175 3.34268L0.610029 9.17018C-0.204971 9.62643 -0.204971 10.3739 0.610029 10.8302L11.0163 16.6577C11.8313 17.1139 13.1663 17.1139 13.9813 16.6577L20.7088 12.8902L13.4138 11.1814C13.1146 11.2535 12.8078 11.2896 12.5 11.2889C11.185 11.2889 10.12 10.6564 10.12 9.87518C10.12 9.09143 11.1863 8.45893 12.5 8.45893C13.52 8.45893 14.3875 8.84268 14.725 9.37643L22.4525 11.9127L24.3888 10.8289C25.2025 10.3739 25.2025 9.62643 24.3888 9.17018ZM21.2088 20.2127C21.1275 20.6939 22.8125 21.4852 22.9725 20.0789C23.6963 13.7389 22.4525 11.9152 22.4525 11.9152L20.7088 12.8902C20.7088 12.8902 22.1875 14.2977 21.2088 20.2127Z" fill="white"/>
</g>
<defs>
<clipPath id="clip0">
<rect width="25" height="25" fill="white"/>
</clipPath>
</defs>
</svg>
