<svg width="170" height="170" viewBox="0 0 170 170" fill="none" xmlns="http://www.w3.org/2000/svg">
<g clip-path="url(#clip0)">
<path d="M167.208 81.0714C165.9 79.7173 164.283 78.7822 162.51 78.3334C163.562 76.6616 164.09 74.7135 164.017 72.6863C163.829 67.3933 159.283 63.0859 153.884 63.0859H134.16L134.141 33.5352C134.141 27.128 128.928 21.9141 122.52 21.9141C116.111 21.9141 110.898 27.128 110.898 33.5352V41.356C110.898 43.3625 110.474 45.2989 109.694 47.0667C95.0699 46.5181 83.3398 34.456 83.3398 19.7001V16.1035C83.3398 13.8143 81.4787 11.9531 79.1895 11.9531H36.3574C34.0682 11.9531 32.207 13.8143 32.207 16.1035V18.9258C32.207 34.0306 19.9193 46.3184 4.81445 46.3184H4.15039C1.86119 46.3184 0 48.1796 0 50.4688V100.273C0 132.13 25.9166 158.047 57.7734 158.047C80.371 158.047 100.787 144.937 110.229 124.512H144.945C147.21 124.512 149.426 123.578 151.022 121.951C152.594 120.35 153.439 118.255 153.397 116.053C153.376 114.932 153.129 113.863 152.698 112.891H153.884C159.283 112.891 163.829 108.583 164.017 103.29C164.09 101.246 163.554 99.2838 162.484 97.6029C166.66 96.4797 169.838 92.756 169.994 88.3488C170.091 85.6187 169.101 83.0338 167.208 81.0714ZM57.7734 153.066C28.6636 153.066 4.98047 129.383 4.98047 100.273V51.2988C22.7545 51.208 37.1875 36.7206 37.1875 18.9258V16.9336H78.3594V19.7001C78.3594 36.05 90.5421 49.6049 106.306 51.7696C105.708 52.3144 105.062 52.8163 104.363 53.2612L90.7587 61.9173C89.5576 62.6826 88.1712 63.0859 86.7484 63.0859H83.6848C82.7562 60.0159 79.9028 57.7734 76.5332 57.7734H62.5879C59.3415 57.7734 56.5737 59.8551 55.5452 62.7539H43.3301C39.7594 62.7539 36.8555 65.6592 36.8555 69.2285V112.061C36.8555 115.631 39.7594 118.535 43.3301 118.535H55.1172V143.034C32.7453 141.74 14.9414 123.13 14.9414 100.439V59.1781C32.0462 57.933 45.6776 43.9721 46.3988 26.7285H55.1172V48.6426C55.1172 50.0187 56.2326 51.1328 57.6074 51.1328C58.9822 51.1328 60.0977 50.0187 60.0977 48.6426V24.2383C60.0977 22.8622 58.9822 21.748 57.6074 21.748H43.9384C42.5636 21.748 41.4481 22.8622 41.4481 24.2383V25.2901C41.4481 41.2795 28.4406 54.2871 12.4512 54.2871C11.0764 54.2871 9.96094 55.4012 9.96094 56.7773V100.439C9.96094 126.711 31.3354 148.086 57.6074 148.086C58.9822 148.086 60.0977 146.972 60.0977 145.596V123.26C60.68 123.422 61.2909 123.516 61.9238 123.516H76.5332C78.9742 123.516 81.1453 122.339 82.5085 120.523L85.1647 122.028C88.0311 123.653 91.2865 124.512 94.5796 124.512H104.686C95.6639 141.976 77.6421 153.066 57.7734 153.066ZM55.1172 113.555H43.3301C42.5065 113.555 41.8359 112.884 41.8359 112.061V69.2285C41.8359 68.4049 42.5065 67.7344 43.3301 67.7344H55.1172V113.555ZM159.86 92.9688H140.449C139.074 92.9688 137.959 94.0829 137.959 95.459C137.959 96.8351 139.074 97.9492 140.449 97.9492H154.062C155.426 97.9492 156.699 98.4901 157.647 99.4719C158.594 100.452 159.088 101.747 159.039 103.114C158.946 105.758 156.632 107.91 153.884 107.91H145.098C145.042 107.91 144.986 107.915 144.932 107.918C144.877 107.915 144.821 107.91 144.766 107.91H140.449C139.074 107.91 137.959 109.024 137.959 110.4C137.959 111.777 139.074 112.891 140.449 112.891H144.766C144.821 112.891 144.877 112.885 144.932 112.883C144.986 112.885 145.042 112.891 145.098 112.891C146.894 112.891 148.384 114.351 148.418 116.147C148.434 117.001 148.096 117.823 147.469 118.464C146.802 119.142 145.882 119.531 144.946 119.531H94.5796C92.1452 119.531 89.7392 118.897 87.6212 117.696L84.0039 115.645V110.013C84.0039 108.638 82.8885 107.522 81.5137 107.522C80.1389 107.522 79.0234 108.638 79.0234 110.013V116.045C79.0234 117.418 77.9067 118.535 76.5332 118.535H61.9238C60.9174 118.535 60.0977 117.715 60.0977 116.709V65.2441C60.0977 63.8706 61.2144 62.7539 62.5879 62.7539H76.5332C77.9067 62.7539 79.0234 63.8706 79.0234 65.2441V98.3915C79.0234 99.7676 80.1389 100.882 81.5137 100.882C82.8885 100.882 84.0039 99.7676 84.0039 98.3915V68.0664H86.7484C89.1193 68.0664 91.4318 67.3933 93.4318 66.1196L107.037 57.4622C112.574 53.9395 115.879 47.9176 115.879 41.356V33.5352C115.879 29.8737 118.858 26.8945 122.52 26.8945C126.181 26.8945 129.16 29.8737 129.16 33.5365L129.18 63.9186C129.181 66.2052 131.043 68.0664 133.33 68.0664H153.884C156.632 68.0664 158.946 70.2181 159.039 72.8627C159.088 74.2297 158.593 75.5241 157.647 76.5047C156.699 77.4865 155.426 78.0273 154.062 78.0273H140.449C139.074 78.0273 137.959 79.1415 137.959 80.5176C137.959 81.8937 139.074 83.0078 140.449 83.0078H160.039C161.402 83.0078 162.676 83.5487 163.624 84.5305C164.571 85.511 165.065 86.8054 165.016 88.1725C164.922 90.817 162.608 92.9688 159.86 92.9688Z" fill="black" fill-opacity="0.4"/>
</g>
<defs>
<clipPath id="clip0">
<rect width="170" height="170" fill="white"/>
</clipPath>
</defs>
</svg>
