<svg width="16" height="16" viewBox="0 0 16 16" fill="none" xmlns="http://www.w3.org/2000/svg">
<path d="M9.46664 2.09274C9.41162 2.03479 9.33618 2 9.258 2H4.57681C3.71301 2 3 2.71017 3 3.57388V12.426C3 13.2898 3.71301 14 4.57681 14H10.9304C11.7942 14 12.5072 13.2898 12.5072 12.426V5.39706C12.5072 5.32172 12.4724 5.2493 12.4232 5.19418L9.46664 2.09274ZM9.55069 3.02319L11.5304 5.10144H10.2435C9.86087 5.10144 9.55069 4.79419 9.55069 4.41159V3.02319ZM10.9304 13.4203H4.57681C4.03482 13.4203 3.57971 12.971 3.57971 12.426V3.57388C3.57971 3.03189 4.03189 2.57971 4.57681 2.57971H8.97098V4.41159C8.97098 5.11591 9.53915 5.68115 10.2435 5.68115H11.9275V12.426C11.9275 12.971 11.4753 13.4203 10.9304 13.4203Z" fill="black"/>
<path d="M10.1391 11.4203H5.36806C5.20867 11.4203 5.07821 11.5507 5.07821 11.7102C5.07821 11.8696 5.20867 12 5.36806 12H10.142C10.3014 12 10.4318 11.8696 10.4318 11.7102C10.4318 11.5507 10.3014 11.4203 10.1391 11.4203Z" fill="black"/>
<path d="M7.54198 10.3797C7.59709 10.4377 7.67244 10.4725 7.75355 10.4725C7.83476 10.4725 7.91011 10.4377 7.96513 10.3797L9.66371 8.55655C9.77385 8.44055 9.76515 8.25506 9.64925 8.14786C9.53325 8.03772 9.34776 8.04632 9.24055 8.16232L8.04341 9.44635V6.28119C8.04341 6.1217 7.91295 5.99133 7.75355 5.99133C7.59416 5.99133 7.4637 6.1217 7.4637 6.28119V9.44635L6.26949 8.16232C6.15935 8.04642 5.9767 8.03772 5.86079 8.14786C5.74489 8.25799 5.73619 8.44064 5.84633 8.55655L7.54198 10.3797Z" fill="black"/>
</svg>
