<svg width="9" height="14" viewBox="0 0 9 14" fill="none" xmlns="http://www.w3.org/2000/svg">
<path d="M3.12098 1.15922C3.12098 0.519001 2.60198 0 1.96176 0H1.15922C0.519001 0 0 0.519001 0 1.15922V1.96176C0 2.60198 0.519001 3.12098 1.15922 3.12098H1.96176C2.60198 3.12098 3.12098 2.60198 3.12098 1.96176V1.15922Z" fill="#8A8A8A"/>
<path d="M8.56058 6.59873C8.56058 5.95851 8.04158 5.43951 7.40136 5.43951H6.59882C5.9586 5.43951 5.4396 5.95851 5.4396 6.59873V7.40127C5.4396 8.04149 5.9586 8.56049 6.59882 8.56049H7.40136C8.04158 8.56049 8.56058 8.04149 8.56058 7.40127V6.59873Z" fill="#8A8A8A"/>
<path d="M1.96185 10.879C2.60207 10.879 3.12107 11.398 3.12107 12.0382V12.8408C3.12107 13.481 2.60207 14 1.96185 14H1.15931C0.519088 14 8.70597e-05 13.481 8.70597e-05 12.8408V12.0382C8.70597e-05 11.398 0.519088 10.879 1.15931 10.879H1.96185Z" fill="#8A8A8A"/>
<path d="M7.40136 10.879C8.04158 10.879 8.56058 11.398 8.56058 12.0382V12.8408C8.56058 13.481 8.04158 14 7.40136 14H6.59882C5.9586 14 5.4396 13.481 5.4396 12.8408V12.0382C5.4396 11.398 5.9586 10.879 6.59882 10.879H7.40136Z" fill="#8A8A8A"/>
<path d="M1.96185 5.43951C2.60207 5.43951 3.12107 5.95851 3.12107 6.59873V7.40127C3.12107 8.04149 2.60207 8.56049 1.96185 8.56049H1.15931C0.519088 8.56049 8.70597e-05 8.04149 8.70597e-05 7.40127V6.59873C8.70597e-05 5.95851 0.519088 5.43951 1.15931 5.43951H1.96185Z" fill="#8A8A8A"/>
<path d="M7.40136 0C8.04158 0 8.56058 0.519001 8.56058 1.15922V1.96176C8.56058 2.60198 8.04158 3.12098 7.40136 3.12098H6.59882C5.9586 3.12098 5.4396 2.60198 5.4396 1.96176V1.15922C5.4396 0.519001 5.9586 0 6.59882 0H7.40136Z" fill="#8A8A8A"/>
</svg>
