<svg width="25" height="25" viewBox="0 0 25 25" fill="none" xmlns="http://www.w3.org/2000/svg">
<path d="M17.7472 8.62137C18.0685 8.29999 18.3136 7.92873 18.4286 7.58924C18.5436 7.24975 18.519 6.96983 18.3603 6.81104L17.6889 6.13964C17.5301 5.98094 17.2502 5.95638 16.9107 6.07137C16.5712 6.18635 16.2 6.43147 15.8786 6.7528C15.7943 6.83706 15.7943 6.97367 15.8786 7.05793L17.442 8.62137C17.5263 8.70563 17.6629 8.70563 17.7472 8.62137Z" fill="#8A8A8A"/>
<path d="M16.3289 10.0397C16.4895 9.87903 16.4895 9.61858 16.3289 9.45794L15.0421 8.1711C14.8814 8.01046 14.621 8.01046 14.4603 8.1711L6.78739 15.844C6.67772 15.9538 6.58478 16.0761 6.51843 16.1981L6.01599 17.9763C5.92854 18.2858 6.21416 18.5715 6.52368 18.484L8.30127 17.9818C8.42348 17.9155 8.54627 17.8223 8.65596 17.7126L16.3289 10.0397Z" fill="#8A8A8A"/>
</svg>
