<svg width="16" height="14" viewBox="0 0 16 14" fill="none" xmlns="http://www.w3.org/2000/svg">
<path d="M14.4 0.600098C14.8243 0.600098 15.2313 0.768669 15.5314 1.06873C15.8314 1.36879 16 1.77575 16 2.2001V11.8001C16 12.2244 15.8314 12.6314 15.5314 12.9315C15.2313 13.2315 14.8243 13.4001 14.4 13.4001H1.6C1.17565 13.4001 0.768687 13.2315 0.468629 12.9315C0.168571 12.6314 0 12.2244 0 11.8001V2.2001C0 1.3201 0.72 0.600098 1.6 0.600098H14.4ZM10.904 7.8801L16 11.8001V10.2001L11.904 7.0801L16 3.8001V2.2001L8 8.6001L0 2.2001V3.8001L4.096 7.0801L0 10.2001V11.8001L5.096 7.8801L8 10.2001L10.904 7.8801Z" fill="#EE1F41"/>
</svg>
