<svg width="170" height="170" viewBox="0 0 170 170" fill="none" xmlns="http://www.w3.org/2000/svg">
<g clip-path="url(#clip0)">
<path d="M10.9673 10.9678H54.8382V16.4516H10.9673V10.9678Z" fill="black" fill-opacity="0.4"/>
<path d="M43.8705 32.9033H10.9673V38.3871H43.8705V32.9033Z" fill="black" fill-opacity="0.4"/>
<path d="M54.8382 21.9355H10.9673V27.4194H54.8382V21.9355Z" fill="black" fill-opacity="0.4"/>
<path d="M49.3545 32.9033H54.8384V38.3871H49.3545V32.9033Z" fill="black" fill-opacity="0.4"/>
<path fill-rule="evenodd" clip-rule="evenodd" d="M57.5807 0H8.22581C3.69065 0 0 3.69065 0 8.22581V41.129C0 45.6642 3.69065 49.3548 8.22581 49.3548H21.0224L47.5205 69.2311L44.6826 49.3548H57.5807C62.1158 49.3548 65.8065 45.6642 65.8065 41.129V8.22581C65.8065 3.69065 62.1158 0 57.5807 0ZM60.3226 41.129C60.3226 42.6398 59.0942 43.871 57.5807 43.871H38.3569L40.2215 56.8979L22.8486 43.871H8.22581C6.71226 43.871 5.48387 42.6398 5.48387 41.129V8.22581C5.48387 6.715 6.71226 5.48387 8.22581 5.48387H57.5807C59.0942 5.48387 60.3226 6.715 60.3226 8.22581V41.129Z" fill="black" fill-opacity="0.4"/>
<path fill-rule="evenodd" clip-rule="evenodd" d="M131.654 148.706C129.567 141.758 123.839 136.636 116.702 135.336L98.7096 132.068V130.645C101.898 128.794 104.673 126.318 106.883 123.387H112.419C116.954 123.387 120.645 119.696 120.645 115.161V74.3695C120.645 66.7167 115.633 60.0429 108.364 57.8712L106.993 56.5003C100.615 50.1253 92.14 46.6129 83.1162 46.6129C64.4985 46.6129 49.3548 61.7593 49.3548 80.3743V101.452C49.3548 106.738 53.114 111.161 58.0988 112.192C59.6371 120.072 64.5616 126.74 71.2903 130.645V132.068L53.2977 135.339C46.1577 136.639 40.4325 141.761 38.3459 148.709L31.96 170H138.04L131.654 148.706ZM115.161 115.161C115.161 116.672 113.933 117.903 112.419 117.903H110.113C110.908 116.091 111.512 114.18 111.901 112.192C113.075 111.948 114.155 111.482 115.161 110.895V115.161ZM112.419 96.7299C114.051 97.6814 115.161 99.4307 115.161 101.452C115.161 103.472 114.051 105.222 112.419 106.173V96.7299ZM57.5806 106.17C55.9492 105.222 54.8387 103.472 54.8387 101.452C54.8387 99.4307 55.9492 97.6814 57.5806 96.7299V106.17ZM57.5806 87.7419V90.8732C56.6045 91.1282 55.6887 91.512 54.8387 92.0083V80.3743C54.8387 64.7809 67.5256 52.0967 83.1162 52.0967C90.673 52.0967 97.7746 55.0388 103.113 60.3801L105.532 62.7985L106.272 62.9822C111.506 64.2928 115.161 68.9733 115.161 74.3695V92.0083C114.311 91.512 113.395 91.1254 112.419 90.8732V87.7419H103.722C96.2912 87.7419 89.1924 84.1938 84.734 78.252L82.5569 75.3401L77.1059 80.7911C72.6229 85.2741 66.6619 87.7419 60.3225 87.7419H57.5806ZM63.0645 106.935V93.0996C69.8343 92.4717 76.1188 89.5351 80.983 84.6654L82.0496 83.5988C87.5527 89.6667 95.4714 93.223 103.722 93.223H106.935V106.933C106.935 110.93 105.844 114.67 103.969 117.9H85V123.384H99.4609C95.5948 126.787 90.5414 128.868 85 128.868C72.9053 128.871 63.0645 119.03 63.0645 106.935ZM77.0072 133.159C79.538 133.932 82.2196 134.355 85 134.355C87.7803 134.355 90.4619 133.932 92.9927 133.159L85 139.153L77.0072 133.159ZM80.8267 142.877L75.2332 148.473L71.6001 137.585L73.3467 137.267L80.8267 142.877ZM96.6532 137.267L98.3998 137.585L94.7667 148.473L89.1732 142.877L96.6532 137.267ZM39.3303 164.516L43.6022 150.283C45.0911 145.32 49.1821 141.659 54.2821 140.732L66.1546 138.575L72.8367 158.624L85 146.458L97.1687 158.624L103.851 138.575L115.723 140.732C120.821 141.659 124.914 145.32 126.403 150.28L130.67 164.516H39.3303Z" fill="black" fill-opacity="0.4"/>
<path fill-rule="evenodd" clip-rule="evenodd" d="M170 24.6774C170 31.7434 167.017 38.3679 161.775 43.0566V46.6129H167.258V52.0968H161.775V63.0645H128.871V52.0968H123.387V46.6129H128.871V43.0566C123.629 38.3679 120.646 31.7434 120.646 24.6774C120.646 11.0719 131.715 0 145.323 0C158.931 0 170 11.0719 170 24.6774ZM134.355 52.0968V57.5806H156.291V52.0968H134.355ZM145.323 21.9355C143.809 21.9355 142.581 23.1666 142.581 24.6774C142.581 26.1882 143.809 27.4194 145.323 27.4194C146.836 27.4194 148.065 26.1882 148.065 24.6774C148.065 23.1666 146.836 21.9355 145.323 21.9355ZM156.291 40.471L157.316 39.6484C161.892 35.9769 164.516 30.5177 164.516 24.6774C164.516 14.0935 155.904 5.48387 145.323 5.48387C134.742 5.48387 126.129 14.0935 126.129 24.6774C126.129 30.5177 128.753 35.9769 133.33 39.6484L134.355 40.471V46.6129H142.581V32.3987C139.398 31.2635 137.097 28.2474 137.097 24.6774C137.097 20.1423 140.788 16.4516 145.323 16.4516C149.858 16.4516 153.549 20.1423 153.549 24.6774C153.549 28.2474 151.248 31.2635 148.065 32.3987V46.6129H156.291V40.471Z" fill="black" fill-opacity="0.4"/>
</g>
<defs>
<clipPath id="clip0">
<rect width="170" height="170" fill="white"/>
</clipPath>
</defs>
</svg>
