<svg width="16" height="16" viewBox="0 0 16 16" fill="none" xmlns="http://www.w3.org/2000/svg">
<path d="M11.21 12.2703L12.2721 11.1692C12.336 11.103 12.336 10.9959 12.2721 10.9297C12.2082 10.8634 12.1049 10.8634 12.0411 10.9297L11.0945 11.911L10.679 11.4803C10.6151 11.414 10.5118 11.414 10.4479 11.4803C10.384 11.5465 10.384 11.6536 10.4479 11.7198L10.979 12.2703C11.0108 12.3034 11.0527 12.32 11.0945 12.32C11.1363 12.32 11.1781 12.3034 11.21 12.2703Z" fill="black"/>
<path fill-rule="evenodd" clip-rule="evenodd" d="M4.96037 10.7839C4.93049 10.7338 4.87645 10.7031 4.8181 10.7031C4.75976 10.7031 4.70572 10.7338 4.67584 10.7839L4.04 12.0556C4.01461 12.1064 4.01827 12.1669 4.0496 12.2143C4.08092 12.2617 4.13516 12.2888 4.19187 12.2854C4.24858 12.282 4.29915 12.2485 4.32454 12.1977L4.51815 11.8087H5.11647L5.31088 12.1977C5.35012 12.2763 5.44563 12.3082 5.5242 12.2689C5.60277 12.2297 5.63466 12.1342 5.59541 12.0556L4.96037 10.7839ZM4.67711 11.4908L4.81731 11.2104L4.95751 11.4908H4.67711Z" fill="black"/>
<path d="M6.24805 11.0139H6.407C6.49479 11.0139 6.56596 11.0851 6.56596 11.1729C6.56596 11.2607 6.49479 11.3318 6.407 11.3318H6.24805V11.4908C6.24805 11.5786 6.17688 11.6498 6.08909 11.6498C6.0013 11.6498 5.93013 11.5786 5.93013 11.4908V11.3318H5.77117C5.68338 11.3318 5.61221 11.2607 5.61221 11.1729C5.61221 11.0851 5.68338 11.0139 5.77117 11.0139H5.93013V10.855C5.93013 10.7672 6.0013 10.696 6.08909 10.696C6.17688 10.696 6.24805 10.7672 6.24805 10.855V11.0139Z" fill="black"/>
<path fill-rule="evenodd" clip-rule="evenodd" d="M8.20624 2C8.28378 2 8.35859 2.03479 8.41316 2.09274L11.3452 5.19418C11.3941 5.2493 11.4286 5.32172 11.4286 5.39706V9.10281C12.719 9.13529 13.7551 10.1915 13.7551 11.4898C13.7551 12.8085 12.6861 13.8776 11.3673 13.8776C11.1241 13.8776 10.8893 13.8412 10.6682 13.7736C10.4326 13.9171 10.1574 14 9.8648 14H3.56377C2.70712 14 2 13.2898 2 12.426V3.57388C2 2.71017 2.70712 2 3.56377 2H8.20624ZM10.8537 5.68115V9.15743C9.78183 9.39242 8.97959 10.3474 8.97959 11.4898C8.97959 12.2805 9.36394 12.9815 9.956 13.416C9.92594 13.4188 9.89552 13.4203 9.8648 13.4203H3.56377C3.02626 13.4203 2.57492 12.971 2.57492 12.426V3.57388C2.57492 3.03189 3.02336 2.57971 3.56377 2.57971H7.92159V4.41159C7.92159 5.11591 8.48507 5.68115 9.18356 5.68115H10.8537ZM10.4599 5.10144L8.49651 3.02319V4.41159C8.49651 4.79419 8.80413 5.10144 9.18356 5.10144H10.4599ZM11.3673 13.3976C12.421 13.3976 13.2751 12.5434 13.2751 11.4898C13.2751 10.4362 12.421 9.58204 11.3673 9.58204C10.3137 9.58204 9.45959 10.4362 9.45959 11.4898C9.45959 12.5434 10.3137 13.3976 11.3673 13.3976Z" fill="black"/>
<path d="M8.92872 6.56051L8.46991 7.01931C8.45614 7.03307 8.43808 7.04 8.42001 7.04C8.40194 7.04 8.38387 7.03307 8.3701 7.01931L8.14071 6.78991C8.1131 6.76231 8.1131 6.7177 8.14071 6.6901C8.1683 6.6625 8.2129 6.6625 8.24051 6.6901L8.42001 6.8696L8.82892 6.46071C8.85651 6.4331 8.90111 6.4331 8.92872 6.46071C8.95631 6.4883 8.95631 6.5329 8.92872 6.56051Z" fill="black"/>
<path d="M4.04 6.74C4.04 6.64059 4.12059 6.56 4.22 6.56H7.46C7.55941 6.56 7.64 6.64059 7.64 6.74C7.64 6.83941 7.55941 6.92 7.46 6.92H4.22C4.12059 6.92 4.04 6.83941 4.04 6.74Z" fill="black"/>
<path d="M8.92872 7.88051L8.46991 8.33931C8.45614 8.35307 8.43808 8.36 8.42001 8.36C8.40194 8.36 8.38387 8.35307 8.3701 8.33931L8.14071 8.10991C8.1131 8.08231 8.1131 8.0377 8.14071 8.0101C8.1683 7.9825 8.2129 7.9825 8.24051 8.0101L8.42001 8.1896L8.82892 7.7807C8.85651 7.7531 8.90111 7.7531 8.92872 7.7807C8.95631 7.8083 8.95631 7.8529 8.92872 7.88051Z" fill="black"/>
<path d="M4.04 8.06C4.04 7.96059 4.12059 7.88 4.22 7.88H7.46C7.55941 7.88 7.64 7.96059 7.64 8.06C7.64 8.15941 7.55941 8.24 7.46 8.24H4.22C4.12059 8.24 4.04 8.15941 4.04 8.06Z" fill="black"/>
<path d="M8.46991 9.65931L8.92872 9.20051C8.95631 9.1729 8.95631 9.1283 8.92872 9.1007C8.90111 9.0731 8.85651 9.0731 8.82892 9.1007L8.42001 9.5096L8.24051 9.3301C8.2129 9.3025 8.1683 9.3025 8.14071 9.3301C8.1131 9.3577 8.1131 9.40231 8.14071 9.42991L8.3701 9.65931C8.38387 9.67307 8.40194 9.68 8.42001 9.68C8.43808 9.68 8.45614 9.67307 8.46991 9.65931Z" fill="black"/>
<path d="M4.22 9.2C4.12059 9.2 4.04 9.28059 4.04 9.38C4.04 9.47941 4.12059 9.56 4.22 9.56H7.46C7.55941 9.56 7.64 9.47941 7.64 9.38C7.64 9.28059 7.55941 9.2 7.46 9.2H4.22Z" fill="black"/>
</svg>
