<svg height="20px" viewBox="0 0 9 16" fill="none" xmlns="http://www.w3.org/2000/svg">
<path d="M8.32464 0.882931L6.24981 0.879883C3.9188 0.879883 2.4124 2.29478 2.4124 4.4847V6.14677H0.326248C0.145979 6.14677 0 6.28056 0 6.44559V8.85373C0 9.01877 0.146146 9.15241 0.326248 9.15241H2.4124V15.2289C2.4124 15.3939 2.55838 15.5276 2.73865 15.5276H5.46049C5.64076 15.5276 5.78674 15.3938 5.78674 15.2289V9.15241H8.22594C8.40621 9.15241 8.55218 9.01877 8.55218 8.85373L8.55318 6.44559C8.55318 6.36635 8.51873 6.29046 8.45764 6.23439C8.39655 6.17831 8.31332 6.14677 8.22677 6.14677H5.78674V4.73781C5.78674 4.06062 5.96301 3.71683 6.9266 3.71683L8.32431 3.71638C8.50441 3.71638 8.65039 3.58258 8.65039 3.4177V1.18161C8.65039 1.01688 8.50458 0.883235 8.32464 0.882931Z" fill="#6A6A6A"/>
</svg>
