<svg width="15" height="15" viewBox="0 0 15 15" fill="none" xmlns="http://www.w3.org/2000/svg">
<path d="M14.7261 4.18132L14.7269 4.18978L14.7283 4.19817C14.7407 4.27588 14.8115 4.80295 14.604 5.68121L14.604 5.68129C14.3053 6.94747 13.6148 8.10165 12.6035 9.01853C12.6032 9.01877 12.6029 9.019 12.6027 9.01924L7.4565 13.6102L2.3973 9.01905L2.39715 9.01892C1.38545 8.10223 0.694674 6.94752 0.395853 5.68128L0.395842 5.68123C0.1883 4.80251 0.259255 4.27562 0.271789 4.19854L0.273208 4.18981L0.274007 4.181C0.4834 1.87325 2.10415 0.25 4.08421 0.25C5.38932 0.25 6.5586 0.947775 7.24269 2.11837L7.45617 2.48367L7.67316 2.12044C8.36254 0.966404 9.58485 0.250288 10.9157 0.250288C12.896 0.250288 14.5165 1.87353 14.7261 4.18132Z" stroke="#4A4A4A" stroke-width="0.5"/>
</svg>
