<svg width="18" height="15" viewBox="0 0 18 15" fill="none" xmlns="http://www.w3.org/2000/svg">
<path d="M9.15646 14.0037L9.15404 14.0059C8.79452 14.3323 8.23918 14.3321 7.87977 14.001L7.87617 13.9977L7.78267 13.9127L7.78135 13.9115C5.53438 11.8786 3.74095 10.2518 2.51322 8.72991C1.29643 7.22161 0.71362 5.90946 0.760161 4.51438C0.803232 3.30006 1.42752 2.13891 2.42171 1.46201L2.42212 1.46173C4.30318 0.179191 6.65452 0.759131 7.94045 2.26425C8.08294 2.43103 8.29131 2.52707 8.51068 2.52707C8.73004 2.52707 8.93841 2.43103 9.0809 2.26425C10.3684 0.75731 12.7189 0.172566 14.5976 1.46064L14.5996 1.46201C15.594 2.13903 16.2183 3.30048 16.2612 4.51505L16.2612 4.51564C16.3115 5.90961 15.7296 7.22113 14.5112 8.73218C13.2837 10.2546 11.4912 11.8832 9.2477 13.9215L9.24147 13.9272L9.23884 13.9296L9.15646 14.0037Z" stroke="#2A2A2A" stroke-width="1.5" stroke-linejoin="round"/>
</svg>
