<svg width="16" height="16" viewBox="0 0 16 16" fill="none" xmlns="http://www.w3.org/2000/svg">
<path d="M9.54545 2.54545C9.54545 2.24421 9.30124 2 9 2C8.69875 2 8.45454 2.24421 8.45454 2.54545V5.81818C8.45454 6.11943 8.69875 6.36364 9 6.36364H12.2727C12.574 6.36364 12.8182 6.11943 12.8182 5.81818C12.8182 5.51694 12.574 5.27273 12.2727 5.27273H9.54545V2.54545Z" fill="#2A2A2A"/>
<path d="M5.72727 8C5.42603 8 5.18182 8.24421 5.18182 8.54545C5.18182 8.8467 5.42603 9.09091 5.72727 9.09091H10.0909C10.3922 9.09091 10.6364 8.8467 10.6364 8.54545C10.6364 8.24421 10.3922 8 10.0909 8H5.72727Z" fill="#2A2A2A"/>
<path d="M5.18182 10.7273C5.18182 10.426 5.42603 10.1818 5.72727 10.1818H10.0909C10.3922 10.1818 10.6364 10.426 10.6364 10.7273C10.6364 11.0285 10.3922 11.2727 10.0909 11.2727H5.72727C5.42603 11.2727 5.18182 11.0285 5.18182 10.7273Z" fill="#2A2A2A"/>
<path d="M5.72727 5.81818C5.42603 5.81818 5.18182 6.06239 5.18182 6.36364C5.18182 6.66488 5.42603 6.90909 5.72727 6.90909H6.81818C7.11943 6.90909 7.36364 6.66488 7.36364 6.36364C7.36364 6.06239 7.11943 5.81818 6.81818 5.81818H5.72727Z" fill="#2A2A2A"/>
<path fill-rule="evenodd" clip-rule="evenodd" d="M4.63636 2C4.20237 2 3.78616 2.1724 3.47928 2.47928C3.1724 2.78616 3 3.20237 3 3.63636V12.3636C3 12.7976 3.1724 13.2138 3.47928 13.5207C3.78616 13.8276 4.20237 14 4.63636 14H11.1818C11.6158 14 12.032 13.8276 12.3389 13.5207C12.6458 13.2138 12.8182 12.7976 12.8182 12.3636V5.81818C12.8182 5.67352 12.7607 5.53478 12.6584 5.43249L9.38569 2.15976C9.2834 2.05747 9.14466 2 9 2H4.63636ZM4.25067 3.25067C4.35296 3.14838 4.4917 3.09091 4.63636 3.09091H8.77406L11.7273 6.04412V12.3636C11.7273 12.5083 11.6698 12.647 11.5675 12.7493C11.4652 12.8516 11.3265 12.9091 11.1818 12.9091H4.63636C4.4917 12.9091 4.35296 12.8516 4.25067 12.7493C4.14838 12.647 4.09091 12.5083 4.09091 12.3636V3.63636C4.09091 3.4917 4.14838 3.35296 4.25067 3.25067Z" fill="#2A2A2A"/>
<path d="M9.54545 2.54545C9.54545 2.24421 9.30124 2 9 2C8.69875 2 8.45454 2.24421 8.45454 2.54545V5.81818C8.45454 6.11943 8.69875 6.36364 9 6.36364H12.2727C12.574 6.36364 12.8182 6.11943 12.8182 5.81818C12.8182 5.51694 12.574 5.27273 12.2727 5.27273H9.54545V2.54545Z" fill="#2A2A2A"/>
<path d="M5.72727 8C5.42603 8 5.18182 8.24421 5.18182 8.54545C5.18182 8.8467 5.42603 9.09091 5.72727 9.09091H10.0909C10.3922 9.09091 10.6364 8.8467 10.6364 8.54545C10.6364 8.24421 10.3922 8 10.0909 8H5.72727Z" fill="#2A2A2A"/>
<path d="M5.18182 10.7273C5.18182 10.426 5.42603 10.1818 5.72727 10.1818H10.0909C10.3922 10.1818 10.6364 10.426 10.6364 10.7273C10.6364 11.0285 10.3922 11.2727 10.0909 11.2727H5.72727C5.42603 11.2727 5.18182 11.0285 5.18182 10.7273Z" fill="#2A2A2A"/>
<path d="M5.72727 5.81818C5.42603 5.81818 5.18182 6.06239 5.18182 6.36364C5.18182 6.66488 5.42603 6.90909 5.72727 6.90909H6.81818C7.11943 6.90909 7.36364 6.66488 7.36364 6.36364C7.36364 6.06239 7.11943 5.81818 6.81818 5.81818H5.72727Z" fill="#2A2A2A"/>
<path fill-rule="evenodd" clip-rule="evenodd" d="M4.63636 2C4.20237 2 3.78616 2.1724 3.47928 2.47928C3.1724 2.78616 3 3.20237 3 3.63636V12.3636C3 12.7976 3.1724 13.2138 3.47928 13.5207C3.78616 13.8276 4.20237 14 4.63636 14H11.1818C11.6158 14 12.032 13.8276 12.3389 13.5207C12.6458 13.2138 12.8182 12.7976 12.8182 12.3636V5.81818C12.8182 5.67352 12.7607 5.53478 12.6584 5.43249L9.38569 2.15976C9.2834 2.05747 9.14466 2 9 2H4.63636ZM4.25067 3.25067C4.35296 3.14838 4.4917 3.09091 4.63636 3.09091H8.77406L11.7273 6.04412V12.3636C11.7273 12.5083 11.6698 12.647 11.5675 12.7493C11.4652 12.8516 11.3265 12.9091 11.1818 12.9091H4.63636C4.4917 12.9091 4.35296 12.8516 4.25067 12.7493C4.14838 12.647 4.09091 12.5083 4.09091 12.3636V3.63636C4.09091 3.4917 4.14838 3.35296 4.25067 3.25067Z" fill="#2A2A2A"/>
</svg>
