<svg width="25" height="25" viewBox="0 0 25 25" fill="none" xmlns="http://www.w3.org/2000/svg">
<path fill-rule="evenodd" clip-rule="evenodd" d="M13.8857 18.9761C13.6954 19.5853 13.1313 20 12.4931 20C11.8616 20 11.3017 19.5937 11.1059 18.9933L11.0337 18.7719C10.9137 18.4038 10.6155 18.1247 10.2573 17.9779C9.89643 17.8301 9.48882 17.8148 9.14004 17.9892L8.90921 18.1046C8.34267 18.3879 7.65842 18.2768 7.21053 17.8289C6.76263 17.3811 6.6516 16.6968 6.93487 16.1303L7.04809 15.9038C7.22385 15.5523 7.2084 15.1415 7.05968 14.7777C6.91408 14.4215 6.63902 14.1238 6.27475 13.9997L6.00207 13.9069C5.40289 13.7029 5 13.1402 5 12.5072C5 11.8673 5.41173 11.3 6.02017 11.1015L6.22813 11.0337C6.59623 10.9137 6.87527 10.6155 7.02207 10.2573C7.16993 9.89643 7.1852 9.48882 7.01081 9.14004L6.89539 8.90921C6.61212 8.34267 6.72316 7.65842 7.17105 7.21053C7.61894 6.76263 8.30319 6.6516 8.86974 6.93487L9.09619 7.04809C9.44771 7.22385 9.85855 7.2084 10.2223 7.05968C10.5785 6.91408 10.8762 6.63902 11.0003 6.27475L11.0931 6.00207C11.2971 5.40289 11.8598 5 12.4928 5C13.1327 5 13.7 5.41173 13.8985 6.02017L13.9663 6.22813C14.0863 6.59623 14.3845 6.87527 14.7427 7.02207C15.1036 7.16993 15.5112 7.1852 15.86 7.01081L16.0908 6.89539C16.6573 6.61212 17.3416 6.72316 17.7895 7.17105C18.2374 7.61895 18.3484 8.30319 18.0651 8.86974L17.9497 9.10057C17.7753 9.44935 17.7906 9.85695 17.9385 10.2178C18.0853 10.5761 18.3643 10.8742 18.7324 10.9943L18.9472 11.0643C19.5516 11.2614 19.9605 11.8249 19.9605 12.4605C19.9605 13.0962 19.5516 13.6597 18.9472 13.8567L18.7324 13.9268C18.3643 14.0468 18.0853 14.345 17.9385 14.7033C17.7906 15.0641 17.7753 15.4717 17.9497 15.8205L18.0651 16.0513C18.3484 16.6179 18.2374 17.3021 17.7895 17.75C17.3416 18.1979 16.6573 18.3089 16.0908 18.0257L15.8558 17.9082C15.5096 17.7351 15.1051 17.7502 14.7471 17.8972C14.3868 18.0451 14.0883 18.328 13.9721 18.6997L13.8857 18.9761ZM14.8684 12.5C14.8684 13.808 13.808 14.8684 12.5 14.8684C11.192 14.8684 10.1316 13.808 10.1316 12.5C10.1316 11.192 11.192 10.1316 12.5 10.1316C13.808 10.1316 14.8684 11.192 14.8684 12.5Z" fill="#8A8A8A"/>
</svg>
