<svg width="13" height="13" viewBox="0 0 13 13" fill="none" xmlns="http://www.w3.org/2000/svg">
<g clip-path="url(#clip0)">
<path d="M11.4417 8.81536C11.9699 9.46549 12.2667 10.3472 12.2667 11.2667V12.1333C12.2667 12.612 11.8786 13 11.4 13H1.86667C1.38802 13 1 12.612 1 12.1333V11.2667C1 10.3472 1.29676 9.46549 1.82498 8.81536C2.35321 8.16524 3.06964 7.8 3.81667 7.8H9.45C10.197 7.8 10.9135 8.16524 11.4417 8.81536Z" fill="#8A8A8A"/>
<path d="M1.34145 1.92155L1.50243 1.95765V3.36346C1.32636 3.46456 1.2006 3.64029 1.2006 3.85212C1.2006 4.05432 1.3163 4.22283 1.47979 4.32634L1.08741 5.82602C1.04465 5.99212 1.14023 6.16303 1.27857 6.16303H2.32997C2.46831 6.16303 2.56389 5.99212 2.52113 5.82602L2.12874 4.32634C2.29224 4.22283 2.40794 4.05432 2.40794 3.85212C2.40794 3.64029 2.28218 3.46456 2.1061 3.36346V2.09727L3.7662 2.48002C3.54989 2.89405 3.41406 3.35624 3.41406 3.85212C3.41406 5.55401 4.85533 6.93333 6.63365 6.93333C8.41197 6.93333 9.85323 5.55401 9.85323 3.85212C9.85323 3.35624 9.71992 2.89405 9.50109 2.48002L11.9233 1.92155C12.3811 1.81563 12.3811 1.2692 11.9233 1.16328L7.13419 0.0559674C6.8072 -0.0186558 6.46261 -0.0186558 6.13562 0.0559674L1.34145 1.16087C0.886183 1.26679 0.886183 1.81563 1.34145 1.92155Z" fill="#8A8A8A"/>
</g>
<defs>
<clipPath id="clip0">
<rect width="12.9994" height="13" fill="white"/>
</clipPath>
</defs>
</svg>
