<?xml version="1.0"?>
<svg xmlns="http://www.w3.org/2000/svg" height="512px" viewBox="0 0 512 512" width="512px"><path d="m351.640625 346.855469h-29.28125c-12.328125 0-22.359375 10.027343-22.359375 22.359375v29.28125c0 12.328125 10.03125 22.359375 22.359375 22.359375h29.28125c12.328125 0 22.359375-10.03125 22.359375-22.359375v-29.28125c0-12.328125-10.03125-22.359375-22.359375-22.359375zm7.359375 51.640625c0 4.058594-3.300781 7.359375-7.359375 7.359375h-29.28125c-4.058594 0-7.359375-3.300781-7.359375-7.359375v-29.28125c0-4.058594 3.300781-7.359375 7.359375-7.359375h29.28125c4.058594 0 7.359375 3.300781 7.359375 7.359375zm0 0" fill="#EE1F41"/><path d="m449.640625 346.855469h-29.28125c-12.328125 0-22.359375 10.027343-22.359375 22.359375v29.28125c0 12.328125 10.03125 22.359375 22.359375 22.359375h29.28125c12.328125 0 22.359375-10.03125 22.359375-22.359375v-29.28125c0-12.328125-10.03125-22.359375-22.359375-22.359375zm7.359375 51.640625c0 4.058594-3.300781 7.359375-7.359375 7.359375h-29.28125c-4.058594 0-7.359375-3.300781-7.359375-7.359375v-29.28125c0-4.058594 3.300781-7.359375 7.359375-7.359375h29.28125c4.058594 0 7.359375 3.300781 7.359375 7.359375zm0 0" fill="#EE1F41"/><path d="m55.492188 213.515625h32.183593c9.085938 0 16.476563-7.390625 16.476563-16.480469v-49.082031c0-9.085937-7.390625-16.476563-16.476563-16.476563h-32.183593c-9.085938 0-16.476563 7.390626-16.476563 16.476563v49.082031c0 9.085938 7.390625 16.480469 16.476563 16.480469zm-1.476563-65.5625c0-.8125.664063-1.476563 1.476563-1.476563h32.183593c.8125 0 1.476563.664063 1.476563 1.476563v49.082031c0 .816406-.660156 1.480469-1.476563 1.480469h-32.183593c-.8125 0-1.476563-.664063-1.476563-1.480469zm0 0" fill="#EE1F41"/><path d="m184.160156 164.914062h32.179688c9.085937 0 16.480468-7.394531 16.480468-16.480468v-49.082032c0-9.085937-7.390624-16.480468-16.480468-16.480468h-32.179688c-9.085937 0-16.480468 7.394531-16.480468 16.480468v49.082032c0 9.085937 7.394531 16.480468 16.480468 16.480468zm-1.480468-65.5625c0-.816406.664062-1.480468 1.480468-1.480468h32.179688c.816406 0 1.480468.664062 1.480468 1.480468v49.082032c0 .816406-.664062 1.480468-1.480468 1.480468h-32.179688c-.816406 0-1.480468-.664062-1.480468-1.480468zm0 0" fill="#EE1F41"/><path d="m184.160156 270.914062h32.179688c9.085937 0 16.480468-7.394531 16.480468-16.480468v-49.082032c0-9.085937-7.390624-16.480468-16.480468-16.480468h-32.179688c-9.085937 0-16.480468 7.394531-16.480468 16.480468v49.082032c0 9.085937 7.394531 16.480468 16.480468 16.480468zm-1.480468-65.5625c0-.816406.664062-1.480468 1.480468-1.480468h32.179688c.816406 0 1.480468.664062 1.480468 1.480468v49.082032c0 .816406-.664062 1.480468-1.480468 1.480468h-32.179688c-.816406 0-1.480468-.664062-1.480468-1.480468zm0 0" fill="#EE1F41"/><path d="m295.660156 164.914062h32.179688c9.085937 0 16.480468-7.394531 16.480468-16.480468v-49.082032c0-9.085937-7.390624-16.480468-16.480468-16.480468h-32.179688c-9.085937 0-16.480468 7.394531-16.480468 16.480468v49.082032c0 9.085937 7.394531 16.480468 16.480468 16.480468zm-1.480468-65.5625c0-.816406.664062-1.480468 1.480468-1.480468h32.179688c.816406 0 1.480468.664062 1.480468 1.480468v49.082032c0 .816406-.664062 1.480468-1.480468 1.480468h-32.179688c-.816406 0-1.480468-.664062-1.480468-1.480468zm0 0" fill="#EE1F41"/><path d="m295.660156 270.914062h32.179688c9.085937 0 16.480468-7.394531 16.480468-16.480468v-49.082032c0-9.085937-7.390624-16.480468-16.480468-16.480468h-32.179688c-9.085937 0-16.480468 7.394531-16.480468 16.480468v49.082032c0 9.085937 7.394531 16.480468 16.480468 16.480468zm-1.480468-65.5625c0-.816406.664062-1.480468 1.480468-1.480468h32.179688c.816406 0 1.480468.664062 1.480468 1.480468v49.082032c0 .816406-.664062 1.480468-1.480468 1.480468h-32.179688c-.816406 0-1.480468-.664062-1.480468-1.480468zm0 0" fill="#EE1F41"/><path d="m87.675781 323.285156c9.085938 0 16.476563-7.390625 16.476563-16.480468v-49.082032c0-9.085937-7.390625-16.476562-16.476563-16.476562h-32.183593c-9.085938 0-16.476563 7.390625-16.476563 16.476562v49.082032c0 9.085937 7.390625 16.480468 16.476563 16.480468zm-33.660156-16.476562v-49.082032c0-.816406.664063-1.480468 1.476563-1.480468h32.183593c.8125 0 1.476563.664062 1.476563 1.480468v49.082032c0 .8125-.660156 1.476562-1.476563 1.476562h-32.183593c-.8125 0-1.476563-.664062-1.476563-1.476562zm0 0" fill="#EE1F41"/><path d="m456.507812 131.476562h-32.183593c-9.085938 0-16.476563 7.390626-16.476563 16.480469v49.082031c0 9.085938 7.390625 16.476563 16.476563 16.476563h32.183593c9.085938 0 16.476563-7.390625 16.476563-16.476563v-49.082031c0-9.089843-7.390625-16.480469-16.476563-16.480469zm1.476563 65.558594c0 .816406-.660156 1.480469-1.476563 1.480469h-32.183593c-.8125 0-1.476563-.664063-1.476563-1.480469v-49.082031c0-.8125.664063-1.476563 1.476563-1.476563h32.183593c.8125 0 1.476563.664063 1.476563 1.476563zm0 0" fill="#EE1F41"/><path d="m481.058594 90.84375h-97.222656v-33.457031c7.4375-2.988281 12.714843-10.261719 12.714843-18.757813v-18.414062c0-11.144532-9.070312-20.214844-20.214843-20.214844h-172.242188c-4.144531 0-7.5 3.359375-7.5 7.5s3.355469 7.5 7.5 7.5h172.242188c2.875 0 5.214843 2.339844 5.214843 5.214844v18.417968c0 2.875-2.339843 5.214844-5.214843 5.214844h-240.667969c-2.875 0-5.214844-2.339844-5.214844-5.214844v-18.417968c0-2.875 2.335937-5.214844 5.214844-5.214844h38.425781c4.140625 0 7.5-3.359375 7.5-7.5s-3.359375-7.5-7.5-7.5h-38.425781c-11.148438 0-20.214844 9.066406-20.214844 20.214844v18.417968c0 8.492188 5.273437 15.769532 12.714844 18.753907v33.460937h-97.226563c-17.058594-.003906-30.941406 13.878906-30.941406 30.941406v381.957032c0 4.140625 3.359375 7.5 7.5 7.5h497c4.140625 0 7.5-3.359375 7.5-7.5v-381.957032c0-17.0625-13.882812-30.945312-30.941406-30.945312zm-337.890625-32h225.667969v237.730469h-149.035157c-17.636719 0-34.9375 3.125-51.425781 9.285156-8.757812 3.273437-17.226562 7.378906-25.207031 12.246094zm-13.066407 287.878906c9.890626-9.140625 21.234376-16.78125 33.398438-22.519531v34.433594c0 25.148437-20.460938 45.609375-45.609375 45.609375h-42.648437c3.195312-5.035156 6.953124-9.742188 11.167968-13.960938.019532-.019531.035156-.039062.054688-.054687 0 0 42.390625-42.355469 43.636718-43.507813zm-115.101562-224.933594c0-8.792968 7.152344-15.945312 15.941406-15.945312h97.226563v222.769531c-4.292969 3.425781-8.410157 7.101563-12.339844 11.03125 0 0-39.964844 39.972657-39.96875 39.972657-17.578125 17.585937-27.886719 41.792968-28.34375 66.652343h-32.515625zm482 324.484376h-88.90625c-4.144531 0-7.5 3.355468-7.5 7.503906 0 4.140625 3.355469 7.5 7.5 7.5h88.90625v34.96875h-482v-34.972656l363.09375.003906c4.140625 0 7.5-3.359375 7.5-7.503906 0-4.144532-3.359375-7.5-7.5-7.5h-98.09375v-71.621094c0-15.328125-12.46875-27.796875-27.796875-27.796875h-26.40625c-15.328125 0-27.796875 12.46875-27.796875 27.796875v71.621094h-135.453125c.011719-.539063.019531-1.078126.042969-1.617188.355468-8.679688 2.097656-17.285156 5.171875-25.410156h50.128906c33.417969 0 60.609375-27.1875 60.609375-60.609375v-40.433594c.078125-.023437.160156-.054687.238281-.078125 12.714844-4.167969 26.0625-6.375 39.441407-6.539062.539062-.007813 278.820312-.011719 278.820312-.011719zm-284 0v-71.621094c0-7.058594 5.742188-12.796875 12.796875-12.796875h26.40625c7.058594 0 12.796875 5.738281 12.796875 12.796875v71.621094zm209.847656-149.699219v-38.851563c0-.8125.664063-1.476562 1.480469-1.476562h32.179687c.816407 0 1.480469.660156 1.480469 1.476562v38.851563zm74.152344 0h-24.015625v-38.851563c0-9.085937-7.390625-16.476562-16.476563-16.476562h-32.183593c-9.085938 0-16.476563 7.390625-16.476563 16.476562v38.851563h-24.015625v-190.730469h97.226563c8.789062 0 15.941406 7.152344 15.941406 15.945312zm0 0" fill="#EE1F41"/></svg>
