<svg width="16" height="16" viewBox="0 0 16 16" fill="none" xmlns="http://www.w3.org/2000/svg">
<path d="M16 9.7291V15.6444H12.5707V10.1253C12.5707 8.73882 12.0747 7.79263 10.8334 7.79263C9.88579 7.79263 9.32189 8.43029 9.07381 9.04713C8.98334 9.26765 8.96006 9.57458 8.96006 9.88326V15.6444H5.52958C5.52958 15.6444 5.57579 6.29681 5.52958 5.32833H8.95972V6.79059C8.95276 6.80153 8.94372 6.81332 8.93718 6.82392H8.95972V6.79059C9.41545 6.08868 10.2293 5.08598 12.051 5.08598C14.308 5.08594 16 6.5604 16 9.7291ZM1.94116 0.355469C0.767605 0.355469 0 1.12523 0 2.1375C0 3.1277 0.745397 3.92082 1.89563 3.92082H1.91855C3.11484 3.92082 3.85882 3.12785 3.85882 2.1375C3.83628 1.12523 3.11484 0.355469 1.94116 0.355469ZM0.20374 15.6444H3.63291V5.32833H0.20374V15.6444Z" fill="#EE1F41"/>
</svg>
