<svg width="50" height="50" viewBox="0 0 50 50" fill="none" xmlns="http://www.w3.org/2000/svg">
<path d="M14.0625 17.9688H15.625V21.0938H14.0625V17.9688Z" fill="#D80027"/>
<path d="M18.0653 23.3253L17.2589 21.9871C16.5266 22.4169 15.6929 22.6434 14.8438 22.6434C13.9947 22.6434 13.161 22.4169 12.4287 21.9871L11.6223 23.3253C12.5952 23.9099 13.7088 24.2187 14.8438 24.2187C15.9788 24.2187 17.0924 23.9099 18.0653 23.3253Z" fill="#D80027"/>
<path fill-rule="evenodd" clip-rule="evenodd" d="M6.25001 45.3125H3.12501V48.4375H1.56251V35.677C1.56111 34.9055 1.7888 34.151 2.21672 33.5091C2.64463 32.8672 3.25351 32.3668 3.96615 32.0713L10.9375 29.1668V27.3415C9.08807 26.569 7.50814 25.2671 6.39617 23.5996C5.2842 21.932 4.68975 19.9731 4.68751 17.9688V10.0122C4.23184 9.85175 3.83701 9.55414 3.55725 9.16027C3.27749 8.76641 3.12649 8.29561 3.12501 7.8125V6.25C3.12622 5.21437 3.53816 4.22151 4.27046 3.48921C5.00276 2.75691 5.99563 2.34497 7.03126 2.34375H8.61373C8.97467 1.86035 9.4431 1.46753 9.98199 1.19635C10.5209 0.92517 11.1155 0.783058 11.7188 0.78125H20.3125C21.7624 0.782877 23.1525 1.35957 24.1777 2.38481C25.2029 3.41004 25.7796 4.8001 25.7813 6.25V7.8125C25.7804 8.14025 25.7103 8.46412 25.5757 8.76295C25.4411 9.06178 25.2449 9.32883 25 9.54666V17.9688C24.9978 19.9731 24.4033 21.932 23.2913 23.5996C22.1794 25.2671 20.5994 26.569 18.75 27.3415V29.1668L21.3944 30.2685L20.7932 31.7104L18.5735 30.7857C18.3407 31.595 17.8509 32.3067 17.1781 32.8132C16.5053 33.3198 15.686 33.5938 14.8438 33.5938C14.0016 33.5938 13.1823 33.3198 12.5095 32.8132C11.8367 32.3067 11.3469 31.595 11.1141 30.7857L4.56734 33.5133C4.13975 33.6907 3.77444 33.991 3.51767 34.3761C3.2609 34.7613 3.12424 35.214 3.12501 35.677V43.75H6.25001V39.0625H7.81251V48.4375H6.25001V45.3125ZM16.501 31.3448C16.9406 30.9052 17.1875 30.3091 17.1875 29.6875V27.8411C15.6479 28.2196 14.0396 28.2196 12.5 27.8411V29.6875C12.5 30.3091 12.7469 30.9052 13.1865 31.3448C13.626 31.7843 14.2222 32.0312 14.8438 32.0312C15.4654 32.0312 16.0615 31.7843 16.501 31.3448ZM10.0622 3.03097C9.62283 3.47036 9.37569 4.06611 9.37501 4.6875V6.25C9.37569 6.87139 9.62283 7.46714 10.0622 7.90653C10.5016 8.34592 11.0974 8.59307 11.7188 8.59375H23.4375C23.6446 8.59348 23.8432 8.51109 23.9896 8.36463C24.1361 8.21818 24.2185 8.01962 24.2188 7.8125V6.25C24.2175 5.21437 23.8056 4.22151 23.0733 3.48921C22.341 2.75691 21.3481 2.34497 20.3125 2.34375H11.7188C11.0974 2.34443 10.5016 2.59158 10.0622 3.03097ZM9.96754 9.7346C9.4248 9.45904 8.95427 9.06001 8.59376 8.56958C8.02471 9.3435 7.1902 9.88033 6.25001 10.0773V14.0625H7.92344C8.09377 13.3923 8.48259 12.7981 9.02844 12.3736C9.57429 11.9491 10.246 11.7187 10.9375 11.7187C11.629 11.7187 12.3007 11.9491 12.8466 12.3736C13.3924 12.7981 13.7812 13.3923 13.9516 14.0625H15.7359C15.9063 13.3923 16.2951 12.7981 16.8409 12.3736C17.3868 11.9491 18.0585 11.7187 18.75 11.7187C19.4415 11.7187 20.1132 11.9491 20.6591 12.3736C21.2049 12.7981 21.5937 13.3923 21.7641 14.0625H23.4375V10.1562H11.7188C11.1101 10.1546 10.5103 10.0102 9.96754 9.7346ZM20.0492 15.7118C20.2209 15.4549 20.3125 15.1528 20.3125 14.8438C20.3121 14.4295 20.1473 14.0323 19.8544 13.7394C19.5615 13.4464 19.1643 13.2817 18.75 13.2812C18.441 13.2812 18.1389 13.3729 17.8819 13.5446C17.625 13.7163 17.4247 13.9603 17.3064 14.2458C17.1882 14.5313 17.1572 14.8455 17.2175 15.1486C17.2778 15.4517 17.4266 15.7301 17.6452 15.9486C17.8637 16.1671 18.1421 16.3159 18.4452 16.3762C18.7483 16.4365 19.0624 16.4056 19.3479 16.2873C19.6335 16.169 19.8775 15.9688 20.0492 15.7118ZM12.2367 15.7118C12.4084 15.4549 12.5 15.1528 12.5 14.8438C12.4996 14.4295 12.3348 14.0323 12.0419 13.7394C11.749 13.4464 11.3518 13.2817 10.9375 13.2812C10.6285 13.2812 10.3264 13.3729 10.0694 13.5446C9.81248 13.7163 9.61221 13.9603 9.49394 14.2458C9.37568 14.5313 9.34474 14.8455 9.40503 15.1486C9.46532 15.4517 9.61413 15.7301 9.83265 15.9486C10.0512 16.1671 10.3296 16.3159 10.6327 16.3762C10.9358 16.4365 11.2499 16.4056 11.5354 16.2873C11.821 16.169 12.065 15.9688 12.2367 15.7118ZM4.68751 6.25V7.8125C4.68778 8.01962 4.77017 8.21818 4.91663 8.36463C5.06308 8.51109 5.26164 8.59348 5.46876 8.59375C6.09015 8.59307 6.6859 8.34592 7.12529 7.90653C7.56468 7.46714 7.81183 6.87139 7.81251 6.25V3.90625H7.03126C6.40986 3.90693 5.81412 4.15408 5.37472 4.59347C4.93533 5.03286 4.68818 5.62861 4.68751 6.25ZM6.25001 15.625V17.9688C6.25001 20.248 7.15542 22.4338 8.76706 24.0455C10.3787 25.6571 12.5646 26.5625 14.8438 26.5625C17.123 26.5625 19.3088 25.6571 20.9205 24.0455C22.5321 22.4338 23.4375 20.248 23.4375 17.9688V15.625H21.7641C21.5937 16.2952 21.2049 16.8894 20.6591 17.3139C20.1132 17.7384 19.4415 17.9688 18.75 17.9688C18.0585 17.9688 17.3868 17.7384 16.8409 17.3139C16.2951 16.8894 15.9063 16.2952 15.7359 15.625H13.9516C13.7812 16.2952 13.3924 16.8894 12.8466 17.3139C12.3007 17.7384 11.629 17.9688 10.9375 17.9688C10.246 17.9688 9.57429 17.7384 9.02844 17.3139C8.48259 16.8894 8.09377 16.2952 7.92344 15.625H6.25001Z" fill="#D80027"/>
<path fill-rule="evenodd" clip-rule="evenodd" d="M39.8045 22.2378L38.6197 23.4226C38.767 23.6712 38.8787 23.9392 38.9516 24.2188H40.625V25.7812H38.9516C38.8787 26.0608 38.767 26.3288 38.6197 26.5774L39.8045 27.7622L38.6997 28.867L37.5149 27.6822C37.2663 27.8295 36.9983 27.9412 36.7188 28.0141V29.6875H35.1562V28.0141C34.8766 27.9412 34.6086 27.8295 34.3601 27.6822L33.1753 28.867L32.0705 27.7622L33.2553 26.5774C33.108 26.3288 32.9963 26.0608 32.9234 25.7812H31.25V24.2188H32.9234C32.9963 23.9391 33.108 23.6711 33.2553 23.4226L32.0705 22.2378L33.1753 21.133L34.3601 22.3178C34.6087 22.1705 34.8767 22.0588 35.1562 21.9859V20.3125H36.7188V21.9859C36.9983 22.0588 37.2663 22.1705 37.5149 22.3178L38.6997 21.133L39.8045 22.2378ZM35.0694 26.2992C35.3264 26.4709 35.6285 26.5625 35.9375 26.5625C36.3518 26.5621 36.749 26.3973 37.0419 26.1044C37.3348 25.8115 37.4996 25.4143 37.5 25C37.5 24.691 37.4084 24.3889 37.2367 24.1319C37.065 23.875 36.821 23.6747 36.5354 23.5564C36.2499 23.4382 35.9358 23.4072 35.6327 23.4675C35.3296 23.5278 35.0512 23.6766 34.8326 23.8951C34.6141 24.1137 34.4653 24.3921 34.405 24.6952C34.3447 24.9983 34.3757 25.3124 34.4939 25.5979C34.6122 25.8835 34.8125 26.1275 35.0694 26.2992Z" fill="#D80027"/>
<path fill-rule="evenodd" clip-rule="evenodd" d="M43.0628 32.1253C43.5022 31.6859 43.7493 31.0901 43.75 30.4688V19.5312C43.7493 18.9099 43.5022 18.3141 43.0628 17.8747C42.6234 17.4353 42.0276 17.1882 41.4062 17.1875H30.4688C29.8474 17.1882 29.2516 17.4353 28.8122 17.8747C28.3728 18.3141 28.1257 18.9099 28.125 19.5312V30.4688C28.1257 31.0901 28.3728 31.6859 28.8122 32.1253C29.2516 32.5647 29.8474 32.8118 30.4688 32.8125H41.4062C42.0276 32.8118 42.6234 32.5647 43.0628 32.1253ZM42.1875 30.4688C42.1872 30.6759 42.1048 30.8744 41.9584 31.0209C41.8119 31.1673 41.6134 31.2497 41.4062 31.25H30.4688C30.2616 31.2497 30.0631 31.1673 29.9166 31.0209C29.7702 30.8744 29.6878 30.6759 29.6875 30.4688V19.5312C29.6878 19.3241 29.7702 19.1256 29.9166 18.9791C30.0631 18.8327 30.2616 18.7503 30.4688 18.75H41.4062C41.6134 18.7503 41.8119 18.8327 41.9584 18.9791C42.1048 19.1256 42.1872 19.3241 42.1875 19.5312V30.4688Z" fill="#D80027"/>
<path fill-rule="evenodd" clip-rule="evenodd" d="M46.0938 26.5625H45.3125V28.125H46.0938C46.3009 28.1253 46.4994 28.2077 46.6459 28.3541C46.7923 28.5006 46.8747 28.6991 46.875 28.9062V39.8438H25V28.9062C25.0003 28.6991 25.0827 28.5006 25.2291 28.3541C25.3756 28.2077 25.5741 28.1253 25.7812 28.125H26.5625V26.5625H25.7812C25.1599 26.5632 24.5641 26.8103 24.1247 27.2497C23.6853 27.6891 23.4382 28.2849 23.4375 28.9062V42.9688C23.4382 43.5901 23.6853 44.1859 24.1247 44.6253C24.5641 45.0647 25.1599 45.3118 25.7812 45.3125H32.8125V46.875H31.25V48.4375H40.625V46.875H39.0625V45.3125H46.0938C46.7151 45.3118 47.3109 45.0647 47.7503 44.6253C48.1897 44.1859 48.4368 43.5901 48.4375 42.9688V28.9062C48.4368 28.2849 48.1897 27.6891 47.7503 27.2497C47.3109 26.8103 46.7151 26.5632 46.0938 26.5625ZM34.375 46.875V45.3125H37.5V46.875H34.375ZM46.875 42.9688C46.8747 43.1759 46.7923 43.3744 46.6459 43.5209C46.4994 43.6673 46.3009 43.7497 46.0938 43.75H25.7812C25.5741 43.7497 25.3756 43.6673 25.2291 43.5209C25.0827 43.3744 25.0003 43.1759 25 42.9688V41.4062H46.875V42.9688Z" fill="#D80027"/>
<path d="M30.4688 37.5V35.9375H28.9062V37.5H30.4688Z" fill="#D80027"/>
<path d="M32.0312 35.9375H33.5938V37.5H32.0312V35.9375Z" fill="#D80027"/>
<path d="M36.7188 37.5V35.9375H35.1562V37.5H36.7188Z" fill="#D80027"/>
<path d="M38.2812 35.9375H39.8438V37.5H38.2812V35.9375Z" fill="#D80027"/>
<path d="M42.9688 37.5V35.9375H41.4062V37.5H42.9688Z" fill="#D80027"/>
</svg>
