<svg width="21" height="17" viewBox="0 0 21 17" fill="none" xmlns="http://www.w3.org/2000/svg">
<path d="M0 15.1348C0 14.5825 0.447715 14.1348 1 14.1348H20C20.5523 14.1348 21 14.5825 21 15.1348C21 15.6871 20.5523 16.1348 20 16.1348H1C0.447715 16.1348 0 15.6871 0 15.1348Z" fill="#F0F0F0"/>
<path d="M0 8.13477C0 7.58248 0.447715 7.13477 1 7.13477H20C20.5523 7.13477 21 7.58248 21 8.13477C21 8.68705 20.5523 9.13477 20 9.13477H1C0.447715 9.13477 0 8.68705 0 8.13477Z" fill="#F0F0F0"/>
<path d="M0 1.13477C0 0.582481 0.447715 0.134766 1 0.134766H20C20.5523 0.134766 21 0.582481 21 1.13477C21 1.68705 20.5523 2.13477 20 2.13477H1C0.447715 2.13477 0 1.68705 0 1.13477Z" fill="#F0F0F0"/>
</svg>
