<svg width="21" height="15" viewBox="0 0 21 15" fill="none" xmlns="http://www.w3.org/2000/svg">
<path d="M0.7 0.134766C0.313401 0.134766 0 0.448166 0 0.834766C0 1.22136 0.313401 1.53477 0.7 1.53477H20.3C20.6866 1.53477 21 1.22136 21 0.834766C21 0.448166 20.6866 0.134766 20.3 0.134766H0.7Z" fill="#F0F0F0"/>
<path d="M0.7 6.6681C0.313401 6.6681 0 6.9815 0 7.3681C0 7.7547 0.313401 8.0681 0.7 8.0681H20.3C20.6866 8.0681 21 7.7547 21 7.3681C21 6.9815 20.6866 6.6681 20.3 6.6681H0.7Z" fill="#F0F0F0"/>
<path d="M0.7 13.2014C0.313401 13.2014 0 13.5148 0 13.9014C0 14.288 0.313401 14.6014 0.7 14.6014H20.3C20.6866 14.6014 21 14.288 21 13.9014C21 13.5148 20.6866 13.2014 20.3 13.2014H0.7Z" fill="#F0F0F0"/>
</svg>
