<svg width="25" height="25" viewBox="0 0 25 25" fill="none" xmlns="http://www.w3.org/2000/svg">
<path d="M4.32864 7.52334H20.6723C20.9525 7.52334 21.1796 7.29487 21.1796 7.01314C21.1796 6.73135 20.9525 6.50293 20.6723 6.50293H4.32864C4.04843 6.50293 3.82129 6.73135 3.82129 7.01314C3.82129 7.29487 4.04843 7.52334 4.32864 7.52334Z" fill="black"/>
<path d="M20.6723 10.7902H4.32864C4.04843 10.7902 3.82129 10.5617 3.82129 10.28C3.82129 9.99822 4.04843 9.7698 4.32864 9.7698H20.6723C20.9525 9.7698 21.1796 9.99822 21.1796 10.28C21.1796 10.5617 20.9525 10.7902 20.6723 10.7902Z" fill="black"/>
<path d="M4.32864 14.0572H20.6723C20.9525 14.0572 21.1796 13.8287 21.1796 13.5469C21.1796 13.2651 20.9525 13.0367 20.6723 13.0367H4.32864C4.04843 13.0367 3.82129 13.2652 3.82129 13.5469C3.82129 13.8287 4.04843 14.0572 4.32864 14.0572Z" fill="black"/>
<path fill-rule="evenodd" clip-rule="evenodd" d="M19.7684 23.0688C19.8617 23.1478 19.978 23.1889 20.0955 23.1889C20.168 23.1889 20.241 23.1732 20.3093 23.1413C20.4883 23.0576 20.6028 22.8772 20.6028 22.6787V18.7731H21.5247C23.441 18.7731 25 17.2054 25 15.2785V5.30416C25 3.37727 23.441 1.80957 21.5247 1.80957H3.47526C1.55898 1.80957 0 3.37722 0 5.30416V15.2785C0 17.2054 1.55898 18.7731 3.47526 18.7731H14.7013L19.7684 23.0688ZM1.01474 5.30416C1.01474 3.93988 2.11852 2.82998 3.47526 2.82998H21.5247C22.8815 2.82998 23.9853 3.93988 23.9853 5.30416V15.2785C23.9853 16.6427 22.8815 17.7527 21.5247 17.7527H20.0954C19.8152 17.7527 19.588 17.9811 19.588 18.2629V21.5812L15.2137 17.8728C15.1221 17.7952 15.0063 17.7527 14.8866 17.7527H3.47526C2.11852 17.7527 1.01474 16.6427 1.01474 15.2785V5.30416Z" fill="black"/>
</svg>
