<svg width="25" height="25" viewBox="0 0 25 25" fill="none" xmlns="http://www.w3.org/2000/svg">
<path fill-rule="evenodd" clip-rule="evenodd" d="M2.5 0H22.5C23.163 0 23.7989 0.263392 24.2678 0.732233C24.7366 1.20107 25 1.83696 25 2.5V17.5C25 18.163 24.7366 18.7989 24.2678 19.2678C23.7989 19.7366 23.163 20 22.5 20H6.65685C5.59599 20 4.57857 20.4214 3.82843 21.1716L0.853553 24.1464C0.538571 24.4614 0 24.2383 0 23.7929V2.5C0 1.83696 0.263392 1.20107 0.732233 0.732233C1.20107 0.263392 1.83696 0 2.5 0ZM7.2 9C6.53726 9 6 9.53726 6 10.2V10.8C6 11.4627 6.53726 12 7.2 12H7.8C8.46274 12 9 11.4627 9 10.8V10.2C9 9.53726 8.46274 9 7.8 9H7.2ZM11 10.2C11 9.53726 11.5373 9 12.2 9H12.8C13.4627 9 14 9.53726 14 10.2V10.8C14 11.4627 13.4627 12 12.8 12H12.2C11.5373 12 11 11.4627 11 10.8V10.2ZM17.2 9C16.5373 9 16 9.53726 16 10.2V10.8C16 11.4627 16.5373 12 17.2 12H17.8C18.4627 12 19 11.4627 19 10.8V10.2C19 9.53726 18.4627 9 17.8 9H17.2Z" fill="white"/>
</svg>
