<svg width="30" height="30" viewBox="0 0 30 30" fill="none" xmlns="http://www.w3.org/2000/svg">
<path fill-rule="evenodd" clip-rule="evenodd" d="M29.2657 25.7203L22.7484 19.2031C22.7137 19.1684 22.6731 19.1442 22.6369 19.112C23.9193 17.1667 24.6678 14.8381 24.6678 12.334C24.6678 5.52209 19.1457 0 12.3339 0C5.52209 0 0 5.52209 0 12.3339C0 19.1455 5.52197 24.6678 12.3338 24.6678C14.838 24.6678 17.1665 23.9193 19.1118 22.6369C19.144 22.673 19.1681 22.7136 19.2027 22.7482L25.7202 29.2657C26.6992 30.2446 28.2865 30.2446 29.2657 29.2657C30.2446 28.2866 30.2446 26.6993 29.2657 25.7203ZM12.3339 20.392C7.88337 20.392 4.27565 16.7843 4.27565 12.3339C4.27565 7.88337 7.88349 4.27565 12.3339 4.27565C16.7841 4.27565 20.392 7.88349 20.392 12.3339C20.392 16.7843 16.7841 20.392 12.3339 20.392Z" fill="#FF3333"/>
</svg>
