<svg width="4" height="16" viewBox="0 0 4 16" fill="none" xmlns="http://www.w3.org/2000/svg">
<path d="M0 1.6C0 0.716345 0.716345 0 1.6 0C2.48366 0 3.2 0.716345 3.2 1.6C3.2 2.48366 2.48366 3.2 1.6 3.2C0.716345 3.2 0 2.48366 0 1.6Z" fill="white"/>
<path d="M0 7.9999C0 7.11625 0.716345 6.3999 1.6 6.3999C2.48366 6.3999 3.2 7.11625 3.2 7.9999C3.2 8.88356 2.48366 9.5999 1.6 9.5999C0.716345 9.5999 0 8.88356 0 7.9999Z" fill="white"/>
<path d="M1.6 12.7998C0.716345 12.7998 0 13.5161 0 14.3998C0 15.2835 0.716345 15.9998 1.6 15.9998C2.48366 15.9998 3.2 15.2835 3.2 14.3998C3.2 13.5161 2.48366 12.7998 1.6 12.7998Z" fill="white"/>
</svg>
