<svg width="25" height="25" viewBox="0 0 25 25" fill="none" xmlns="http://www.w3.org/2000/svg">
<g clip-path="url(#clip0)">
<path d="M5.26316 25H1.31579C0.96682 25 0.632144 24.8614 0.385386 24.6146C0.138627 24.3679 0 24.0332 0 23.6842V13.1579C0 12.8089 0.138627 12.4742 0.385386 12.2275C0.632144 11.9807 0.96682 11.8421 1.31579 11.8421H5.26316C5.61213 11.8421 5.9468 11.9807 6.19356 12.2275C6.44032 12.4742 6.57895 12.8089 6.57895 13.1579V23.6842C6.57895 24.0332 6.44032 24.3679 6.19356 24.6146C5.9468 24.8614 5.61213 25 5.26316 25ZM14.4737 25H10.5263C10.1773 25 9.84267 24.8614 9.59591 24.6146C9.34915 24.3679 9.21053 24.0332 9.21053 23.6842V1.31579C9.21053 0.96682 9.34915 0.632144 9.59591 0.385386C9.84267 0.138627 10.1773 0 10.5263 0H14.4737C14.8227 0 15.1573 0.138627 15.4041 0.385386C15.6508 0.632144 15.7895 0.96682 15.7895 1.31579V23.6842C15.7895 24.0332 15.6508 24.3679 15.4041 24.6146C15.1573 24.8614 14.8227 25 14.4737 25ZM23.6842 25H19.7368C19.3879 25 19.0532 24.8614 18.8064 24.6146C18.5597 24.3679 18.4211 24.0332 18.4211 23.6842V9.21053C18.4211 8.86156 18.5597 8.52688 18.8064 8.28012C19.0532 8.03336 19.3879 7.89474 19.7368 7.89474H23.6842C24.0332 7.89474 24.3679 8.03336 24.6146 8.28012C24.8614 8.52688 25 8.86156 25 9.21053V23.6842C25 24.0332 24.8614 24.3679 24.6146 24.6146C24.3679 24.8614 24.0332 25 23.6842 25Z" fill="white"/>
</g>
<defs>
<clipPath id="clip0">
<rect width="25" height="25" fill="white"/>
</clipPath>
</defs>
</svg>
