<?xml version="1.0"?>
<svg xmlns="http://www.w3.org/2000/svg" id="Layer_5" enable-background="new 0 0 64 64" height="512px" viewBox="0 0 64 64" width="512px"><path d="m59.5 7c-1.93 0-3.5 1.57-3.5 3.5v9.5c0 1.103-.897 2-2 2h-4.111c1.301-1.272 2.111-3.042 2.111-5 0-3.86-3.141-7-7-7-1.869 0-3.566.741-4.822 1.939-1.507-1.833-3.765-2.939-6.178-2.939-1.026 0-2.004.201-2.907.555-1.228-2.162-3.56-3.555-6.093-3.555-.621 0-1.231.081-1.824.242-1.454-3.173-4.623-5.242-8.176-5.242-4.963 0-9 4.038-9 9 0 .362.025.723.068 1.08-2.867.45-5.068 2.929-5.068 5.92 0 3.309 2.691 6 6 6h32.444c-1.855.849-3.44 2.189-4.57 3.866-.929-1.145-2.333-1.866-3.874-1.866h-20c-2.757 0-5 2.243-5 5v28c0 2.757 2.243 5 5 5h20c2.757 0 5-2.243 5-5v-14.442c.623.273 1.298.424 1.999.424h.001v15.018c0 2.206 1.794 4 4 4 1.201 0 2.266-.542 3-1.382.734.84 1.799 1.382 3 1.382 2.206 0 4-1.794 4-4v-26.914c0-.726.518-1.346 1.231-1.476l3.199-.582c3.807-.691 6.57-4.001 6.57-7.87v-11.658c0-1.93-1.57-3.5-3.5-3.5zm-13.561 22.646-.939.94-.939-.939.807-5.647h.265zm-.939-17.646c2.757 0 5 2.243 5 5s-2.243 5-5 5-5-2.243-5-5 2.243-5 5-5zm-42 5c0-2.206 1.794-4 4-4s4 1.794 4 4h2c0-2.933-2.117-5.377-4.903-5.895-.058-.364-.097-.732-.097-1.105 0-3.86 3.141-7 7-7 3.029 0 5.701 1.936 6.647 4.816l.344 1.045 1.008-.441c.636-.279 1.309-.42 2.001-.42 1.799 0 3.455.985 4.336 2.513-2.016 1.454-3.336 3.817-3.336 6.487h2c0-3.309 2.691-6 6-6 1.964 0 3.79.975 4.907 2.566-.575 1.016-.907 2.186-.907 3.434 0 1.487.47 2.865 1.264 4h-32.264c-2.206 0-4-1.794-4-4zm30.002 22c.004 1.082.362 2.101.998 2.953v7.047h-26v-10zm-22.002-12h20c1.248 0 2.351.781 2.791 1.925-.505 1.262-.791 2.635-.791 4.075v4h-25v-7c0-1.654 1.346-3 3-3zm20 34h-20c-1.654 0-3-1.346-3-3v-7h26v7c0 1.654-1.346 3-3 3zm30-38.842c0 2.901-2.072 5.384-4.927 5.903l-3.199.582c-1.665.302-2.874 1.751-2.874 3.443v26.914c0 1.103-.897 2-2 2s-2-.897-2-2v-19h-2v19c0 1.103-.897 2-2 2s-2-.897-2-2v-29h-2v11.982c-.799 0-1.55-.311-2.116-.874-.571-.567-.884-1.322-.884-2.126v-5.982c0-4.567 3.422-8.341 7.835-8.916l-.895 6.269 3.06 3.061 3.061-3.061-.908-6.353h6.847c2.206 0 4-1.794 4-4v-9.5c0-.827.673-1.5 1.5-1.5s1.5.673 1.5 1.5z" fill="#D80027"/><path d="m13 35c1.654 0 3-1.346 3-3s-1.346-3-3-3-3 1.346-3 3 1.346 3 3 3zm0-4c.552 0 1 .449 1 1s-.448 1-1 1-1-.449-1-1 .448-1 1-1z" fill="#D80027"/><path d="m30 29h2v6h-2z" fill="#D80027"/><path d="m26 29h2v6h-2z" fill="#D80027"/><path d="m22 29h2v6h-2z" fill="#D80027"/><path d="m29 47c1.654 0 3-1.346 3-3s-1.346-3-3-3-3 1.346-3 3 1.346 3 3 3zm0-4c.552 0 1 .448 1 1s-.448 1-1 1-1-.448-1-1 .448-1 1-1z" fill="#D80027"/><path d="m10 41h2v6h-2z" fill="#D80027"/><path d="m14 41h2v6h-2z" fill="#D80027"/><path d="m18 41h2v6h-2z" fill="#D80027"/><path d="m13 53c-1.654 0-3 1.346-3 3s1.346 3 3 3 3-1.346 3-3-1.346-3-3-3zm0 4c-.552 0-1-.448-1-1s.448-1 1-1 1 .448 1 1-.448 1-1 1z" fill="#D80027"/><path d="m30 53h2v6h-2z" fill="#D80027"/><path d="m26 53h2v6h-2z" fill="#D80027"/><path d="m22 53h2v6h-2z" fill="#D80027"/></svg>
