<svg width="50" height="50" viewBox="0 0 50 50" fill="none" xmlns="http://www.w3.org/2000/svg">
<g clip-path="url(#clip0)">
<path fill-rule="evenodd" clip-rule="evenodd" d="M23.3607 3.35278C16.46 3.35278 10.866 8.94686 10.866 15.8475C10.8735 22.7449 16.4632 28.3347 23.3607 28.3421C30.2613 28.3421 35.8553 22.7481 35.8553 15.8475C35.8553 8.94686 30.2613 3.35278 23.3607 3.35278ZM12.982 18.9345C11.276 13.2037 14.5387 7.17491 20.2695 5.46876C21.2727 5.17013 22.3139 5.01853 23.3607 5.01874C24.4061 5.01968 25.4459 5.17274 26.4474 5.47292C26.3942 5.50795 26.3405 5.54268 26.2868 5.57741C26.135 5.67563 25.9832 5.77381 25.8442 5.87858C25.5592 6.09318 25.4425 6.46542 25.5538 6.80433L25.9361 7.96842C25.7791 8.11648 25.6254 8.27017 25.4774 8.42719L24.3141 8.04485C23.9756 7.93542 23.6049 8.05151 23.3892 8.33441C22.7737 9.14271 22.2592 10.0231 21.8574 10.9562C21.7175 11.2844 21.8023 11.6652 22.0681 11.9031L22.9946 12.7329C22.9312 12.9403 22.875 13.1493 22.8254 13.3584L21.6182 13.6123C21.2328 13.6935 20.9569 14.0334 20.9568 14.4273V17.2679C20.9569 17.6618 21.2327 18.0018 21.6182 18.083L22.8254 18.3368C22.875 18.5459 22.9312 18.755 22.9937 18.9624L22.068 19.7921C21.8022 20.0301 21.7174 20.4108 21.8573 20.739C22.2591 21.6715 22.773 22.5516 23.3874 23.36C23.602 23.645 23.9743 23.7618 24.3132 23.6504L25.4773 23.2681C25.6253 23.4251 25.779 23.5788 25.936 23.7268L25.5537 24.8901C25.4427 25.2286 25.559 25.6002 25.8432 25.815C25.983 25.9206 26.136 26.0197 26.289 26.1188C26.3421 26.1531 26.3952 26.1875 26.4477 26.2221C20.7169 27.9281 14.6881 24.6654 12.982 18.9345ZM28.3796 25.434C28.0188 25.2499 27.668 25.0468 27.3287 24.8256L27.689 23.7291C27.7948 23.4066 27.6947 23.0522 27.436 22.8327C27.0517 22.5077 26.695 22.1512 26.3696 21.7671C26.1498 21.5093 25.7961 21.4098 25.4739 21.5149L24.3741 21.877C24.101 21.4757 23.855 21.0567 23.6379 20.6226L24.5116 19.8393C24.7645 19.6129 24.8549 19.2558 24.7402 18.9364C24.5694 18.4647 24.4385 17.9795 24.3489 17.4859C24.2886 17.1524 24.0322 16.8886 23.7005 16.8189L22.6226 16.5919V15.1033L23.7005 14.8763C24.0322 14.8066 24.2886 14.5428 24.3489 14.2093C24.4388 13.7152 24.5697 13.2296 24.7402 12.7572C24.8549 12.438 24.7644 12.0812 24.5116 11.8551L23.6379 11.0726C23.8552 10.6386 24.1012 10.2195 24.3741 9.81826L25.4747 10.1803C25.7971 10.2853 26.151 10.1854 26.371 9.92728C26.6961 9.54296 27.0525 9.18624 27.4366 8.86086C27.6947 8.64116 27.7944 8.28725 27.6888 7.9652L27.3284 6.86868C27.6679 6.64794 28.0186 6.44511 28.3791 6.26102C29.518 6.86233 30.541 7.66095 31.4008 8.61992C27.409 9.693 25.043 13.7989 26.116 17.7906C26.8091 20.3686 28.8228 22.3823 31.4008 23.0753C30.5414 24.0341 29.5184 24.8327 28.3796 25.434ZM27.5849 15.019C27.9526 12.4639 29.9598 10.4566 32.5149 10.089C34.7476 13.6033 34.7476 18.0916 32.5149 21.606C29.3345 21.1484 27.1273 18.1993 27.5849 15.019Z" fill="#D80027"/>
<path fill-rule="evenodd" clip-rule="evenodd" d="M44.3063 13.7965L45.3052 14.2374C45.6075 14.3703 45.8024 14.6694 45.8022 14.9994V16.6963C45.8024 17.0265 45.6074 17.3255 45.3052 17.4585L44.3063 17.8993C44.2721 18.0189 44.2363 18.136 44.1972 18.2508L44.7545 19.2115C44.9019 19.4662 44.904 19.7797 44.7602 20.0364C44.4543 20.5815 44.0897 21.0916 43.6727 21.5575C43.4711 21.7851 43.1609 21.8838 42.8649 21.8146L41.8147 21.5746C41.7268 21.642 41.6366 21.7088 41.5446 21.7738L41.4422 22.8908C41.4145 23.1862 41.232 23.4448 40.963 23.57C40.4017 23.8327 39.8121 24.0306 39.2059 24.1597C39.1497 24.1717 39.0924 24.1777 39.0351 24.1776C38.8003 24.1777 38.5764 24.0788 38.4185 23.9051L37.5073 22.9024C34.4507 29.1523 27.6346 32.6331 20.7796 31.4449L18.1805 34.6941C17.9023 35.0415 17.4 35.1089 17.04 34.847L15.3555 33.6219L5.68174 45.5277C5.3928 45.8824 4.87209 45.9384 4.51442 45.653L0.349528 42.321L0.346509 42.3185C-0.0115684 42.0284 -0.0666492 41.5028 0.22354 41.1448L9.68639 29.4988L7.87737 28.1832C7.69266 28.0497 7.57115 27.8462 7.54137 27.6203C7.51148 27.3949 7.57469 27.1671 7.71629 26.9891L9.94462 24.2038C9.66765 23.7616 9.41276 23.306 9.18088 22.8386C5.30055 15.0173 8.49534 5.53137 16.3165 1.65104C24.1376 -2.22929 33.6237 0.965395 37.504 8.78655L38.4235 7.7875C38.6218 7.57123 38.9196 7.47565 39.2068 7.53614C39.8126 7.66526 40.4019 7.86319 40.963 8.12589C41.2322 8.25105 41.4145 8.50958 41.4422 8.80508L41.5446 9.922C41.6366 9.98625 41.7268 10.053 41.8156 10.1213L42.8649 9.88129C43.1609 9.81257 43.4708 9.91118 43.6727 10.1384C44.0901 10.6043 44.4551 11.1147 44.7611 11.6603C44.9042 11.917 44.9017 12.23 44.7545 12.4844L44.1972 13.4451C44.2363 13.5598 44.2721 13.677 44.3063 13.7965ZM2.04568 41.5442L4.90988 43.8357L14.0059 32.6409L11.036 30.4803L2.04568 41.5442ZM17.376 33.0322L18.9683 31.0415C15.7932 30.1177 12.9864 28.2243 10.9408 25.6263L9.56197 27.3487L17.376 33.0322ZM9.20004 15.8479C9.20004 23.6687 15.5399 30.0086 23.3607 30.0086C31.1814 30.0086 37.5213 23.6687 37.5213 15.8479C37.5213 8.02718 31.1814 1.68728 23.3607 1.68728C15.5436 1.69602 9.20878 8.03083 9.20004 15.8479ZM43.2635 16.5386L44.1363 16.1538L44.1364 15.5419L43.2636 15.1572C43.0223 15.0511 42.8457 14.8368 42.7877 14.5796C42.72 14.2747 42.6269 13.9759 42.5095 13.6864C42.4103 13.4469 42.4283 13.1747 42.5584 12.9503L43.066 12.075C42.964 11.9197 42.8552 11.7676 42.7397 11.6187L41.788 11.8367C41.5266 11.8976 41.2519 11.8282 41.051 11.6504C40.821 11.4479 40.5741 11.2654 40.3132 11.1046C40.091 10.9669 39.9461 10.7329 39.9219 10.4726L39.8284 9.45335C39.6575 9.38744 39.4851 9.32892 39.3142 9.27926L38.2238 10.4632C39.5066 13.9332 39.5085 17.7472 38.2291 21.2186L39.3166 22.4158C39.4877 22.3662 39.6582 22.3084 39.8283 22.2425L39.9218 21.2232C39.9459 20.9632 40.0905 20.7297 40.3122 20.5919C40.5733 20.4307 40.8203 20.2478 41.0509 20.0453C41.2516 19.8672 41.5265 19.7977 41.7879 19.859L42.7396 20.0771C42.8554 19.9282 42.9641 19.776 43.0659 19.6207L42.5583 18.7454C42.4282 18.5211 42.4101 18.2489 42.5094 18.0093C42.6268 17.7198 42.7199 17.4211 42.7876 17.1161C42.8455 16.8589 43.0221 16.6447 43.2635 16.5386Z" fill="#D80027"/>
<path fill-rule="evenodd" clip-rule="evenodd" d="M36.6885 40.8369C36.6885 38.5367 38.5532 36.672 40.8534 36.672C43.1525 36.6747 45.0156 38.5379 45.0183 40.8369C45.0183 43.1371 43.1535 45.0018 40.8534 45.0018C38.5532 45.0018 36.6885 43.1371 36.6885 40.8369ZM38.3544 40.8369C38.3544 42.217 39.4732 43.3358 40.8534 43.3358C42.2329 43.3344 43.3507 42.2164 43.3523 40.8369C43.3523 39.4567 42.2335 38.338 40.8534 38.338C39.4732 38.338 38.3544 39.4567 38.3544 40.8369Z" fill="#D80027"/>
<path fill-rule="evenodd" clip-rule="evenodd" d="M48.3154 38.6244L49.4656 39.132C49.7678 39.265 49.9628 39.5641 49.9625 39.8942V41.7799C49.9627 42.11 49.7677 42.4091 49.4655 42.542L48.3153 43.0496C48.2706 43.2107 48.2218 43.3653 48.1697 43.5158L48.8107 44.6204C48.9579 44.8751 48.9604 45.1883 48.8172 45.4453C48.48 46.0457 48.0779 46.6075 47.6182 47.1202C47.4168 47.347 47.1074 47.4454 46.812 47.3764L45.6016 47.0999C45.4828 47.1929 45.3608 47.2829 45.2355 47.37L45.1184 48.6536C45.0915 48.9497 44.9086 49.2091 44.6385 49.3336C44.021 49.6222 43.373 49.8396 42.7065 49.982C42.6503 49.994 42.593 50 42.5356 49.9999C42.293 50.0001 42.0625 49.8943 41.9043 49.7103L41.0567 48.7261H40.65L39.8023 49.7103C39.6049 49.9409 39.2972 50.0451 39.0003 49.982C38.3338 49.8396 37.6857 49.622 37.0683 49.3336C36.7983 49.2091 36.6152 48.9498 36.5884 48.6536L36.4712 47.37C36.346 47.2829 36.2232 47.1926 36.1044 47.0991L34.8957 47.3764C34.6 47.4454 34.2904 47.347 34.0887 47.1202C33.6289 46.6074 33.2268 46.0457 32.8896 45.4453C32.7465 45.1883 32.749 44.875 32.8962 44.6204L33.5372 43.5157C33.4851 43.3651 33.4364 43.2106 33.3916 43.0495L32.2414 42.5419C31.9392 42.409 31.7442 42.1099 31.7444 41.7797V39.8942C31.7442 39.564 31.9392 39.265 32.2414 39.132L33.3916 38.6244C33.4366 38.4636 33.4851 38.308 33.5372 38.1575L32.897 37.0536C32.7498 36.7992 32.7474 36.4863 32.8906 36.2296C33.2271 35.6286 33.6289 35.0665 34.0888 34.5538C34.2905 34.3275 34.5995 34.2292 34.8949 34.2976L36.1053 34.5742C36.2241 34.4811 36.3462 34.3911 36.4714 34.3041L36.5886 33.0204C36.6154 32.7243 36.7984 32.4649 37.0685 32.3404C37.6859 32.0519 38.3341 31.8345 39.0005 31.692C39.2974 31.6277 39.6057 31.7321 39.8025 31.9637L40.6502 32.948H41.0569L41.9045 31.9637C42.1019 31.733 42.4096 31.6287 42.7066 31.692C43.3731 31.8345 44.0211 32.052 44.6386 32.3404C44.9086 32.4649 45.0916 32.7242 45.1185 33.0204L45.2356 34.3041C45.3609 34.3914 45.4829 34.4814 45.6017 34.5742L46.8121 34.2976C47.1075 34.2288 47.4168 34.3272 47.6183 34.5538C48.0781 35.0667 48.4802 35.6283 48.8173 36.2288C48.9605 36.4857 48.958 36.7989 48.8108 37.0536L48.1698 38.1583C48.2219 38.3088 48.2706 38.4633 48.3154 38.6244ZM46.7951 42.2671C46.853 42.01 47.0296 41.7957 47.2709 41.6896L48.2967 41.2373V40.4368L47.2709 39.9845C47.0297 39.8784 46.8531 39.6641 46.7951 39.4069C46.719 39.0638 46.6139 38.7277 46.481 38.4023C46.3817 38.1621 46.3998 37.8895 46.5299 37.6645L47.1228 36.6428C46.9886 36.4339 46.8438 36.2312 46.6884 36.0343L45.5724 36.2897C45.3112 36.3499 45.037 36.2802 44.8362 36.1026C44.5767 35.875 44.2987 35.6695 44.0049 35.4885C43.7821 35.3508 43.6368 35.1164 43.6128 34.8556L43.5046 33.6663C43.2809 33.5784 43.0563 33.5019 42.8327 33.4385L42.0697 34.3244C41.9113 34.508 41.6809 34.6138 41.4384 34.6139H40.2687C40.0261 34.6138 39.7956 34.5081 39.6374 34.3244L38.8744 33.4385C38.6507 33.502 38.4261 33.5784 38.2025 33.6663L38.0943 34.8556C38.0702 35.1164 37.925 35.3508 37.7022 35.4885C37.4083 35.6695 37.1303 35.875 36.8709 36.1026C36.6701 36.2801 36.396 36.3498 36.1347 36.2897L35.0186 36.0343C34.8633 36.2312 34.7184 36.4345 34.5851 36.6419L35.1773 37.6637C35.3075 37.8884 35.3255 38.1608 35.2261 38.4007C35.0934 38.7267 34.9883 39.0633 34.9121 39.4069C34.8542 39.6641 34.6776 39.8784 34.4363 39.9845L33.4104 40.4368V41.2373L34.4363 41.6896C34.6775 41.7957 34.8541 42.01 34.9121 42.2671C34.9882 42.6102 35.0933 42.9463 35.2261 43.2717C35.3255 43.5119 35.3074 43.7845 35.1773 44.0095L34.5843 45.0313C34.7185 45.2395 34.8634 45.4429 35.0187 45.6389L36.134 45.3835C36.3958 45.3237 36.6704 45.3936 36.8718 45.5715C37.1308 45.7992 37.4086 46.0047 37.7024 46.1856C37.9253 46.3232 38.0704 46.5576 38.0945 46.8184L38.2027 48.0077C38.4263 48.0956 38.6509 48.1721 38.8746 48.2355L39.6376 47.3497C39.7959 47.166 40.0263 47.0602 40.2688 47.0601H41.4385C41.681 47.0602 41.9114 47.1659 42.0697 47.3497L42.8327 48.2355C43.0563 48.172 43.2809 48.0956 43.5046 48.0077L43.6128 46.8184C43.6368 46.5576 43.7821 46.3232 44.0049 46.1856C44.2987 46.0045 44.5767 45.7991 44.8362 45.5715C45.0365 45.3931 45.3111 45.3233 45.5724 45.3844L46.6884 45.6398C46.8438 45.4424 46.9886 45.2395 47.1228 45.0313L46.5299 44.0095C46.3997 43.7845 46.3817 43.5118 46.481 43.2717C46.6139 42.9463 46.719 42.6102 46.7951 42.2671Z" fill="#D80027"/>
</g>
<defs>
<clipPath id="clip0">
<rect width="50" height="50" fill="white"/>
</clipPath>
</defs>
</svg>
