<svg width="17" height="17" viewBox="0 0 17 17" fill="none" xmlns="http://www.w3.org/2000/svg">
<path fill-rule="evenodd" clip-rule="evenodd" d="M1.20783 0.957825C1.66104 0.504612 2.27573 0.25 2.91667 0.25H12.0833C12.2822 0.25 12.473 0.329018 12.6137 0.46967L16.7803 4.63634C16.921 4.77699 17 4.96775 17 5.16667V14.3333C17 14.9743 16.7454 15.589 16.2922 16.0422C15.839 16.4954 15.2243 16.75 14.5833 16.75H2.91667C2.27573 16.75 1.66104 16.4954 1.20783 16.0422C0.754612 15.589 0.5 14.9743 0.5 14.3333V2.66667C0.5 2.02573 0.754612 1.41104 1.20783 0.957825ZM2.26849 2.01849C2.44039 1.84658 2.67355 1.75 2.91667 1.75H3.83333V5.16667C3.83333 5.58088 4.16912 5.91667 4.58333 5.91667H11.25C11.6642 5.91667 12 5.58088 12 5.16667C12 4.75245 11.6642 4.41667 11.25 4.41667H5.33333V1.75H11.7727L15.5 5.47733V14.3333C15.5 14.5764 15.4034 14.8096 15.2315 14.9815C15.0596 15.1534 14.8264 15.25 14.5833 15.25H13.6667V9.33333C13.6667 8.91912 13.3309 8.58333 12.9167 8.58333H4.58333C4.16912 8.58333 3.83333 8.91912 3.83333 9.33333V15.25H2.91667C2.67355 15.25 2.44039 15.1534 2.26849 14.9815C2.09658 14.8096 2 14.5764 2 14.3333V2.66667C2 2.42355 2.09658 2.19039 2.26849 2.01849ZM12.1667 10.0833V15.25H5.33333V10.0833H12.1667Z" fill="#F0F0F0"/>
</svg>
