<svg width="17" height="17" viewBox="0 0 17 17" fill="none" xmlns="http://www.w3.org/2000/svg">
<path fill-rule="evenodd" clip-rule="evenodd" d="M0.781048 0.781048C1.28115 0.280951 1.95942 0 2.66667 0H11.8333C12.0985 0 12.3529 0.105357 12.5404 0.292893L16.7071 4.45956C16.8946 4.6471 17 4.90145 17 5.16667V14.3333C17 15.0406 16.719 15.7189 16.219 16.219C15.7189 16.719 15.0406 17 14.3333 17H2.66667C1.95942 17 1.28114 16.719 0.781048 16.219C0.280952 15.7189 0 15.0406 0 14.3333V2.66667C0 1.95942 0.280951 1.28115 0.781048 0.781048ZM2.19526 2.19526C2.32029 2.07024 2.48986 2 2.66667 2H3.33333V5.16667C3.33333 5.71895 3.78105 6.16667 4.33333 6.16667H11C11.5523 6.16667 12 5.71895 12 5.16667C12 4.61438 11.5523 4.16667 11 4.16667H5.33333V2H11.4191L15 5.58088V14.3333C15 14.5101 14.9298 14.6797 14.8047 14.8047C14.6797 14.9298 14.5101 15 14.3333 15H13.6667V9.33333C13.6667 8.78105 13.219 8.33333 12.6667 8.33333H4.33333C3.78105 8.33333 3.33333 8.78105 3.33333 9.33333V15H2.66667C2.48986 15 2.32029 14.9298 2.19526 14.8047C2.07024 14.6797 2 14.5101 2 14.3333V2.66667C2 2.48986 2.07024 2.32029 2.19526 2.19526ZM11.6667 10.3333V15H5.33333V10.3333H11.6667Z" fill="#F0F0F0"/>
</svg>
