<svg width="20" height="19" viewBox="0 0 20 19" fill="none" xmlns="http://www.w3.org/2000/svg">
<path d="M9.77738 0.463525C9.92705 0.00286976 10.5788 0.0028701 10.7284 0.463525L12.6228 6.29383C12.6898 6.49984 12.8817 6.63932 13.0983 6.63932H19.2287C19.713 6.63932 19.9144 7.25913 19.5226 7.54383L14.563 11.1472C14.3878 11.2745 14.3145 11.5002 14.3814 11.7062L16.2758 17.5365C16.4254 17.9971 15.8982 18.3802 15.5064 18.0955L10.5468 14.4922C10.3716 14.3648 10.1343 14.3648 9.95901 14.4922L4.99946 18.0955C4.6076 18.3802 4.08036 17.9971 4.23004 17.5365L6.12442 11.7062C6.19136 11.5002 6.11803 11.2745 5.94278 11.1472L0.98323 7.54383C0.591373 7.25913 0.792761 6.63932 1.27712 6.63932H7.40747C7.62408 6.63932 7.81606 6.49984 7.883 6.29383L9.77738 0.463525Z" fill="#FA850B"/>
<path d="M9.77738 0.463525C9.92705 0.00286976 10.5788 0.0028701 10.7284 0.463525L12.6228 6.29383C12.6898 6.49984 12.8817 6.63932 13.0983 6.63932H19.2287C19.713 6.63932 19.9144 7.25913 19.5226 7.54383L14.563 11.1472C14.3878 11.2745 14.3145 11.5002 14.3814 11.7062L16.2758 17.5365C16.4254 17.9971 15.8982 18.3802 15.5064 18.0955L10.5468 14.4922C10.3716 14.3648 10.1343 14.3648 9.95901 14.4922L4.99946 18.0955C4.6076 18.3802 4.08036 17.9971 4.23004 17.5365L6.12442 11.7062C6.19136 11.5002 6.11803 11.2745 5.94278 11.1472L0.98323 7.54383C0.591373 7.25913 0.792761 6.63932 1.27712 6.63932H7.40747C7.62408 6.63932 7.81606 6.49984 7.883 6.29383L9.77738 0.463525Z" fill="#FEBE10"/>
</svg>
