<svg width="13" height="13" viewBox="0 0 13 13" fill="none" xmlns="http://www.w3.org/2000/svg">
<g clip-path="url(#clip0)">
<path d="M2.275 3.25C2.01641 3.25 1.76842 3.14728 1.58557 2.96443C1.40272 2.78158 1.3 2.53359 1.3 2.275C1.3 2.01641 1.40272 1.76842 1.58557 1.58557C1.76842 1.40272 2.01641 1.3 2.275 1.3C2.53359 1.3 2.78158 1.40272 2.96443 1.58557C3.14728 1.76842 3.25 2.01641 3.25 2.275C3.25 2.53359 3.14728 2.78158 2.96443 2.96443C2.78158 3.14728 2.53359 3.25 2.275 3.25V3.25ZM12.6165 6.227L6.7665 0.377C6.5325 0.143 6.2075 0 5.85 0H1.3C0.5785 0 0 0.5785 0 1.3V5.85C0 6.2075 0.143 6.5325 0.3835 6.7665L6.227 12.6165C6.4675 12.8505 6.7925 13 7.15 13C7.5075 13 7.8325 12.8505 8.0665 12.6165L12.6165 8.0665C12.857 7.8325 13 7.5075 13 7.15C13 6.786 12.8505 6.461 12.6165 6.227Z" fill="#8A8A8A"/>
</g>
<defs>
<clipPath id="clip0">
<rect width="13" height="13" fill="white"/>
</clipPath>
</defs>
</svg>
