<svg width="20" height="20" viewBox="0 0 170 170" fill="none" xmlns="http://www.w3.org/2000/svg">
<g clip-path="url(#clip0)">
<path d="M44.859 63.436L5.66835 24.2453C4.37144 22.9494 2.26935 22.9491 0.972437 24.2453C-0.324145 25.5419 -0.324145 27.6443 0.972437 28.9413L39.1889 67.1571L39.1823 71.7328C39.1796 73.5666 40.6641 75.0554 42.4976 75.0581H42.5026C44.3341 75.0581 45.8202 73.5746 45.8229 71.7427L45.8315 65.7888C45.8328 64.9066 45.4829 64.0599 44.859 63.436Z" fill="#121c42"/>
<path d="M74.9968 39.1778H74.9918L67.1576 39.1887L28.9421 0.972599C27.6455 -0.323651 25.5431 -0.323651 24.2462 0.972599C22.9496 2.26918 22.9496 4.3716 24.2462 5.66852L63.4368 44.8588C64.0597 45.4814 64.9041 45.8313 65.7846 45.8313H65.7893L75.0015 45.8184C76.8353 45.8157 78.3198 44.3272 78.3171 42.4934C78.3145 40.661 76.8286 39.1778 74.9968 39.1778Z" fill="#121c42"/>
<path d="M145.755 0.972852C145.138 0.355273 144.281 0 143.408 0C142.535 0 141.678 0.354941 141.06 0.972852C140.443 1.59076 140.087 2.44707 140.087 3.32031C140.087 4.19355 140.443 5.0502 141.06 5.66744C141.678 6.28535 142.535 6.64062 143.408 6.64062C144.281 6.64062 145.138 6.28535 145.755 5.66744C146.373 5.0502 146.728 4.19355 146.728 3.32031C146.728 2.44707 146.373 1.59043 145.755 0.972852Z" fill="#121c42"/>
<path d="M136.03 10.6969C134.734 9.40068 132.631 9.40068 131.335 10.6969L102.843 39.1889L98.2666 39.1822C98.2503 39.1822 98.235 39.1822 98.2191 39.1822C89.4349 39.1822 81.1776 42.6021 74.965 48.8144L71.981 51.7991C70.6844 53.096 70.6844 55.1981 71.981 56.495C72.6294 57.1431 73.4791 57.4675 74.3288 57.4675C75.1784 57.4675 76.0284 57.1431 76.6766 56.495L79.6609 53.5104C84.6194 48.5518 91.2086 45.8232 98.2194 45.8232C98.232 45.8232 98.245 45.8232 98.2573 45.8232L104.211 45.8315H104.216C105.096 45.8315 105.941 45.4815 106.564 44.859L136.03 15.3928C137.327 14.0963 137.327 11.9938 136.03 10.6969Z" fill="#121c42"/>
<path d="M169.029 24.2447C167.732 22.9485 165.63 22.9485 164.333 24.2447L125.142 63.4357C124.519 64.0596 124.169 64.9059 124.17 65.7885L124.183 75.0007C124.186 76.8328 125.672 78.316 127.504 78.316H127.508C129.342 78.3133 130.827 76.8248 130.824 74.9907L130.813 67.1564L169.029 28.9406C170.325 27.644 170.325 25.5416 169.029 24.2447Z" fill="#121c42"/>
<path d="M169.028 141.059L130.812 102.843L130.818 98.2669C130.825 93.9043 129.98 89.6497 128.309 85.6205C127.606 83.9264 125.663 83.1233 123.97 83.8255C122.276 84.5281 121.472 86.4708 122.175 88.1645C123.509 91.3802 124.182 94.7759 124.177 98.2572L124.169 104.211C124.167 105.093 124.517 105.94 125.141 106.564L164.332 145.755C164.981 146.403 165.83 146.727 166.68 146.727C167.53 146.727 168.38 146.403 169.028 145.755C170.324 144.458 170.325 142.356 169.028 141.059Z" fill="#121c42"/>
<path d="M145.755 164.332L106.565 125.141C105.942 124.519 105.097 124.169 104.217 124.169H104.212L94.9999 124.182C93.1661 124.185 91.6816 125.673 91.6842 127.507C91.6869 129.339 93.1727 130.823 95.0045 130.823H95.0095L102.844 130.812L141.06 169.028C141.708 169.676 142.558 170 143.408 170C144.257 170 145.107 169.676 145.755 169.028C147.052 167.731 147.052 165.629 145.755 164.332Z" fill="#121c42"/>
<path d="M28.9415 164.332C28.3239 163.714 27.4673 163.359 26.594 163.359C25.7208 163.359 24.8641 163.714 24.2465 164.332C23.629 164.95 23.2737 165.806 23.2737 166.68C23.2737 167.553 23.629 168.41 24.2465 169.027C24.8641 169.644 25.7208 170 26.594 170C27.4673 170 28.3239 169.645 28.9415 169.027C29.5624 168.41 29.9143 167.553 29.9143 166.68C29.9143 165.806 29.5624 164.95 28.9415 164.332Z" fill="#121c42"/>
<path d="M118.745 84.246C117.992 83.493 117.141 82.898 116.233 82.4561C117.01 81.0748 117.425 79.5119 117.425 77.8843C117.425 75.3858 116.452 73.0367 114.685 71.2696C113.886 70.4707 112.977 69.8468 112.007 69.3979C113.681 65.9163 113.08 61.6048 110.197 58.7218C107.315 55.8401 103.005 55.2375 99.5238 56.9102C99.0672 55.9278 98.438 55.022 97.6491 54.2331C94.0014 50.586 88.0673 50.5867 84.42 54.2331L71.1636 67.4898C70.9106 64.8026 69.5237 62.2453 67.1663 60.5948C65.0609 59.1206 62.5099 58.5681 59.9831 59.0402C57.4564 59.5124 55.2769 60.9477 53.8452 63.0824L44.7499 76.6459C41.0952 82.0961 39.1681 88.4459 39.1774 95.0088L39.1887 102.843L0.972556 141.059C-0.324026 142.356 -0.324026 144.458 0.972556 145.755C1.62068 146.403 2.47068 146.728 3.32035 146.728C4.17002 146.728 5.02002 146.403 5.66814 145.755L44.8588 106.565C45.4823 105.941 45.8326 105.094 45.8313 104.212L45.818 94.9999C45.8107 89.7624 47.3484 84.6946 50.2656 80.3447L59.3606 66.7812C59.7902 66.1407 60.4443 65.7101 61.2024 65.5686C61.9601 65.4272 62.7261 65.5925 63.3576 66.0348C64.5818 66.8921 64.9337 68.5645 64.1591 69.8425L60.605 75.7049C59.4841 77.5536 59.9054 79.8642 61.6064 81.199C63.3074 82.5338 65.6522 82.3923 67.1813 80.8636L89.1156 58.929C90.1737 57.8705 91.8953 57.8708 92.9535 58.929C93.4658 59.4416 93.7484 60.123 93.7484 60.8478C93.7484 61.4631 93.5432 62.0454 93.1683 62.5216L80.1879 75.5322C78.8913 76.8288 78.8913 78.9312 80.1879 80.2281C81.4845 81.5244 83.5869 81.5244 84.8838 80.2281L101.664 63.4177C102.722 62.3595 104.444 62.3595 105.502 63.4174C106.56 64.4759 106.56 66.1972 105.502 67.2553L88.7065 84.0508C87.4099 85.3474 87.4099 87.4498 88.7065 88.7467C89.355 89.3949 90.2046 89.7193 91.0543 89.7193C91.904 89.7193 92.754 89.3949 93.4021 88.7467L106.398 75.7507C107.462 74.9153 109.01 74.9854 109.99 75.9655C110.503 76.4782 110.785 77.1595 110.785 77.8843C110.785 78.6091 110.503 79.2901 109.99 79.8028L97.2244 92.5684C95.9278 93.865 95.9278 95.9674 97.2244 97.2643C97.8729 97.9125 98.7226 98.2368 99.5722 98.2368C100.422 98.2368 101.272 97.9125 101.92 97.2643L110.457 88.7278C111.521 87.8907 113.07 87.9611 114.05 88.942C114.563 89.4543 114.845 90.1359 114.845 90.8608C114.845 91.5856 114.563 92.2669 114.05 92.7792L90.3398 116.49C85.3812 121.448 78.792 124.177 71.7812 124.177C71.7686 124.177 71.7556 124.177 71.7434 124.177L65.7894 124.169H65.7847C64.9042 124.169 64.0595 124.519 63.4369 125.141L32.5872 155.991C31.2907 157.288 31.2907 159.39 32.5872 160.687C33.2357 161.335 34.0854 161.659 34.935 161.659C35.7847 161.659 36.6347 161.335 37.2828 160.687L67.158 130.811L71.7341 130.818C71.7503 130.818 71.7656 130.818 71.7815 130.818C80.5658 130.818 88.823 127.398 95.0357 121.186L118.745 97.4752C122.392 93.8281 122.392 87.8934 118.745 84.246Z" fill="#121c42"/>
</g>
<defs>
<clipPath id="clip0">
<rect width="170" height="170" fill="white"/>
</clipPath>
</defs>
</svg>
