<svg width="16" height="16" viewBox="0 0 16 16" fill="none" xmlns="http://www.w3.org/2000/svg">
<path d="M5.6512 8C5.49707 8 5.37213 8.12494 5.37213 8.27907C5.37213 8.4332 5.49707 8.55814 5.6512 8.55814H8.58143C8.73555 8.55814 8.8605 8.4332 8.8605 8.27907C8.8605 8.12494 8.73555 8 8.58143 8H5.6512Z" fill="black"/>
<path d="M5.37211 9.81395C5.37211 9.65983 5.49705 9.53488 5.65118 9.53488H9.83723C9.99135 9.53488 10.1163 9.65983 10.1163 9.81395C10.1163 9.96808 9.99135 10.093 9.83723 10.093H5.65118C5.49705 10.093 5.37211 9.96808 5.37211 9.81395Z" fill="black"/>
<path d="M5.65118 11.0698C5.49705 11.0698 5.37211 11.1947 5.37211 11.3488C5.37211 11.503 5.49705 11.6279 5.65118 11.6279H9.83723C9.99135 11.6279 10.1163 11.503 10.1163 11.3488C10.1163 11.1947 9.99135 11.0698 9.83723 11.0698H5.65118Z" fill="black"/>
<path fill-rule="evenodd" clip-rule="evenodd" d="M9.2456 2C9.32363 2 9.39892 2.03479 9.45384 2.09274L12.4045 5.19418C12.4537 5.2493 12.4884 5.32172 12.4884 5.39706V12.426C12.4884 13.2898 11.7768 14 10.9147 14H4.57369C3.7116 14 3 13.2898 3 12.426V3.57388C3 2.71017 3.7116 2 4.57369 2H9.2456ZM11.5135 5.10144L9.53772 3.02319V4.41159C9.53772 4.79419 9.84728 5.10144 10.2291 5.10144H11.5135ZM4.57369 13.4203H10.9147C11.4585 13.4203 11.9098 12.971 11.9098 12.426V5.68115H10.2291C9.5262 5.68115 8.95915 5.11591 8.95915 4.41159V2.57971H4.57369C4.02985 2.57971 3.57856 3.03189 3.57856 3.57388V12.426C3.57856 12.971 4.03277 13.4203 4.57369 13.4203Z" fill="black"/>
</svg>
