<svg height="20px" viewBox="0 0 16 14" fill="none" xmlns="http://www.w3.org/2000/svg">
<path d="M16 2.03916C15.4111 2.3001 14.7793 2.47707 14.1154 2.55607C14.7932 2.15014 15.3122 1.50627 15.5581 0.741412C14.9222 1.11733 14.2203 1.3903 13.4725 1.53827C12.8736 0.899398 12.0217 0.501465 11.0769 0.501465C9.26426 0.501465 7.79453 1.97119 7.79453 3.78284C7.79453 4.03978 7.82352 4.29074 7.87952 4.53071C5.15205 4.39372 2.73351 3.08698 1.11482 1.10133C0.831863 1.58525 0.670895 2.14912 0.670895 2.75103C0.670895 3.88982 1.25079 4.89463 2.13063 5.4825C1.59273 5.46451 1.08682 5.31654 0.643915 5.07058V5.11157C0.643915 6.70127 1.77571 8.02801 3.27641 8.32997C3.00146 8.40396 2.71152 8.44495 2.41158 8.44495C2.19963 8.44495 1.99466 8.42396 1.79369 8.38396C2.2116 9.68871 3.42339 10.6375 4.85913 10.6635C3.73633 11.5434 2.32059 12.0663 0.782895 12.0663C0.517954 12.0663 0.256987 12.0503 4.57764e-05 12.0213C1.45278 12.9541 3.17746 13.498 5.0311 13.498C11.069 13.498 14.3694 8.49695 14.3694 4.15978L14.3583 3.73487C15.0032 3.27492 15.5611 2.69704 16 2.03916Z" fill="#6A6A6A"/>
</svg>
