<svg width="21" height="21" viewBox="0 0 21 21" fill="none" xmlns="http://www.w3.org/2000/svg">
<g clip-path="url(#clip0)">
<path fill-rule="evenodd" clip-rule="evenodd" d="M8.49829 2.33301C6.1971 2.33301 4.33162 4.19849 4.33162 6.49967C4.33162 8.80086 6.1971 10.6663 8.49829 10.6663C10.7995 10.6663 12.665 8.80086 12.665 6.49967C12.665 4.19849 10.7995 2.33301 8.49829 2.33301ZM5.99829 6.49967C5.99829 5.11896 7.11758 3.99967 8.49829 3.99967C9.879 3.99967 10.9983 5.11896 10.9983 6.49967C10.9983 7.88039 9.879 8.99967 8.49829 8.99967C7.11758 8.99967 5.99829 7.88039 5.99829 6.49967Z" fill="#FA850B"/>
<path d="M5.16496 12.333C4.05989 12.333 3.00008 12.772 2.21868 13.5534C1.43728 14.3348 0.998291 15.3946 0.998291 16.4997V18.1663C0.998291 18.6266 1.37139 18.9997 1.83162 18.9997C2.29186 18.9997 2.66496 18.6266 2.66496 18.1663V16.4997C2.66496 15.8366 2.92835 15.2008 3.39719 14.7319C3.86603 14.2631 4.50192 13.9997 5.16496 13.9997H11.8316C12.4947 13.9997 13.1305 14.2631 13.5994 14.7319C14.0682 15.2008 14.3316 15.8366 14.3316 16.4997V18.1663C14.3316 18.6266 14.7047 18.9997 15.165 18.9997C15.6252 18.9997 15.9983 18.6266 15.9983 18.1663V16.4997C15.9983 15.3946 15.5593 14.3348 14.7779 13.5534C13.9965 12.772 12.9367 12.333 11.8316 12.333H5.16496Z" fill="#FA850B"/>
<path d="M16.8581 13.0662C16.9731 12.6206 17.4277 12.3526 17.8733 12.4677C18.7672 12.6985 19.5591 13.2196 20.1247 13.9493C20.6903 14.6789 20.9976 15.5758 20.9983 16.499V18.1662C20.9983 18.6265 20.6252 18.9996 20.165 18.9996C19.7047 18.9996 19.3316 18.6265 19.3316 18.1662V16.5002C19.3312 15.9464 19.1468 15.4081 18.8075 14.9704C18.4681 14.5326 17.993 14.2199 17.4566 14.0814C17.011 13.9664 16.743 13.5119 16.8581 13.0662Z" fill="#FA850B"/>
<path d="M14.5383 2.46729C14.0925 2.35313 13.6385 2.62202 13.5243 3.06788C13.4102 3.51373 13.6791 3.96771 14.1249 4.08187C14.6627 4.21956 15.1393 4.53231 15.4797 4.97081C15.8201 5.40932 16.0048 5.94864 16.0048 6.50374C16.0048 7.05885 15.8201 7.59817 15.4797 8.03667C15.1393 8.47518 14.6627 8.78793 14.1249 8.92562C13.6791 9.03978 13.4102 9.49375 13.5243 9.93961C13.6385 10.3855 14.0925 10.6544 14.5383 10.5402C15.4346 10.3107 16.229 9.78947 16.7963 9.05863C17.3636 8.32779 17.6715 7.42892 17.6715 6.50374C17.6715 5.57857 17.3636 4.6797 16.7963 3.94886C16.229 3.21802 15.4346 2.69677 14.5383 2.46729Z" fill="#FA850B"/>
</g>
<defs>
<clipPath id="clip0">
<rect x="0.998291" y="0.666504" width="20" height="20" fill="white"/>
</clipPath>
</defs>
</svg>
