<svg width="23" height="24" viewBox="0 0 23 24" fill="none" xmlns="http://www.w3.org/2000/svg">
<path fill-rule="evenodd" clip-rule="evenodd" d="M11.3003 0C7.98661 0 5.3003 2.68631 5.3003 6.00004C5.3003 9.31377 7.98661 12.0001 11.3003 12.0001C14.6141 12.0001 17.3004 9.31377 17.3004 6.00004C17.3004 2.68631 14.6141 0 11.3003 0ZM7.70031 6.00004C7.70031 4.0118 9.3121 2.40002 11.3003 2.40002C13.2886 2.40002 14.9004 4.0118 14.9004 6.00004C14.9004 7.98828 13.2886 9.60006 11.3003 9.60006C9.3121 9.60006 7.70031 7.98828 7.70031 6.00004Z" fill="white"/>
<path d="M6.50004 14.3999C4.90873 14.3999 3.3826 15.0321 2.25737 16.1573C1.13215 17.2825 0.5 18.8087 0.5 20.4V22.8C0.5 23.4627 1.03726 24 1.70001 24C2.36275 24 2.90002 23.4627 2.90002 22.8V20.4C2.90002 19.4452 3.2793 18.5295 3.95444 17.8544C4.62957 17.1792 5.54526 16.8 6.50004 16.8H16.1001C17.0549 16.8 17.9706 17.1792 18.6457 17.8544C19.3208 18.5295 19.7001 19.4452 19.7001 20.4V22.8C19.7001 23.4627 20.2374 24 20.9001 24C21.5629 24 22.1001 23.4627 22.1001 22.8V20.4C22.1001 18.8087 21.468 17.2825 20.3428 16.1573C19.2175 15.0321 17.6914 14.3999 16.1001 14.3999H6.50004Z" fill="white"/>
</svg>
