<svg width="16" height="16" viewBox="0 0 16 16" fill="none" xmlns="http://www.w3.org/2000/svg">
<path d="M13.8755 4.67442C13.7982 4.62864 13.7027 4.62685 13.6238 4.66986L10.8705 6.17323V5.27119C10.8697 4.56945 10.301 4.00079 9.59931 4H3.27119C2.56945 4.00079 2.00079 4.56945 2 5.27119V10.2904C2.00079 10.9921 2.56945 11.5608 3.27119 11.5616H9.59931C10.301 11.5608 10.8697 10.9921 10.8705 10.2904V9.40473L13.6239 10.9081C13.7027 10.9511 13.7983 10.9494 13.8755 10.9036C13.9527 10.8578 14 10.7746 14 10.685V4.89301C14 4.80323 13.9526 4.72021 13.8755 4.67442ZM10.3618 10.2905C10.3614 10.7116 10.0202 11.0527 9.59911 11.0532H3.27119C2.85011 11.0527 2.50897 10.7116 2.50847 10.2905V5.27119C2.50897 4.85021 2.85011 4.50897 3.27119 4.50847H9.59931C10.0203 4.50897 10.3615 4.85021 10.362 5.27119L10.3618 10.2905ZM13.4915 10.2565L10.8705 8.82544V6.75252L13.4915 5.32154V10.2565Z" fill="black"/>
</svg>
