<svg width="16" height="16" viewBox="0 0 16 16" fill="none" xmlns="http://www.w3.org/2000/svg">
<path fill-rule="evenodd" clip-rule="evenodd" d="M10.5 7.02841V5.5C10.5 4.67157 9.82843 4 9 4H3.5C2.67157 4 2 4.67157 2 5.5V10.5C2 11.3284 2.67157 12 3.5 12H9C9.82843 12 10.5 11.3284 10.5 10.5V8.97159L13.2094 10.9069C13.3618 11.0157 13.5623 11.0303 13.7288 10.9446C13.8953 10.8589 14 10.6873 14 10.5V5.5C14 5.31271 13.8953 5.14112 13.7288 5.05542C13.5623 4.96971 13.3618 4.98427 13.2094 5.09313L10.5 7.02841ZM3 5.5C3 5.22386 3.22386 5 3.5 5H9C9.27614 5 9.5 5.22386 9.5 5.5V10.5C9.5 10.7761 9.27614 11 9 11H3.5C3.22386 11 3 10.7761 3 10.5V5.5ZM13 9.52841L10.8602 8L13 6.47159V9.52841Z" fill="#2A2A2A"/>
<path fill-rule="evenodd" clip-rule="evenodd" d="M10.5 7.02841V5.5C10.5 4.67157 9.82843 4 9 4H3.5C2.67157 4 2 4.67157 2 5.5V10.5C2 11.3284 2.67157 12 3.5 12H9C9.82843 12 10.5 11.3284 10.5 10.5V8.97159L13.2094 10.9069C13.3618 11.0157 13.5623 11.0303 13.7288 10.9446C13.8953 10.8589 14 10.6873 14 10.5V5.5C14 5.31271 13.8953 5.14112 13.7288 5.05542C13.5623 4.96971 13.3618 4.98427 13.2094 5.09313L10.5 7.02841ZM3 5.5C3 5.22386 3.22386 5 3.5 5H9C9.27614 5 9.5 5.22386 9.5 5.5V10.5C9.5 10.7761 9.27614 11 9 11H3.5C3.22386 11 3 10.7761 3 10.5V5.5ZM13 9.52841L10.8602 8L13 6.47159V9.52841Z" fill="#2A2A2A"/>
</svg>
