<svg width="15" height="15" viewBox="0 0 15 15" fill="none" xmlns="http://www.w3.org/2000/svg">
<path d="M14.0303 1.53033C14.3232 1.23744 14.3232 0.762563 14.0303 0.46967C13.7374 0.176777 13.2626 0.176777 12.9697 0.46967L7.25 6.18934L1.53033 0.46967C1.23744 0.176777 0.762563 0.176777 0.46967 0.46967C0.176777 0.762563 0.176777 1.23744 0.46967 1.53033L6.18934 7.25L0.46967 12.9697C0.176777 13.2626 0.176777 13.7374 0.46967 14.0303C0.762563 14.3232 1.23744 14.3232 1.53033 14.0303L7.25 8.31066L12.9697 14.0303C13.2626 14.3232 13.7374 14.3232 14.0303 14.0303C14.3232 13.7374 14.3232 13.2626 14.0303 12.9697L8.31066 7.25L14.0303 1.53033Z" fill="white"/>
</svg>
