<svg width="100" height="30" viewBox="0 0 100 30" fill="none" xmlns="http://www.w3.org/2000/svg">
<path d="M96.442 30H3.503C1.572 30 0 28.404 0 26.45V3.545C0 1.59 1.572 0 3.503 0H96.443C98.372 0 100 1.59 100 3.545V26.45C100 28.404 98.373 30 96.442 30Z" fill="#A6A6A6"/>
<path d="M99.2832 26.451C99.2832 28.038 98.0132 29.323 96.4432 29.323H3.50318C1.93318 29.323 0.65918 28.038 0.65918 26.451V3.54399C0.66018 1.95699 1.93318 0.666992 3.50318 0.666992H96.4432C98.0132 0.666992 99.2832 1.95699 99.2832 3.54399V26.45V26.451Z" fill="black"/>
<path d="M22.317 14.8381C22.296 12.4211 24.272 11.2451 24.362 11.1901C23.243 9.53809 21.508 9.31209 20.899 9.29409C19.441 9.13909 18.029 10.1771 17.286 10.1771C16.529 10.1771 15.386 9.30909 14.154 9.33509C12.569 9.35909 11.086 10.2891 10.273 11.7321C8.594 14.6741 9.846 18.9981 11.454 21.3761C12.259 22.5411 13.199 23.8411 14.429 23.7961C15.633 23.7451 16.082 23.0181 17.535 23.0181C18.975 23.0181 19.396 23.7951 20.651 23.7661C21.943 23.7451 22.756 22.5961 23.533 21.4211C24.463 20.0861 24.836 18.7711 24.85 18.7041C24.82 18.6931 22.341 17.7351 22.317 14.8381ZM19.947 7.73009C20.594 6.91009 21.037 5.79409 20.914 4.66309C19.977 4.70509 18.805 5.31909 18.13 6.12109C17.533 6.82709 17 7.98509 17.138 9.07409C18.19 9.15409 19.271 8.53609 19.947 7.72909V7.73009Z" fill="white"/>
<path d="M39.737 23.628H38.055L37.133 20.696H33.93L33.053 23.628H31.415L34.588 13.647H36.548L39.737 23.628ZM36.856 19.466L36.022 16.86C35.934 16.594 35.769 15.967 35.525 14.98H35.495C35.3473 15.6087 35.1913 16.2354 35.027 16.86L34.209 19.466H36.856ZM47.898 19.941C47.898 21.165 47.571 22.133 46.918 22.843C46.333 23.475 45.606 23.791 44.738 23.791C43.802 23.791 43.13 23.451 42.72 22.769H42.69V26.56H41.111V18.8C41.111 18.03 41.091 17.241 41.053 16.431H42.441L42.53 17.571H42.56C43.086 16.712 43.885 16.283 44.958 16.283C45.796 16.283 46.496 16.618 47.056 17.29C47.618 17.962 47.898 18.845 47.898 19.941ZM46.288 20C46.288 19.299 46.133 18.721 45.821 18.267C45.479 17.793 45.021 17.556 44.446 17.556C44.056 17.556 43.702 17.688 43.386 17.948C43.0681 18.211 42.8488 18.5741 42.764 18.978C42.716 19.176 42.691 19.338 42.691 19.465V20.665C42.691 21.189 42.85 21.631 43.167 21.991C43.484 22.352 43.896 22.532 44.402 22.532C44.997 22.532 45.46 22.3 45.792 21.836C46.123 21.372 46.289 20.76 46.289 20H46.288ZM56.073 19.941C56.073 21.165 55.747 22.133 55.093 22.843C54.508 23.475 53.781 23.791 52.914 23.791C51.978 23.791 51.305 23.451 50.896 22.769H50.866V26.56H49.287V18.8C49.287 18.03 49.267 17.241 49.229 16.431H50.618L50.706 17.571H50.736C51.261 16.712 52.061 16.283 53.134 16.283C53.972 16.283 54.672 16.618 55.234 17.29C55.793 17.962 56.074 18.845 56.074 19.941H56.073ZM54.464 20C54.464 19.299 54.308 18.721 53.996 18.267C53.654 17.793 53.197 17.556 52.621 17.556C52.231 17.556 51.878 17.688 51.561 17.948C51.2434 18.2111 51.0245 18.5742 50.94 18.978C50.8972 19.137 50.8727 19.3004 50.867 19.465V20.665C50.867 21.189 51.025 21.631 51.341 21.991C51.658 22.351 52.07 22.532 52.578 22.532C53.173 22.532 53.636 22.3 53.967 21.836C54.299 21.372 54.464 20.76 54.464 20ZM65.214 20.829C65.214 21.678 64.923 22.369 64.339 22.902C63.696 23.485 62.802 23.776 61.653 23.776C60.593 23.776 59.743 23.569 59.099 23.154L59.464 21.821C60.15 22.2439 60.9412 22.465 61.747 22.459C62.342 22.459 62.805 22.322 63.137 22.051C63.469 21.779 63.634 21.415 63.634 20.961C63.6386 20.7714 63.6046 20.5829 63.5341 20.4069C63.4637 20.2309 63.3582 20.071 63.224 19.937C62.953 19.661 62.499 19.403 61.864 19.166C60.139 18.514 59.276 17.559 59.276 16.304C59.276 15.483 59.579 14.81 60.184 14.287C60.787 13.763 61.591 13.501 62.597 13.501C63.494 13.501 64.239 13.659 64.834 13.975L64.439 15.278C63.884 14.972 63.256 14.819 62.553 14.819C61.997 14.819 61.563 14.958 61.252 15.234C61.1255 15.3477 61.0248 15.4873 60.9566 15.6432C60.8885 15.7991 60.8545 15.9678 60.857 16.138C60.857 16.532 61.007 16.858 61.31 17.115C61.573 17.352 62.05 17.609 62.744 17.885C63.592 18.231 64.214 18.635 64.616 19.099C65.015 19.561 65.214 20.139 65.214 20.829ZM70.436 17.631H68.695V21.125C68.695 22.014 69.001 22.458 69.616 22.458C69.899 22.458 70.133 22.433 70.318 22.384L70.361 23.598C70.051 23.716 69.641 23.775 69.133 23.775C68.51 23.775 68.023 23.582 67.67 23.197C67.32 22.812 67.144 22.165 67.144 21.257V17.63H66.107V16.43H67.144V15.113L68.694 14.639V16.431H70.436V17.632V17.631ZM78.29 19.97C78.29 21.077 77.977 21.985 77.353 22.695C76.699 23.426 75.831 23.791 74.749 23.791C73.706 23.791 72.876 23.441 72.256 22.74C71.637 22.04 71.327 21.155 71.327 20.09C71.327 18.974 71.646 18.06 72.285 17.35C72.923 16.64 73.784 16.284 74.865 16.284C75.909 16.284 76.748 16.634 77.381 17.336C77.987 18.016 78.29 18.894 78.29 19.97ZM76.651 20.022C76.651 19.358 76.511 18.789 76.227 18.314C75.897 17.74 75.423 17.454 74.81 17.454C74.175 17.454 73.693 17.74 73.361 18.314C73.078 18.79 72.938 19.368 72.938 20.052C72.938 20.716 73.078 21.285 73.361 21.759C73.703 22.333 74.18 22.62 74.796 22.62C75.399 22.62 75.872 22.327 76.213 21.744C76.504 21.26 76.651 20.685 76.651 20.022ZM83.423 17.837C83.2587 17.807 83.092 17.7923 82.925 17.793C82.37 17.793 81.94 18.005 81.638 18.431C81.375 18.805 81.243 19.279 81.243 19.851V23.628H79.664L79.679 18.698C79.679 17.868 79.659 17.113 79.62 16.432H80.996L81.053 17.809H81.097C81.264 17.335 81.527 16.954 81.887 16.669C82.2152 16.4196 82.6158 16.2841 83.028 16.283C83.174 16.283 83.306 16.293 83.423 16.313V17.837ZM90.486 19.689C90.486 19.976 90.467 20.217 90.428 20.414H85.69C85.709 21.125 85.938 21.669 86.378 22.044C86.777 22.379 87.293 22.547 87.928 22.547C88.628 22.547 89.268 22.434 89.844 22.207L90.092 23.317C89.419 23.614 88.625 23.761 87.709 23.761C86.607 23.761 85.741 23.433 85.112 22.777C84.484 22.12 84.169 21.239 84.169 20.134C84.169 19.048 84.461 18.144 85.047 17.424C85.661 16.654 86.49 16.27 87.533 16.27C88.557 16.27 89.333 16.654 89.859 17.424C90.276 18.035 90.486 18.791 90.486 19.689ZM88.98 19.274C88.99 18.8 88.887 18.391 88.673 18.045C88.4 17.6 87.98 17.378 87.415 17.378C86.899 17.378 86.479 17.595 86.158 18.03C85.895 18.376 85.738 18.79 85.69 19.274H88.98Z" fill="white"/>
<path d="M36.333 7.50699C36.333 8.38999 36.072 9.05399 35.55 9.49999C35.066 9.91199 34.379 10.118 33.488 10.118C33.047 10.118 32.668 10.098 32.353 10.06V5.23699C32.7952 5.16689 33.2423 5.13278 33.69 5.13499C34.538 5.13499 35.177 5.32099 35.608 5.69499C36.091 6.11699 36.333 6.72099 36.333 7.50699ZM35.515 7.52899C35.515 6.95599 35.365 6.51799 35.065 6.21199C34.767 5.90599 34.33 5.75299 33.755 5.75299C33.51 5.75299 33.301 5.76999 33.129 5.80399V9.47099C33.224 9.48599 33.399 9.49299 33.653 9.49299C34.247 9.49299 34.706 9.32599 35.029 8.99099C35.352 8.65699 35.515 8.16899 35.515 7.52899ZM40.673 8.27799C40.673 8.82199 40.52 9.26699 40.213 9.61699C39.892 9.97599 39.466 10.155 38.934 10.155C38.421 10.155 38.014 9.98299 37.709 9.63799C37.405 9.29399 37.253 8.85999 37.253 8.33599C37.253 7.78899 37.41 7.33999 37.723 6.99099C38.038 6.64199 38.46 6.46699 38.992 6.46699C39.504 6.46699 39.916 6.63899 40.228 6.98299C40.524 7.31799 40.673 7.74999 40.673 8.27799ZM39.868 8.30299C39.868 7.97699 39.798 7.69699 39.66 7.46399C39.497 7.18199 39.265 7.04099 38.964 7.04099C38.652 7.04099 38.414 7.18199 38.252 7.46399C38.112 7.69699 38.044 7.98199 38.044 8.31699C38.044 8.64399 38.114 8.92399 38.252 9.15699C38.42 9.43899 38.654 9.57999 38.956 9.57999C39.253 9.57999 39.486 9.43699 39.653 9.14999C39.796 8.91199 39.868 8.62999 39.868 8.30299ZM46.493 6.53999L45.4 10.074H44.689L44.236 8.53899C44.1234 8.16297 44.03 7.78148 43.956 7.39599H43.941C43.874 7.78499 43.781 8.16499 43.661 8.53799L43.18 10.074H42.46L41.433 6.53799H42.231L42.626 8.21899C42.721 8.61599 42.8 8.99499 42.863 9.35399H42.877C42.935 9.05799 43.03 8.68199 43.165 8.22699L43.661 6.53899H44.293L44.768 8.19099C44.883 8.59299 44.976 8.98099 45.048 9.35499H45.07C45.122 8.99099 45.201 8.60299 45.307 8.19099L45.73 6.53899H46.493V6.53999ZM50.517 10.075H49.741V8.04999C49.741 7.42599 49.507 7.11399 49.037 7.11399C48.9302 7.11105 48.8242 7.13269 48.7271 7.17725C48.63 7.22181 48.5444 7.2881 48.477 7.37099C48.3344 7.54041 48.2578 7.75558 48.261 7.97699V10.074H47.484V7.54999C47.484 7.23899 47.474 6.90199 47.456 6.53799H48.139L48.175 7.08999H48.196C48.2905 6.915 48.4295 6.76805 48.599 6.66399C48.8095 6.53182 49.0535 6.46276 49.302 6.46499C49.628 6.46499 49.899 6.57199 50.115 6.78499C50.383 7.04699 50.517 7.43799 50.517 7.95699V10.075ZM52.658 10.075H51.882V4.91699H52.658V10.075ZM57.228 8.27799C57.228 8.82199 57.075 9.26699 56.768 9.61699C56.447 9.97599 56.02 10.155 55.488 10.155C54.976 10.155 54.568 9.98299 54.264 9.63799C53.96 9.29399 53.808 8.85999 53.808 8.33599C53.808 7.78899 53.964 7.33999 54.278 6.99099C54.593 6.64199 55.015 6.46699 55.546 6.46699C56.059 6.46699 56.47 6.63899 56.783 6.98299C57.079 7.31799 57.228 7.74999 57.228 8.27799ZM56.422 8.30299C56.422 7.97699 56.352 7.69699 56.214 7.46399C56.052 7.18199 55.819 7.04099 55.519 7.04099C55.206 7.04099 54.969 7.18199 54.807 7.46399C54.667 7.69699 54.599 7.98199 54.599 8.31699C54.599 8.64399 54.669 8.92399 54.807 9.15699C54.975 9.43899 55.209 9.57999 55.511 9.57999C55.807 9.57999 56.039 9.43699 56.207 9.14999C56.351 8.91199 56.422 8.62999 56.422 8.30299ZM60.985 10.075H60.288L60.23 9.66799H60.209C59.97 9.99199 59.63 10.155 59.189 10.155C58.859 10.155 58.593 10.048 58.392 9.83499C58.2096 9.6404 58.1115 9.38161 58.119 9.11499C58.119 8.68299 58.296 8.35399 58.654 8.12499C59.011 7.89799 59.514 7.78499 60.16 7.79099V7.72499C60.16 7.25899 59.919 7.02699 59.435 7.02699C59.1124 7.02083 58.7954 7.11176 58.525 7.28799L58.367 6.77199C58.691 6.56899 59.092 6.46699 59.564 6.46699C60.477 6.46699 60.934 6.95499 60.934 7.92999V9.23199C60.934 9.58499 60.952 9.86599 60.985 10.075ZM60.18 8.85999V8.31499C59.324 8.29899 58.896 8.53699 58.896 9.02699C58.896 9.21099 58.945 9.34899 59.045 9.44199C59.145 9.53399 59.272 9.57999 59.424 9.57999C59.594 9.57999 59.754 9.52499 59.899 9.41599C59.9874 9.353 60.0591 9.26949 60.1081 9.17264C60.157 9.07579 60.1817 8.9685 60.18 8.85999ZM65.396 10.075H64.707L64.671 9.50699H64.65C64.43 9.93899 64.055 10.155 63.528 10.155C63.108 10.155 62.757 9.98799 62.479 9.65299C62.201 9.31899 62.063 8.88399 62.063 8.35099C62.063 7.77899 62.213 7.31499 62.516 6.96099C62.808 6.63099 63.166 6.46699 63.593 6.46699C64.063 6.46699 64.39 6.62699 64.577 6.94699H64.592V4.91699H65.369V9.12199C65.369 9.46699 65.378 9.78399 65.396 10.075ZM64.592 8.58399V7.99399C64.5998 7.85832 64.5767 7.72265 64.5244 7.59723C64.472 7.47181 64.3919 7.35991 64.29 7.26999C64.1472 7.14255 63.9614 7.07395 63.77 7.07799C63.6359 7.07385 63.5029 7.10378 63.3834 7.16499C63.264 7.2262 63.162 7.31668 63.087 7.42799C62.922 7.65999 62.839 7.95799 62.839 8.32199C62.839 8.67199 62.918 8.95499 63.077 9.17299C63.1519 9.2834 63.2533 9.37322 63.372 9.43421C63.4906 9.49519 63.6227 9.52538 63.756 9.52199C63.874 9.52557 63.9911 9.50104 64.0976 9.45045C64.2042 9.39985 64.2972 9.32463 64.369 9.23099C64.519 9.04931 64.5982 8.8195 64.592 8.58399ZM72.036 8.27799C72.036 8.82199 71.882 9.26699 71.576 9.61699C71.254 9.97599 70.829 10.155 70.296 10.155C69.784 10.155 69.376 9.98299 69.071 9.63799C68.767 9.29399 68.616 8.85999 68.616 8.33599C68.616 7.78899 68.772 7.33999 69.086 6.99099C69.4 6.64199 69.822 6.46699 70.355 6.46699C70.867 6.46699 71.279 6.63899 71.59 6.98299C71.887 7.31799 72.036 7.74999 72.036 8.27799ZM71.231 8.30299C71.231 7.97699 71.161 7.69699 71.023 7.46399C70.859 7.18199 70.628 7.04099 70.326 7.04099C70.015 7.04099 69.778 7.18199 69.614 7.46399C69.474 7.69699 69.406 7.98199 69.406 8.31699C69.406 8.64399 69.476 8.92399 69.614 9.15699C69.782 9.43899 70.016 9.57999 70.319 9.57999C70.615 9.57999 70.849 9.43699 71.016 9.14999C71.159 8.91199 71.231 8.62999 71.231 8.30299ZM76.21 10.075H75.434V8.04999C75.434 7.42599 75.2 7.11399 74.73 7.11399C74.6232 7.11082 74.5171 7.13236 74.4199 7.17694C74.3228 7.22152 74.2373 7.28793 74.17 7.37099C74.0271 7.54023 73.9504 7.75552 73.954 7.97699V10.074H73.177V7.54999C73.177 7.23899 73.168 6.90199 73.15 6.53799H73.831L73.867 7.08999H73.889C73.98 6.91899 74.115 6.77699 74.291 6.66399C74.502 6.53199 74.737 6.46499 74.996 6.46499C75.321 6.46499 75.592 6.57199 75.807 6.78499C76.077 7.04699 76.21 7.43799 76.21 7.95699V10.075ZM81.434 7.12799H80.579V8.84599C80.579 9.28199 80.731 9.49999 81.032 9.49999C81.172 9.49999 81.287 9.48799 81.378 9.46399L81.398 10.06C81.2038 10.1249 80.9997 10.1547 80.795 10.148C80.488 10.148 80.25 10.053 80.077 9.86399C79.904 9.67499 79.817 9.35699 79.817 8.91099V7.12799H79.307V6.53899H79.817V5.89099L80.579 5.65899V6.53899H81.433V7.12799H81.434ZM85.544 10.075H84.767V8.06499C84.767 7.43099 84.533 7.11399 84.064 7.11399C83.704 7.11399 83.458 7.29699 83.323 7.66499C83.2976 7.75712 83.2854 7.85242 83.287 7.94799V10.074H82.511V4.91699H83.287V7.04699H83.301C83.4074 6.86455 83.5612 6.71431 83.746 6.61219C83.9309 6.51008 84.14 6.4599 84.351 6.46699C84.671 6.46699 84.938 6.57299 85.149 6.78699C85.412 7.05299 85.544 7.44899 85.544 7.97199V10.075ZM89.783 8.13999C89.783 8.27999 89.773 8.39999 89.754 8.49599H87.426C87.436 8.84599 87.547 9.11199 87.763 9.29599C87.96 9.46099 88.214 9.54399 88.525 9.54399C88.87 9.54399 89.184 9.48799 89.467 9.37599L89.588 9.92299C89.257 10.068 88.868 10.141 88.416 10.141C87.876 10.141 87.45 9.97899 87.141 9.65699C86.831 9.33499 86.679 8.90199 86.679 8.35899C86.679 7.82599 86.821 7.38199 87.109 7.02799C87.41 6.64999 87.817 6.46099 88.33 6.46099C88.833 6.46099 89.214 6.64899 89.472 7.02699C89.68 7.32699 89.783 7.69899 89.783 8.13999ZM89.043 7.93599C89.0535 7.72447 89.001 7.5146 88.892 7.33299C88.757 7.11399 88.552 7.00499 88.274 7.00499C88.1526 7.00303 88.0326 7.03124 87.9247 7.08709C87.8168 7.14294 87.7245 7.22469 87.656 7.32499C87.527 7.49499 87.451 7.69899 87.426 7.93599H89.042H89.043Z" fill="white"/>
</svg>
