<svg width="100" height="30" viewBox="0 0 100 30" fill="none" xmlns="http://www.w3.org/2000/svg">
<g clip-path="url(#clip0)">
<path d="M96.2972 29.6299H3.70418C3.21642 29.6347 2.73261 29.5422 2.28105 29.3578C1.82948 29.1733 1.41924 28.9007 1.07433 28.5558C0.729421 28.2109 0.456768 27.8006 0.272329 27.3491C0.0878888 26.8975 -0.00463264 26.4137 0.000178438 25.9259V3.70393C-0.00463264 3.21618 0.0878888 2.73237 0.272329 2.2808C0.456768 1.82924 0.729421 1.419 1.07433 1.07409C1.41924 0.729177 1.82948 0.456524 2.28105 0.272084C2.73261 0.0876447 3.21642 -0.00487678 3.70418 -6.57028e-05H96.2972C96.7849 -0.00487678 97.2687 0.0876447 97.7203 0.272084C98.1719 0.456524 98.5821 0.729177 98.927 1.07409C99.2719 1.419 99.5446 1.82924 99.729 2.2808C99.9135 2.73237 100.006 3.21618 100.001 3.70393V25.9259C100.006 26.4137 99.9135 26.8975 99.729 27.3491C99.5446 27.8006 99.2719 28.2109 98.927 28.5558C98.5821 28.9007 98.1719 29.1733 97.7203 29.3578C97.2687 29.5422 96.7849 29.6347 96.2972 29.6299Z" fill="black"/>
<path d="M96.2972 0.593C97.1207 0.597719 97.9092 0.926831 98.4918 1.50899C99.0743 2.09115 99.4039 2.87945 99.4092 3.703V25.926C99.4042 26.7497 99.0747 27.5383 98.4921 28.1207C97.9096 28.703 97.1209 29.0323 96.2972 29.037H3.70418C2.8808 29.032 2.09255 28.7028 1.51023 28.1207C0.927906 27.5385 0.598425 26.7504 0.593178 25.927V3.703C0.598422 2.8798 0.927765 2.0918 1.50987 1.50969C2.09198 0.927587 2.87997 0.598243 3.70318 0.593H96.2972ZM96.2972 0H3.70418C1.63018 0 0.000178438 1.704 0.000178438 3.704V25.926C-0.00463264 26.4138 0.0878888 26.8976 0.272329 27.3491C0.456768 27.8007 0.729421 28.2109 1.07433 28.5558C1.41924 28.9008 1.82948 29.1734 2.28105 29.3578C2.73261 29.5423 3.21642 29.6348 3.70418 29.63H96.2972C96.7849 29.6348 97.2687 29.5423 97.7203 29.3578C98.1719 29.1734 98.5821 28.9008 98.927 28.5558C99.2719 28.2109 99.5446 27.8007 99.729 27.3491C99.9135 26.8976 100.006 26.4138 100.001 25.926V3.704C100.001 1.704 98.3712 0 96.2972 0Z" fill="#A6A6A6"/>
<path d="M35.112 7.55584C35.112 8.14784 34.963 8.66584 34.593 9.03684C34.149 9.48184 33.63 9.70384 32.963 9.70384C32.297 9.70384 31.778 9.48184 31.333 9.03684C30.889 8.59284 30.667 8.07384 30.667 7.40684C30.667 6.74084 30.889 6.22184 31.334 5.77684C31.778 5.33284 32.297 5.11084 32.964 5.11084C33.26 5.11084 33.556 5.18484 33.852 5.33284C34.149 5.48184 34.371 5.62984 34.519 5.85184L34.149 6.22184C33.852 5.85184 33.482 5.70384 32.963 5.70384C32.519 5.70384 32.074 5.85184 31.778 6.22184C31.408 6.51884 31.26 6.96284 31.26 7.48184C31.26 7.99984 31.408 8.44484 31.778 8.74084C32.148 9.03684 32.518 9.25884 32.963 9.25884C33.482 9.25884 33.853 9.11084 34.223 8.74084C34.445 8.51884 34.593 8.22184 34.593 7.85084H32.963V7.25984H35.112V7.55684V7.55584ZM38.519 5.70384H36.519V7.10984H38.371V7.62884H36.519V9.03584H38.519V9.62884H35.926V5.18484H38.519V5.70384ZM40.963 9.62984H40.371V5.70384H39.111V5.18484H42.223V5.70384H40.963V9.62984ZM44.37 9.62984V5.18484H44.964V9.62984H44.37ZM47.482 9.62984H46.889V5.70384H45.63V5.18484H48.667V5.70384H47.408V9.62984H47.482ZM54.52 9.03684C54.075 9.48184 53.556 9.70384 52.89 9.70384C52.223 9.70384 51.704 9.48184 51.26 9.03684C50.815 8.59284 50.593 8.07384 50.593 7.40684C50.593 6.74084 50.815 6.22184 51.26 5.77684C51.704 5.33284 52.223 5.11084 52.89 5.11084C53.556 5.11084 54.075 5.33284 54.52 5.77784C54.964 6.22184 55.186 6.74084 55.186 7.40784C55.186 8.07384 54.964 8.59284 54.519 9.03784L54.52 9.03684ZM51.704 8.66684C52.001 8.96284 52.445 9.18484 52.89 9.18484C53.334 9.18484 53.778 9.03684 54.075 8.66684C54.371 8.36984 54.593 7.92584 54.593 7.40684C54.593 6.88884 54.445 6.44484 54.075 6.14784C53.778 5.85184 53.334 5.62984 52.89 5.62984C52.445 5.62984 52 5.77784 51.704 6.14784C51.408 6.44484 51.186 6.88884 51.186 7.40784C51.186 7.92584 51.334 8.36984 51.704 8.66684ZM56 9.62984V5.18484H56.667L58.816 8.66684V5.18484H59.408V9.62984H58.816L56.519 5.99984V9.62984H56Z" fill="white" stroke="white" stroke-width="0.2"/>
<path d="M50.4453 16.148C48.6673 16.148 47.2603 17.482 47.2603 19.334C47.2573 19.7531 47.3375 20.1686 47.4965 20.5564C47.6555 20.9443 47.89 21.2966 48.1864 21.5929C48.4827 21.8893 48.8351 22.1238 49.2229 22.2828C49.6107 22.4418 50.0262 22.5221 50.4453 22.519C52.2233 22.519 53.6303 21.185 53.6303 19.334C53.6303 17.408 52.2233 16.148 50.4453 16.148ZM50.4453 21.185C49.4823 21.185 48.6673 20.371 48.6673 19.259C48.6673 18.149 49.4823 17.334 50.4453 17.334C51.4083 17.334 52.2233 18.074 52.2233 19.259C52.2233 20.371 51.4083 21.185 50.4453 21.185ZM43.5563 16.148C41.7783 16.148 40.3713 17.482 40.3713 19.334C40.3683 19.7531 40.4485 20.1686 40.6075 20.5564C40.7665 20.9443 41.001 21.2966 41.2974 21.5929C41.5937 21.8893 41.9461 22.1238 42.3339 22.2828C42.7217 22.4418 43.1372 22.5221 43.5563 22.519C45.3343 22.519 46.7413 21.185 46.7413 19.334C46.7413 17.408 45.3343 16.148 43.5563 16.148ZM43.5563 21.185C42.5933 21.185 41.7783 20.371 41.7783 19.259C41.7783 18.149 42.5933 17.334 43.5563 17.334C44.5193 17.334 45.3343 18.074 45.3343 19.259C45.3343 20.371 44.5193 21.185 43.5563 21.185ZM35.3343 17.111V18.445H38.5193C38.4453 19.185 38.1493 19.778 37.7793 20.148C37.3343 20.593 36.5933 21.111 35.3343 21.111C33.3343 21.111 31.8523 19.556 31.8523 17.556C31.8523 15.556 33.4083 14 35.3343 14C36.3713 14 37.1863 14.445 37.7783 14.963L38.7413 14C37.9263 13.26 36.8893 12.667 35.4083 12.667C32.7413 12.667 30.4453 14.889 30.4453 17.556C30.4453 20.222 32.7413 22.445 35.4083 22.445C36.8893 22.445 37.9263 22 38.8153 21.037C39.7053 20.148 40.0003 18.889 40.0003 17.927C40.0003 17.63 40.0003 17.334 39.9263 17.111H35.3343ZM68.9643 18.148C68.6683 17.408 67.9273 16.148 66.2973 16.148C64.6673 16.148 63.3343 17.408 63.3343 19.334C63.3343 21.111 64.6673 22.519 66.4453 22.519C67.8533 22.519 68.7423 21.629 69.0383 21.111L68.0003 20.371C67.6303 20.889 67.1853 21.26 66.4443 21.26C65.7043 21.26 65.2593 20.963 64.8893 20.297L69.1113 18.519L68.9633 18.149L68.9643 18.148ZM64.6673 19.185C64.6673 18 65.6303 17.334 66.2973 17.334C66.8163 17.334 67.3343 17.63 67.4823 18L64.6673 19.185ZM61.1863 22.222H62.5933V12.963H61.1863V22.223V22.222ZM58.9643 16.815C58.5943 16.445 58.0013 16.075 57.2603 16.075C55.7043 16.075 54.2233 17.482 54.2233 19.259C54.2233 21.037 55.6303 22.371 57.2603 22.371C58.0003 22.371 58.5933 22.001 58.8903 21.63H58.9643V22.074C58.9643 23.26 58.2973 23.926 57.2603 23.926C56.4453 23.926 55.8533 23.334 55.7043 22.816L54.5193 23.334C54.8893 24.148 55.7793 25.185 57.3343 25.185C58.9643 25.185 60.2973 24.223 60.2973 21.926V16.296H58.9643V16.815ZM57.3343 21.185C56.3713 21.185 55.5563 20.371 55.5563 19.259C55.5563 18.149 56.3713 17.334 57.3343 17.334C58.2973 17.334 59.0383 18.148 59.0383 19.259C59.0383 20.371 58.2973 21.185 57.3343 21.185ZM75.4083 12.963H72.0753V22.223H73.4823V18.74H75.4083C76.9643 18.74 78.4453 17.629 78.4453 15.851C78.4453 14.073 76.9643 12.962 75.4083 12.962V12.963ZM75.4823 17.408H73.4823V14.222H75.4823C76.5193 14.222 77.1123 15.112 77.1123 15.778C77.0383 16.593 76.4453 17.408 75.4823 17.408ZM84.0013 16.074C82.9643 16.074 81.9273 16.519 81.5573 17.482L82.8163 18C83.1123 17.482 83.5563 17.334 84.0763 17.334C84.8163 17.334 85.4833 17.778 85.5563 18.519V18.593C85.3343 18.445 84.7423 18.223 84.1493 18.223C82.8163 18.223 81.4823 18.963 81.4823 20.297C81.4823 21.556 82.5943 22.371 83.7793 22.371C84.7423 22.371 85.1863 21.926 85.5573 21.481H85.6313V22.222H86.9643V18.667C86.8163 17.037 85.5573 16.074 84.0013 16.074ZM83.8533 21.185C83.4083 21.185 82.7423 20.963 82.7423 20.371C82.7423 19.63 83.5573 19.408 84.2233 19.408C84.8163 19.408 85.1133 19.556 85.4833 19.704C85.3343 20.593 84.5933 21.185 83.8533 21.185ZM91.6313 16.296L90.0753 20.296H90.0013L88.3713 16.296H86.8903L89.3343 21.926L87.9273 25.037H89.3343L93.1123 16.297H91.6313V16.296ZM79.1863 22.222H80.5943V12.963H79.1863V22.223V22.222Z" fill="white"/>
<path d="M7.70323 5.55493C7.48123 5.77793 7.40723 6.14793 7.40723 6.59193V22.9629C7.40723 23.4069 7.55523 23.7779 7.77723 23.9999L7.85123 24.0739L17.0372 14.8889V14.7409L7.70323 5.55493Z" fill="url(#paint0_linear)"/>
<path d="M20.0004 17.9999L16.9634 14.9629V14.7409L20.0004 11.7039L20.0744 11.7779L23.7044 13.8519C24.7414 14.4439 24.7414 15.4069 23.7044 15.9999L20.0004 17.9999Z" fill="url(#paint1_linear)"/>
<path d="M20.0741 17.9249L16.9631 14.8149L7.70312 24.0749C8.07313 24.4449 8.59312 24.4449 9.25912 24.1479L20.0741 17.9259" fill="url(#paint2_linear)"/>
<path d="M20.0741 11.704L9.25912 5.55502C8.59212 5.18502 8.07412 5.25902 7.70312 5.62902L16.9631 14.815L20.0731 11.704H20.0741Z" fill="url(#paint3_linear)"/>
<path opacity="0.2" d="M20.0001 17.8521L9.2601 23.9261C8.6671 24.2961 8.1481 24.2231 7.7781 23.9261L7.7041 24.0001L7.7781 24.0741C8.1481 24.3711 8.6671 24.4441 9.2591 24.0741L20.0001 17.8521Z" fill="black"/>
<path opacity="0.12" d="M7.70423 23.9262C7.48223 23.7042 7.40723 23.3342 7.40723 22.8892V22.9632C7.40723 23.4082 7.55623 23.7782 7.77723 24.0002V23.9262H7.70423Z" fill="black"/>
<path opacity="0.12" d="M23.704 15.7779L20 17.8519L20.074 17.9259L23.704 15.8519C24.223 15.5559 24.444 15.1849 24.444 14.8149C24.444 15.1849 24.148 15.4819 23.704 15.7779Z" fill="black"/>
<path opacity="0.25" d="M9.2602 5.62987L23.7042 13.8519C24.1482 14.1479 24.4442 14.4449 24.4442 14.8149C24.4442 14.4449 24.2232 14.0749 23.7042 13.7779L9.2592 5.55587C8.2222 4.96287 7.4082 5.40687 7.4082 6.59287V6.66687C7.4082 5.55587 8.2222 5.03687 9.2592 5.62987H9.2602Z" fill="white"/>
</g>
<defs>
<linearGradient id="paint0_linear" x1="16.148" y1="6.45107" x2="1.43063" y2="10.4307" gradientUnits="userSpaceOnUse">
<stop stop-color="#00A0FF"/>
<stop offset="0.00657" stop-color="#00A1FF"/>
<stop offset="0.2601" stop-color="#00BEFF"/>
<stop offset="0.5122" stop-color="#00D2FF"/>
<stop offset="0.7604" stop-color="#00DFFF"/>
<stop offset="1" stop-color="#00E3FF"/>
</linearGradient>
<linearGradient id="paint1_linear" x1="25.0631" y1="14.8159" x2="7.13893" y2="14.8159" gradientUnits="userSpaceOnUse">
<stop stop-color="#FFE000"/>
<stop offset="0.4087" stop-color="#FFBD00"/>
<stop offset="0.7754" stop-color="#FFA500"/>
<stop offset="1" stop-color="#FF9C00"/>
</linearGradient>
<linearGradient id="paint2_linear" x1="18.3903" y1="16.5159" x2="6.56374" y2="36.3718" gradientUnits="userSpaceOnUse">
<stop stop-color="#FF3A44"/>
<stop offset="1" stop-color="#C31162"/>
</linearGradient>
<linearGradient id="paint3_linear" x1="5.40459" y1="0.130021" x2="10.6441" y2="9.00883" gradientUnits="userSpaceOnUse">
<stop stop-color="#32A071"/>
<stop offset="0.0685" stop-color="#2DA771"/>
<stop offset="0.4762" stop-color="#15CF74"/>
<stop offset="0.8009" stop-color="#06E775"/>
<stop offset="1" stop-color="#00F076"/>
</linearGradient>
<clipPath id="clip0">
<rect width="100" height="30" fill="white"/>
</clipPath>
</defs>
</svg>
