<svg width="640" height="422" viewBox="0 0 640 422" fill="none" xmlns="http://www.w3.org/2000/svg">
<g clip-path="url(#clip0)">
<path opacity="0.7" d="M-1.82013e-05 5.60181L-2.44861e-07 416.398C-1.09628e-07 419.492 2.51349 422 5.61404 422L634.386 422C637.487 422 640 419.492 640 416.398L640 5.60178C640 2.508 637.486 2.65216e-06 634.386 2.78769e-06L5.61402 3.02722e-05C2.51347 3.04077e-05 -1.83366e-05 2.50803 -1.82013e-05 5.60181Z" fill="#00BB00"/>
<path d="M21.165 411.525L618.873 411.525L618.873 10.4379L21.165 10.438L21.165 411.525Z" stroke="#EEFFEE" stroke-width="3"/>
<path d="M320 411.487L320 10.5873" stroke="#EEFFEE" stroke-width="3"/>
<path d="M371.275 211C371.275 182.744 348.318 159.837 320 159.837C291.682 159.837 268.725 182.744 268.725 211C268.725 239.256 291.682 262.163 320 262.163C348.318 262.163 371.275 239.256 371.275 211Z" stroke="#EEFFEE" stroke-width="3"/>
<path d="M321.872 211C321.872 209.969 321.034 209.133 320 209.133C318.967 209.133 318.129 209.969 318.129 211C318.129 212.031 318.967 212.867 320 212.867C321.034 212.867 321.872 212.031 321.872 211Z" stroke="#EEFFEE" stroke-width="3"/>
<path d="M612.011 412.757C612.011 408.182 615.754 404.541 620.339 404.541M611.986 9.22412C611.986 13.7522 615.729 17.4587 620.313 17.4587L611.986 9.22412ZM525.998 169.173C519.299 173.91 513.836 180.18 510.065 187.457C506.295 194.735 504.327 202.808 504.327 211C504.327 219.192 506.295 227.265 510.065 234.542C513.836 241.82 519.299 248.09 525.998 252.826L525.998 169.173ZM619.219 324.062L525.998 324.062L525.998 97.9375L619.219 98.1242L619.219 324.062ZM619.031 190.18L633.628 190.18L633.625 231.82L619.029 231.82L619.031 190.18ZM619.216 159.09L587.029 159.09L587.029 262.91L619.216 262.91L619.216 159.09Z" stroke="#EEFFEE" stroke-width="3"/>
<path d="M554.04 210.981C554.04 212.013 554.877 212.849 555.911 212.849C556.944 212.849 557.782 212.013 557.782 210.981C557.782 209.95 556.944 209.114 555.911 209.114C554.877 209.114 554.04 209.95 554.04 210.981Z" stroke="#EEFFEE" stroke-width="3"/>
<path d="M28.1105 9.22427C28.1105 13.799 24.3678 17.4402 19.783 17.4402M28.1358 412.757C28.1358 408.229 24.3931 404.522 19.8083 404.522L28.1358 412.757ZM114.124 252.808C120.823 248.071 126.286 241.801 130.056 234.524C133.827 227.247 135.794 219.174 135.794 210.981C135.794 202.789 133.827 194.716 130.056 187.439C126.286 180.161 120.823 173.892 114.124 169.155L114.124 252.808ZM20.903 97.919L114.124 97.919L114.124 324.044L20.903 323.857L20.903 97.919ZM21.0901 231.801L6.49364 231.801L6.49645 190.161L21.0929 190.161L21.0901 231.801ZM20.9058 262.891L53.0929 262.891L53.0929 159.072L20.9058 159.072L20.9058 262.891Z" stroke="#EEFFEE" stroke-width="3"/>
<path d="M86.082 211C86.082 209.969 85.2442 209.133 84.2107 209.133C83.1772 209.133 82.3394 209.969 82.3394 211C82.3394 212.031 83.1772 212.867 84.2107 212.867C85.2442 212.867 86.082 212.031 86.082 211Z" stroke="#EEFFEE" stroke-width="3"/>
<circle cx="51" cy="211" r="9" transform="rotate(-90 51 211)" fill="#FF3333" stroke="white" stroke-width="2"/>
<circle cx="113" cy="359" r="9" transform="rotate(-90 113 359)" fill="#FF3333" stroke="white" stroke-width="2"/>
<circle cx="113" cy="262" r="9" transform="rotate(-90 113 262)" fill="#FF3333" stroke="white" stroke-width="2"/>
<circle cx="113" cy="165" r="9" transform="rotate(-90 113 165)" fill="#FF3333" stroke="white" stroke-width="2"/>
<circle cx="113" cy="68" r="9" transform="rotate(-90 113 68)" fill="#FF3333" stroke="white" stroke-width="2"/>
<circle cx="241" cy="359" r="9" transform="rotate(-90 241 359)" fill="#FF3333" stroke="white" stroke-width="2"/>
<circle cx="241" cy="262" r="9" transform="rotate(-90 241 262)" fill="#FF3333" stroke="white" stroke-width="2"/>
<circle cx="241" cy="165" r="9" transform="rotate(-90 241 165)" fill="#FF3333" stroke="white" stroke-width="2"/>
<circle cx="241" cy="68" r="9" transform="rotate(-90 241 68)" fill="#FF3333" stroke="white" stroke-width="2"/>
<circle cx="177" cy="211" r="9" transform="rotate(-90 177 211)" fill="#FF3333" stroke="white" stroke-width="2"/>
<circle cx="306" cy="211" r="9" transform="rotate(-90 306 211)" fill="#FF3333" stroke="white" stroke-width="2"/>
<g filter="url(#filter0_d)">
<rect x="231" y="124" width="100" height="24" rx="3" fill="#F0F1F3"/>
</g>
<path d="M237.976 136.04H238.336C239.344 136.04 240.472 136.424 240.472 137.612C240.472 138.692 239.62 139.232 238.768 139.232C237.88 139.232 237.232 138.716 236.98 137.984L235.9 138.344C236.368 139.616 237.448 140.216 238.792 140.216C240.244 140.216 241.636 139.316 241.636 137.624C241.636 136.532 240.904 135.752 239.908 135.548V135.524C240.784 135.296 241.408 134.54 241.408 133.592C241.408 132.092 240.208 131.288 238.792 131.288C237.592 131.288 236.62 131.912 236.2 132.932L237.256 133.304C237.508 132.656 238.036 132.26 238.744 132.26C239.548 132.26 240.244 132.812 240.244 133.664C240.244 134.756 239.32 135.08 238.348 135.08H237.976V136.04ZM245.113 136.04H245.473C246.481 136.04 247.609 136.424 247.609 137.612C247.609 138.692 246.757 139.232 245.905 139.232C245.017 139.232 244.369 138.716 244.117 137.984L243.037 138.344C243.505 139.616 244.585 140.216 245.929 140.216C247.381 140.216 248.773 139.316 248.773 137.624C248.773 136.532 248.041 135.752 247.045 135.548V135.524C247.921 135.296 248.545 134.54 248.545 133.592C248.545 132.092 247.345 131.288 245.929 131.288C244.729 131.288 243.757 131.912 243.337 132.932L244.393 133.304C244.645 132.656 245.173 132.26 245.881 132.26C246.685 132.26 247.381 132.812 247.381 133.664C247.381 134.756 246.457 135.08 245.485 135.08H245.113V136.04ZM260.865 132.428C260.145 131.72 259.137 131.288 257.793 131.288C255.261 131.288 253.365 133.172 253.365 135.752C253.365 138.332 255.225 140.216 257.793 140.216C258.945 140.216 260.037 139.94 260.961 139.388V135.56H258.117V136.316H260.097V138.896C259.605 139.22 258.765 139.448 257.805 139.448C255.621 139.448 254.277 137.732 254.277 135.752C254.277 133.772 255.621 132.044 257.805 132.044C258.861 132.044 259.677 132.404 260.265 133.028L260.865 132.428ZM266.665 136.556C264.613 136.556 262.705 136.712 262.705 138.44C262.705 139.688 263.797 140.144 264.649 140.144C265.549 140.144 266.173 139.832 266.689 139.088H266.713C266.713 139.388 266.749 139.724 266.797 140H267.529C267.469 139.688 267.433 139.172 267.433 138.74V136.28C267.433 134.912 266.461 134.24 265.249 134.24C264.289 134.24 263.497 134.588 263.041 135.044L263.497 135.584C263.893 135.188 264.505 134.924 265.165 134.924C266.137 134.924 266.665 135.404 266.665 136.376V136.556ZM266.665 137.192V137.612C266.665 138.608 266.017 139.472 264.865 139.472C264.229 139.472 263.545 139.208 263.545 138.404C263.545 137.336 265.093 137.192 266.425 137.192H266.665ZM270.399 139.052C270.879 139.76 271.719 140.144 272.523 140.144C274.275 140.144 275.427 138.848 275.427 137.192C275.427 135.536 274.275 134.24 272.523 134.24C271.719 134.24 270.879 134.624 270.399 135.356H270.375V130.928H269.559V140H270.375V139.052H270.399ZM274.563 137.192C274.563 138.44 273.795 139.448 272.439 139.448C271.179 139.448 270.279 138.476 270.279 137.192C270.279 135.908 271.179 134.924 272.439 134.924C273.795 134.924 274.563 135.944 274.563 137.192ZM277.176 135.62V140H277.992V137.12C277.992 135.62 278.772 134.996 279.636 134.996C279.852 134.996 280.116 135.032 280.212 135.068L280.32 134.3C280.152 134.252 279.984 134.24 279.78 134.24C278.988 134.24 278.292 134.696 277.98 135.344H277.956C277.956 135.104 277.932 134.684 277.908 134.384H277.128C277.164 134.768 277.176 135.32 277.176 135.62ZM282.328 134.384H281.512V140H282.328V134.384ZM282.496 132.224C282.496 131.888 282.208 131.648 281.92 131.648C281.632 131.648 281.344 131.888 281.344 132.224C281.344 132.56 281.632 132.8 281.92 132.8C282.208 132.8 282.496 132.56 282.496 132.224ZM284.956 136.76C285.028 135.8 285.832 134.924 286.924 134.924C288.088 134.924 288.736 135.704 288.784 136.76H284.956ZM289.612 137.024C289.612 135.488 288.688 134.24 286.924 134.24C285.328 134.24 284.092 135.5 284.092 137.192C284.092 138.884 285.328 140.144 286.996 140.144C287.92 140.144 288.748 139.796 289.408 138.956L288.796 138.476C288.484 138.98 287.836 139.448 286.996 139.448C285.844 139.448 284.968 138.536 284.944 137.408H289.6C289.612 137.264 289.612 137.132 289.612 137.024ZM292.207 130.928H291.391V140H292.207V130.928ZM296.47 138.488C296.674 139.496 297.526 140.216 298.75 140.216C300.61 140.216 301.018 138.656 301.018 137.552V131.504H300.154V137.492C300.154 138.512 299.842 139.46 298.654 139.46C297.898 139.46 297.406 138.932 297.274 138.272L296.47 138.488ZM303.612 136.76C303.684 135.8 304.488 134.924 305.58 134.924C306.744 134.924 307.392 135.704 307.44 136.76H303.612ZM308.268 137.024C308.268 135.488 307.344 134.24 305.58 134.24C303.984 134.24 302.748 135.5 302.748 137.192C302.748 138.884 303.984 140.144 305.652 140.144C306.576 140.144 307.404 139.796 308.064 138.956L307.452 138.476C307.14 138.98 306.492 139.448 305.652 139.448C304.5 139.448 303.624 138.536 303.6 137.408H308.256C308.268 137.264 308.268 137.132 308.268 137.024ZM313.635 135.248C313.275 134.612 312.447 134.24 311.667 134.24C310.647 134.24 309.663 134.732 309.663 135.872C309.663 136.94 310.611 137.228 311.271 137.384C312.339 137.636 312.927 137.876 312.927 138.464C312.927 139.196 312.303 139.448 311.607 139.448C310.947 139.448 310.335 139.064 310.047 138.572L309.399 139.052C309.915 139.808 310.767 140.144 311.619 140.144C312.651 140.144 313.731 139.688 313.731 138.404C313.731 137.528 313.107 137.036 311.787 136.76C310.863 136.568 310.443 136.328 310.443 135.8C310.443 135.176 311.043 134.924 311.631 134.924C312.255 134.924 312.771 135.248 313.011 135.716L313.635 135.248ZM320.215 140C320.179 139.616 320.167 139.064 320.167 138.764V134.384H319.351V137.264C319.351 138.764 318.511 139.46 317.647 139.46C316.471 139.46 316.123 138.668 316.123 137.492V134.384H315.307V137.828C315.307 139.22 316.015 140.144 317.443 140.144C318.235 140.144 319.051 139.688 319.363 139.04H319.387C319.387 139.28 319.411 139.7 319.435 140H320.215ZM325.94 135.248C325.58 134.612 324.752 134.24 323.972 134.24C322.952 134.24 321.968 134.732 321.968 135.872C321.968 136.94 322.916 137.228 323.576 137.384C324.644 137.636 325.232 137.876 325.232 138.464C325.232 139.196 324.608 139.448 323.912 139.448C323.252 139.448 322.64 139.064 322.352 138.572L321.704 139.052C322.22 139.808 323.072 140.144 323.924 140.144C324.956 140.144 326.036 139.688 326.036 138.404C326.036 137.528 325.412 137.036 324.092 136.76C323.168 136.568 322.748 136.328 322.748 135.8C322.748 135.176 323.348 134.924 323.936 134.924C324.56 134.924 325.076 135.248 325.316 135.716L325.94 135.248Z" fill="black"/>
<circle cx="581" cy="211" r="9" transform="rotate(-90 581 211)" fill="#034694" stroke="white" stroke-width="2"/>
<circle cx="526" cy="359" r="9" transform="rotate(-90 526 359)" fill="#034694" stroke="white" stroke-width="2"/>
<circle cx="526" cy="262" r="9" transform="rotate(-90 526 262)" fill="#034694" stroke="white" stroke-width="2"/>
<circle cx="526" cy="165" r="9" transform="rotate(-90 526 165)" fill="#034694" stroke="white" stroke-width="2"/>
<circle cx="526" cy="68" r="9" transform="rotate(-90 526 68)" fill="#034694" stroke="white" stroke-width="2"/>
<circle cx="416" cy="337" r="9" transform="rotate(-90 416 337)" fill="#034694" stroke="white" stroke-width="2"/>
<circle cx="416" cy="211" r="9" transform="rotate(-90 416 211)" fill="#034694" stroke="white" stroke-width="2"/>
<circle cx="416" cy="90" r="9" transform="rotate(-90 416 90)" fill="#034694" stroke="white" stroke-width="2"/>
<circle cx="480" cy="308" r="9" transform="rotate(-90 480 308)" fill="#034694" stroke="white" stroke-width="2"/>
<circle cx="480" cy="126" r="9" transform="rotate(-90 480 126)" fill="#034694" stroke="white" stroke-width="2"/>
<circle cx="359" cy="211" r="9" transform="rotate(-90 359 211)" fill="#034694" stroke="white" stroke-width="2"/>
</g>
<defs>
<filter id="filter0_d" x="223" y="120" width="116" height="40" filterUnits="userSpaceOnUse" color-interpolation-filters="sRGB">
<feFlood flood-opacity="0" result="BackgroundImageFix"/>
<feColorMatrix in="SourceAlpha" type="matrix" values="0 0 0 0 0 0 0 0 0 0 0 0 0 0 0 0 0 0 127 0"/>
<feOffset dy="4"/>
<feGaussianBlur stdDeviation="4"/>
<feColorMatrix type="matrix" values="0 0 0 0 0 0 0 0 0 0 0 0 0 0 0 0 0 0 0.1 0"/>
<feBlend mode="multiply" in2="BackgroundImageFix" result="effect1_dropShadow"/>
<feBlend mode="normal" in="SourceGraphic" in2="effect1_dropShadow" result="shape"/>
</filter>
<clipPath id="clip0">
<rect width="422" height="640" fill="white" transform="translate(0 422) rotate(-90)"/>
</clipPath>
</defs>
</svg>
