<svg width="500" height="497" viewBox="0 0 500 497" fill="none" xmlns="http://www.w3.org/2000/svg">
<path opacity="0.6" d="M486.014 428.235L183.847 346.69L90.9091 5.15845L393.076 86.704L486.014 428.235Z" fill="#F1F1F1"/>
<path opacity="0.6" d="M393.939 497L92.6637 415.454L0 73.923L301.276 155.461L393.939 497Z" fill="#F1F1F1"/>
<path d="M404.429 474.855H391.608V483.014H404.429V474.855Z" fill="#E49D75"/>
<path d="M463.094 459.956L454.327 467.038L460.602 474.807L469.37 467.725L463.094 459.956Z" fill="#E49D75"/>
<path d="M411.691 147.35H411.152C408.726 147.35 406.76 149.425 406.76 151.986V154.369C406.76 156.929 408.726 159.005 411.152 159.005H411.691C414.117 159.005 416.084 156.929 416.084 154.369V151.986C416.084 149.425 414.117 147.35 411.691 147.35Z" fill="#E49D75"/>
<path d="M415.569 316.834C417.207 320.559 429.77 395.308 431.616 402.379C433.462 409.45 462.995 455.547 465.005 458.302C465.622 462.287 456.501 469.028 452.175 469.028C447.849 465.639 397.326 393.072 396.113 389.85C394.901 386.629 390.832 309.536 415.569 316.834Z" fill="#6A6A6A"/>
<path d="M362.499 303.709C361.916 306.819 370.596 377.905 371.674 387.452C372.751 397 389.384 473.912 390.856 475.833C392.327 477.753 403.524 477.339 405.456 476.378C407.389 475.418 401.68 396.181 401.68 390.436C401.68 384.692 416.674 331.707 414.747 316.36C412.82 301.014 362.499 303.709 362.499 303.709Z" fill="#4A4A4A"/>
<path d="M404.429 218.445H392.774V238.259H404.429V218.445Z" fill="#E49D75"/>
<path d="M333.969 83.2471H152.045C145.316 83.2471 139.86 88.7025 139.86 95.4322V277.356C139.86 284.085 145.316 289.541 152.045 289.541H333.969C340.698 289.541 346.154 284.085 346.154 277.356V95.4322C346.154 88.7025 340.698 83.2471 333.969 83.2471Z" fill="#E0E0E0"/>
<path d="M255.822 177.17C258.633 174.558 260.6 171.146 261.464 167.382C262.328 163.619 262.05 159.678 260.666 156.077C259.282 152.476 256.856 149.382 253.707 147.201C250.557 145.02 246.831 143.853 243.015 143.853C239.2 143.853 235.473 145.02 232.323 147.201C229.174 149.382 226.748 152.476 225.364 156.077C223.98 159.678 223.702 163.619 224.566 167.382C225.431 171.146 227.397 174.558 230.208 177.17L215.618 237.093H270.396L255.822 177.17Z" fill="#6A6A6A"/>
<path d="M175.991 83.247C176.149 65.5726 183.218 48.6765 195.66 36.2351C208.101 23.7936 224.908 16.8135 242.424 16.8135C259.94 16.8135 276.747 23.7936 289.189 36.2351C301.63 48.6765 308.699 65.5726 308.858 83.247" stroke="#E0E0E0" stroke-width="32" stroke-linecap="round" stroke-linejoin="round"/>
<path d="M398.019 221.942C406.708 221.942 413.753 212.288 413.753 200.38C413.753 188.472 406.708 178.818 398.019 178.818C389.329 178.818 382.284 188.472 382.284 200.38C382.284 212.288 389.329 221.942 398.019 221.942Z" fill="#E49D75"/>
<path d="M395.534 233.597C376.547 233.597 359.623 286.687 362.874 304.305C363.835 309.509 409.272 320.008 416.217 318.539C418.685 315.153 428.756 233.597 395.534 233.597Z" fill="#FF992F"/>
<path d="M390.077 264.047C398.396 257.742 385.098 227.186 381.99 226.661C376.266 225.695 362.032 237.152 362.481 241.967C362.719 244.507 381.604 270.469 390.077 264.047Z" fill="#FFB262"/>
<path d="M364.262 239.424C361.967 236.673 356.231 223.212 355.603 220.018C354.975 216.824 353.438 168.819 353.438 165.976C353.438 163.133 349.65 155.962 349.65 151.682C349.65 147.402 354.012 141.598 356.231 141.522C358.601 143.203 361.891 153.06 362.043 155.573C362.871 150.169 366.789 148.926 367.86 148.926C368.932 148.926 368.791 157.275 364.354 162.896C364.511 167.024 369.765 207.918 370.615 210.285C371.465 212.652 381.141 228.167 381.119 229.54C381.097 230.913 364.262 239.424 364.262 239.424Z" fill="#E49D75"/>
<path d="M482.367 162.697L289.36 136.327L288.606 141.84L481.614 168.21L482.367 162.697Z" fill="#6A6A6A"/>
<path d="M300.408 143.45L288.605 141.838L286.423 157.807L298.226 159.42L300.408 143.45Z" fill="#A4A4A4"/>
<path d="M311.776 145.006L305.427 144.139L303.246 160.108L309.595 160.976L311.776 145.006Z" fill="#A4A4A4"/>
<path d="M417.175 189.308C416.693 186.745 416.257 168.173 417.001 165.551C417.744 162.928 419.754 161.015 420.654 157.1C420.962 155.754 420.474 151.093 419.493 150.899C417.378 150.477 417.256 152.683 416.977 154.305C415.897 159.836 413.696 158.825 412.679 158.695C411.663 158.565 408.172 158.003 407.027 157.976C405.883 157.949 408.799 160.139 407.91 163.637C407.213 166.389 403.937 184.723 403.263 187.723C405.709 187.815 417.175 189.308 417.175 189.308Z" fill="#E49D75"/>
<path d="M322.611 146.481L316.262 145.614L314.081 161.583L320.43 162.451L322.611 146.481Z" fill="#A4A4A4"/>
<path d="M322.608 146.486L288.605 141.84L287.832 147.499L321.835 152.145L322.608 146.486Z" fill="#A4A4A4"/>
<path d="M487.397 150.979C484.543 150.591 481.638 151.057 479.049 152.319C476.459 153.581 474.302 155.582 472.85 158.069C471.397 160.557 470.715 163.419 470.889 166.294C471.063 169.169 472.085 171.929 473.827 174.223C475.568 176.517 477.951 178.244 480.673 179.185C483.396 180.125 486.336 180.238 489.122 179.508C491.909 178.778 494.417 177.239 496.328 175.084C498.24 172.93 499.47 170.257 499.864 167.404C500.125 165.506 500.01 163.576 499.525 161.724C499.039 159.871 498.194 158.132 497.036 156.607C495.878 155.081 494.431 153.799 492.777 152.833C491.123 151.868 489.295 151.238 487.397 150.979V150.979ZM495.253 166.756C494.987 168.7 494.151 170.521 492.85 171.99C491.549 173.458 489.841 174.508 487.944 175.006C486.046 175.505 484.043 175.429 482.189 174.789C480.334 174.149 478.711 172.973 477.524 171.41C476.338 169.848 475.642 167.968 475.523 166.01C475.405 164.051 475.87 162.102 476.86 160.408C477.85 158.714 479.32 157.352 481.084 156.493C482.849 155.635 484.828 155.319 486.771 155.585C489.377 155.942 491.735 157.319 493.325 159.414C494.915 161.509 495.609 164.15 495.253 166.756V166.756Z" fill="#6A6A6A"/>
<path d="M364.802 162.432C364.067 159.693 362.636 157.297 362.402 155.236V155.3C362.246 152.83 358.86 143.165 356.421 141.522C354.138 141.596 349.65 147.287 349.65 151.484C349.65 154.563 351.766 159.168 352.891 162.501H364.78L364.802 162.432Z" fill="#E49D75"/>
<path d="M383.45 187.388C383.45 194.696 388.609 199.204 396.786 201.718C396.786 211.719 398.331 212.158 398.331 218.247C398.331 231.369 396.093 224.808 396.093 247.465C396.093 261.129 401.815 268.562 412.35 268.562C425.091 268.562 432.401 255.088 432.401 247.828C432.401 238.618 423.286 222.614 422.646 209.324C421.763 191.445 416.203 176.487 402.26 176.487C390.348 176.487 383.45 180.919 383.45 187.388Z" fill="black"/>
<path d="M397.436 206.79C400.011 206.79 402.098 204.964 402.098 202.711C402.098 200.458 400.011 198.632 397.436 198.632C394.861 198.632 392.774 200.458 392.774 202.711C392.774 204.964 394.861 206.79 397.436 206.79Z" fill="#E49D75"/>
<path fill-rule="evenodd" clip-rule="evenodd" d="M469.811 466.697L476.69 475.865L462.3 495.748L448.718 495.834L448.894 489.112L454.348 486.758L459.196 475.075L469.811 466.697Z" fill="#4A4A4A"/>
<path d="M404.429 481.848V495.834H364.802V489.641L390.948 481.848H404.429Z" fill="#4A4A4A"/>
</svg>
