<svg width="500" height="511" viewBox="0 0 500 511" fill="none" xmlns="http://www.w3.org/2000/svg">
<path opacity="0.6" d="M364.984 59.3436C393.199 84.6947 411.664 120.066 441.309 170.906C471.091 221.746 512.16 288.049 496.585 327.578C481.011 367.106 408.517 379.847 340.067 405.769C271.617 431.691 207.174 470.642 147.891 463.049C88.6079 455.456 34.4851 401.33 20.8729 341.466C7.12274 281.459 33.7578 215.727 52.944 155.863C71.9923 96.0065 83.5919 41.9935 116.955 17.5391C150.317 -6.91539 205.456 -1.66082 252.142 8.50345C298.823 18.7931 336.769 33.9988 364.984 59.3436Z" fill="#F1F1F1"/>
<path d="M107.267 485.798H87.6423V509.042H58.8692V485.798H0V477.019L68.0171 384.055H87.6423V461.03H107.267V485.798ZM58.8692 461.03V432.067L38.2973 461.03H58.8692Z" fill="#6A6A6A"/>
<path d="M123.651 446.74C123.651 410.729 134.128 382.337 170.676 382.337C207.042 382.337 217.162 410.729 217.162 446.74C217.162 482.562 207.067 510.76 170.676 510.76C134.128 510.76 123.651 482.562 123.651 446.74ZM188.427 446.74C188.427 425.019 184.232 408.252 170.707 408.252C156.989 408.252 152.23 425.019 152.23 446.74C152.23 468.266 156.989 484.656 170.707 484.656C184.232 484.682 188.427 468.266 188.427 446.74Z" fill="#6A6A6A"/>
<path d="M335.509 485.798H315.883V509.042H287.117V485.798H228.229V477.019L296.258 384.055H315.883V461.03H335.509V485.798ZM287.117 461.03V432.067L266.538 461.03H287.117Z" fill="#6A6A6A"/>
<path d="M336.537 486.375H347.202V477.345H336.537V486.375Z" fill="#DE8E68"/>
<path d="M348.205 484.964V493.993H322.831V490.708L336.029 484.964H348.205Z" fill="#4A4A4A"/>
<path d="M170.758 375.609H181.423V366.579H170.758V375.609Z" fill="#DE8E68"/>
<path d="M182.426 374.198V383.227H157.058V379.948L170.256 374.198H182.426Z" fill="#6A6A6A"/>
<path d="M336.167 253.437C336.706 258.566 348.036 479.728 348.036 479.728H336.167L278.451 271.489L336.167 253.437Z" fill="#4A4A4A"/>
<path d="M342.261 229.07C342.261 259.105 331.22 286.131 308.867 286.131C278.182 286.131 237.558 266.567 226.379 255.525C223.589 263.777 184.012 367.714 184.012 367.714H167.623C167.623 367.714 178.125 246.696 197.813 215.658C204.29 207.03 257.146 209.187 283.85 215.658C310.554 222.129 342.261 229.07 342.261 229.07Z" fill="#6A6A6A"/>
<path d="M263.002 54.0701C263.188 53.1423 263.709 52.3153 264.465 51.7465C265.221 51.1776 266.16 50.9066 267.103 50.9851C269.504 51.1544 273.429 57.5 273.429 62.6354C273.429 67.7709 271.981 69.7021 272.42 73.433C272.859 77.1639 282.358 127.753 282.358 130.838C284.753 131.008 293.324 129.81 293.324 129.81L287.324 153.976H269.855L258.569 56.641L263.002 54.0701Z" fill="#D37C59"/>
<path d="M279.756 62.6858L276.075 77.5591C276.075 77.5591 239.765 73.3392 235.803 72.361C231.84 71.3828 237.809 46.7904 241.878 47.7937C245.948 48.7969 279.756 62.6858 279.756 62.6858Z" fill="black"/>
<path d="M313.024 106.685C359.473 106.685 348.017 226.694 342.594 231.183C337.17 235.673 279.423 220.524 274.627 213.839C269.83 207.155 278.959 106.685 313.024 106.685Z" fill="#FF992F"/>
<path d="M296.446 137.153C293.894 138.018 278.928 143.856 278.928 143.856C278.677 140.846 267.172 81.1521 266.463 77.4965C267.915 73.8478 268.633 69.9484 268.576 66.0217C268.576 56.2211 264.595 48.264 259.685 48.264C254.776 48.264 250.801 56.2211 250.801 66.0217C250.731 70.1238 251.521 74.195 253.121 77.9731C252.569 85.4348 247.615 156.284 257.723 166.385C268.382 177.045 294.296 167.432 310.046 160.272C313.419 159.105 308.823 133.804 296.446 137.153Z" fill="#DE8E68"/>
<path d="M285.332 68.8296L275.939 66.3354L274.197 72.8988L283.59 75.393L285.332 68.8296Z" fill="black"/>
<path d="M342.625 128.732C349.704 142.476 321.671 167.238 313.915 165.395C306.159 163.551 293.65 135.874 295.989 130.908C298.327 125.941 335.741 115.357 342.625 128.732Z" fill="#FFB262"/>
<path d="M315.871 118.317C315.871 120.643 301.682 121.232 301.682 118.317V91.5295H315.871V118.317Z" fill="#D37C59"/>
<path d="M303.651 107.08C313.88 107.08 322.172 93.6693 322.172 77.1264C322.172 60.5835 313.88 47.1729 303.651 47.1729C293.421 47.1729 285.129 60.5835 285.129 77.1264C285.129 93.6693 293.421 107.08 303.651 107.08Z" fill="#DC8E6C"/>
<path d="M289.775 57.2809C289.634 59.4322 290.068 61.5823 291.032 63.5107C291.996 65.439 293.456 67.0761 295.261 68.254C300.785 72.0163 304.723 70.3546 308.773 73.8974C310.911 76.0356 316.147 80.1677 316.197 86.551C316.197 91.2726 317.746 93.6553 319.106 93.6553C320.467 93.6553 324.053 92.7148 326.361 92.7148C349.02 92.7148 375.63 116.11 426.681 116.11C453.347 116.11 495.193 109.381 495.193 70.2167C495.193 49.0667 487.582 23.5087 447.347 23.5087C421.797 23.5087 403.896 36.0494 382.904 36.0494C355.943 36.0494 345.547 26.2864 326.919 26.2864C313.651 26.2864 283.793 33.9739 283.793 54.1144C283.793 61.7642 286.189 63.9839 286.928 64.3789C287.167 63.5387 288.628 59.1996 289.775 57.2809Z" fill="black"/>
<path d="M314.291 88.9461C316.902 88.9461 319.018 86.8293 319.018 84.2182C319.018 81.6071 316.902 79.4904 314.291 79.4904C311.68 79.4904 309.563 81.6071 309.563 84.2182C309.563 86.8293 311.68 88.9461 314.291 88.9461Z" fill="#DC8E6C"/>
</svg>
