<svg width="571" height="274" viewBox="0 0 571 274" fill="none" xmlns="http://www.w3.org/2000/svg">
<g clip-path="url(#clip0)">
<g filter="url(#filter0_d)">
<rect x="53.1776" y="6.32129" width="10.332" height="10.332" rx="2" transform="rotate(121 53.1776 6.32129)" fill="url(#paint0_linear)"/>
</g>
<g filter="url(#filter1_d)">
<rect x="111.378" y="45.3213" width="15.744" height="15.744" rx="2" transform="rotate(-64 111.378 45.3213)" fill="url(#paint1_linear)"/>
</g>
<rect opacity="0.72" x="447.883" y="38.3213" width="14.268" height="14.268" rx="2" transform="rotate(140 447.883 38.3213)" fill="url(#paint2_linear)"/>
<g filter="url(#filter2_d)">
<circle cx="459.974" cy="15.8505" r="11.4" transform="rotate(6 459.974 15.8505)" fill="url(#paint3_linear)"/>
</g>
<path opacity="0.81" d="M105.324 103.322L107.234 96.6472C107.607 95.3418 106.599 94.0516 105.243 94.0982L98.3038 94.3365L105.242 94.0901C106.599 94.0419 107.515 92.6845 107.051 91.4084L104.68 84.8829L107.059 91.4056C107.524 92.6812 109.098 93.1325 110.168 92.2972L115.642 88.026L110.173 92.3036C109.104 93.1402 109.161 94.7765 110.286 95.5364L116.04 99.4221L110.281 95.5431C109.155 94.7845 107.617 95.3445 107.242 96.6495L105.324 103.322Z" fill="url(#paint4_linear)"/>
<g filter="url(#filter3_d)">
<rect x="58.2282" y="62.0801" width="18.86" height="18.86" rx="2" transform="rotate(-21 58.2282 62.0801)" fill="url(#paint5_linear)"/>
</g>
<circle opacity="0.94" cx="176.248" cy="73.3854" r="10.7" transform="rotate(134 176.248 73.3854)" fill="url(#paint6_linear)"/>
<circle cx="396.777" cy="73.898" r="6" transform="rotate(82 396.777 73.898)" fill="url(#paint7_linear)"/>
<path d="M458.323 111.05L452.623 106.913C451.524 106.116 449.967 106.622 449.546 107.913L447.366 114.61L449.539 107.91C449.957 106.619 448.995 105.294 447.637 105.294L440.595 105.289L447.637 105.285C448.995 105.284 449.957 103.96 449.539 102.668L447.366 95.9691L449.546 102.666C449.967 103.957 451.524 104.463 452.623 103.665L458.323 99.5291L452.628 103.672C451.53 104.471 451.53 106.108 452.628 106.907L458.323 111.05Z" fill="url(#paint8_linear)"/>
<path opacity="0.82" d="M511.27 96.6817C510.82 95.2094 512.133 93.8019 513.633 94.1482L524.771 96.7198C526.271 97.0661 526.834 98.9065 525.784 100.033L517.988 108.393C516.938 109.519 515.063 109.086 514.612 107.614L511.27 96.6817Z" fill="url(#paint9_linear)"/>
<g filter="url(#filter4_d)">
<path d="M55.5883 131.396L53.6825 122.455C53.3994 121.127 51.9037 120.462 50.7274 121.14L42.8084 125.706L50.7221 121.13C51.8975 120.451 52.0686 118.823 51.0602 117.913L44.2707 111.793L51.0674 117.905C52.0769 118.813 53.6784 118.473 54.2314 117.233L57.9543 108.884L54.2412 117.237C53.6897 118.478 54.5083 119.896 55.8585 120.039L64.9489 120.999L55.8574 120.049C54.507 119.908 53.4115 121.125 53.693 122.453L55.5883 131.396Z" fill="url(#paint10_linear)"/>
</g>
<g filter="url(#filter5_d)">
<path d="M143.512 113.647C144.235 115.007 143.215 116.639 141.676 116.585L134.752 116.343C133.214 116.289 132.31 114.59 133.126 113.284L136.797 107.409C137.613 106.103 139.537 106.171 140.259 107.53L143.512 113.647Z" fill="url(#paint11_linear)"/>
</g>
<circle opacity="0.96" cx="90.8606" cy="154.861" r="10" transform="rotate(12 90.8606 154.861)" fill="url(#paint12_linear)"/>
<circle opacity="0.78" cx="483.695" cy="148.813" r="6.7" transform="rotate(-119 483.695 148.813)" fill="url(#paint13_linear)"/>
<circle opacity="0.89" cx="512.281" cy="147.31" r="6.2" transform="rotate(139 512.281 147.31)" fill="url(#paint14_linear)"/>
<path opacity="0.86" d="M61.0769 211.192C61.3707 209.68 63.1903 209.054 64.3523 210.064L70.8882 215.745C72.0502 216.755 71.683 218.645 70.2273 219.146L62.0388 221.965C60.5831 222.467 59.1307 221.204 59.4244 219.693L61.0769 211.192Z" fill="url(#paint15_linear)"/>
<g filter="url(#filter6_d)">
<circle cx="189.635" cy="207.881" r="6.5" transform="rotate(153 189.635 207.881)" fill="url(#paint16_linear)"/>
</g>
<g filter="url(#filter7_d)">
<path d="M437.867 213.047L439.297 219.227C439.604 220.55 441.111 221.19 442.275 220.491L447.714 217.227L442.279 220.497C441.115 221.197 440.973 222.828 441.997 223.72L446.782 227.884L441.992 223.725C440.967 222.835 439.371 223.203 438.84 224.453L436.358 230.291L438.833 224.45C439.363 223.2 438.52 221.797 437.167 221.677L430.848 221.121L437.168 221.67C438.521 221.788 439.595 220.552 439.29 219.229L437.867 213.047Z" fill="url(#paint17_linear)"/>
</g>
<g filter="url(#filter8_d)">
<circle cx="470.748" cy="165.388" r="9.5" transform="rotate(-89 470.748 165.388)" fill="url(#paint18_linear)"/>
</g>
<path opacity="0.78" d="M522.658 189.797C521.311 190.543 519.662 189.552 519.689 188.013L519.758 184.03C519.785 182.49 521.468 181.557 522.788 182.35L526.203 184.402C527.522 185.195 527.489 187.119 526.142 187.866L522.658 189.797Z" fill="url(#paint19_linear)"/>
<g filter="url(#filter9_d)">
<circle cx="96.3606" cy="212.999" r="11.7" transform="rotate(-76 96.3606 212.999)" fill="url(#paint20_linear)"/>
</g>
<g filter="url(#filter10_d)">
<path d="M146.786 232.454L150.626 235.24C151.725 236.038 153.282 235.532 153.702 234.241L155.171 229.729L153.708 234.242C153.289 235.534 154.251 236.858 155.609 236.859L160.354 236.862L155.609 236.865C154.251 236.866 153.289 238.19 153.708 239.482L155.171 243.995L153.702 239.483C153.282 238.192 151.725 237.686 150.626 238.484L146.786 241.27L150.623 238.479C151.721 237.681 151.721 236.043 150.623 235.245L146.786 232.454Z" fill="url(#paint21_linear)"/>
</g>
<circle opacity="0.84" cx="336.811" cy="253.986" r="12" transform="rotate(-148 336.811 253.986)" fill="url(#paint22_linear)"/>
<rect opacity="0.83" x="410.828" y="257.521" width="17.22" height="17.22" rx="2" transform="rotate(111 410.828 257.521)" fill="url(#paint23_linear)"/>
<g filter="url(#filter11_d)">
<rect x="497.028" y="222.521" width="14.268" height="14.268" rx="2" transform="rotate(151 497.028 222.521)" fill="url(#paint24_linear)"/>
</g>
<g filter="url(#filter12_d)">
<mask id="mask0" mask-type="alpha" maskUnits="userSpaceOnUse" x="158" y="53" width="256" height="169">
<rect x="158.5" y="53.5" width="255" height="168" rx="19.5" fill="url(#paint25_linear)" stroke="black"/>
</mask>
<g mask="url(#mask0)">
<rect x="158" y="53" width="256" height="169" rx="20" fill="url(#paint26_linear)"/>
<g filter="url(#filter13_d)">
<rect x="286" y="-147" width="230" height="230" rx="20" transform="rotate(45 286 -147)" fill="white"/>
</g>
<path d="M380.669 161.009C381.405 160.271 381.405 159.078 380.669 158.341V158.341C379.931 157.601 378.733 157.601 377.995 158.341L351.174 185.231C350.392 186.014 349.123 186.014 348.342 185.231L342.005 178.878C341.267 178.138 340.069 178.138 339.331 178.878V178.878C338.595 179.616 338.595 180.809 339.331 181.546L348.342 190.58C349.123 191.364 350.392 191.364 351.174 190.58L380.669 161.009Z" fill="white" stroke="white" stroke-width="3"/>
</g>
</g>
</g>
<defs>
<filter id="filter0_d" x="19" y="-15" width="54.1776" height="54.1776" filterUnits="userSpaceOnUse" color-interpolation-filters="sRGB">
<feFlood flood-opacity="0" result="BackgroundImageFix"/>
<feColorMatrix in="SourceAlpha" type="matrix" values="0 0 0 0 0 0 0 0 0 0 0 0 0 0 0 0 0 0 127 0"/>
<feOffset dy="4"/>
<feGaussianBlur stdDeviation="10"/>
<feColorMatrix type="matrix" values="0 0 0 0 0.980392 0 0 0 0 0.521569 0 0 0 0 0.0431373 0 0 0 0.05 0"/>
<feBlend mode="normal" in2="BackgroundImageFix" result="effect1_dropShadow"/>
<feBlend mode="normal" in="SourceGraphic" in2="effect1_dropShadow" result="shape"/>
</filter>
<filter id="filter1_d" x="91.3776" y="15.1707" width="61.0523" height="61.0523" filterUnits="userSpaceOnUse" color-interpolation-filters="sRGB">
<feFlood flood-opacity="0" result="BackgroundImageFix"/>
<feColorMatrix in="SourceAlpha" type="matrix" values="0 0 0 0 0 0 0 0 0 0 0 0 0 0 0 0 0 0 127 0"/>
<feOffset dy="4"/>
<feGaussianBlur stdDeviation="10"/>
<feColorMatrix type="matrix" values="0 0 0 0 0.980392 0 0 0 0 0.521569 0 0 0 0 0.0431373 0 0 0 0.05 0"/>
<feBlend mode="normal" in2="BackgroundImageFix" result="effect1_dropShadow"/>
<feBlend mode="normal" in="SourceGraphic" in2="effect1_dropShadow" result="shape"/>
</filter>
<filter id="filter2_d" x="427.445" y="-12.6787" width="65.0583" height="65.0583" filterUnits="userSpaceOnUse" color-interpolation-filters="sRGB">
<feFlood flood-opacity="0" result="BackgroundImageFix"/>
<feColorMatrix in="SourceAlpha" type="matrix" values="0 0 0 0 0 0 0 0 0 0 0 0 0 0 0 0 0 0 127 0"/>
<feOffset dy="4"/>
<feGaussianBlur stdDeviation="10"/>
<feColorMatrix type="matrix" values="0 0 0 0 0.980392 0 0 0 0 0.521569 0 0 0 0 0.0431373 0 0 0 0.05 0"/>
<feBlend mode="normal" in2="BackgroundImageFix" result="effect1_dropShadow"/>
<feBlend mode="normal" in="SourceGraphic" in2="effect1_dropShadow" result="shape"/>
</filter>
<filter id="filter3_d" x="38.2282" y="39.3213" width="64.3661" height="64.3661" filterUnits="userSpaceOnUse" color-interpolation-filters="sRGB">
<feFlood flood-opacity="0" result="BackgroundImageFix"/>
<feColorMatrix in="SourceAlpha" type="matrix" values="0 0 0 0 0 0 0 0 0 0 0 0 0 0 0 0 0 0 127 0"/>
<feOffset dy="4"/>
<feGaussianBlur stdDeviation="10"/>
<feColorMatrix type="matrix" values="0 0 0 0 0.980392 0 0 0 0 0.521569 0 0 0 0 0.0431373 0 0 0 0.05 0"/>
<feBlend mode="normal" in2="BackgroundImageFix" result="effect1_dropShadow"/>
<feBlend mode="normal" in="SourceGraphic" in2="effect1_dropShadow" result="shape"/>
</filter>
<filter id="filter4_d" x="20.0422" y="91.9856" width="66.6163" height="65.763" filterUnits="userSpaceOnUse" color-interpolation-filters="sRGB">
<feFlood flood-opacity="0" result="BackgroundImageFix"/>
<feColorMatrix in="SourceAlpha" type="matrix" values="0 0 0 0 0 0 0 0 0 0 0 0 0 0 0 0 0 0 127 0"/>
<feOffset dy="4"/>
<feGaussianBlur stdDeviation="10"/>
<feColorMatrix type="matrix" values="0 0 0 0 0.980392 0 0 0 0 0.521569 0 0 0 0 0.0431373 0 0 0 0.05 0"/>
<feBlend mode="normal" in2="BackgroundImageFix" result="effect1_dropShadow"/>
<feBlend mode="normal" in="SourceGraphic" in2="effect1_dropShadow" result="shape"/>
</filter>
<filter id="filter5_d" x="112.065" y="89.7104" width="54.2747" height="54.5719" filterUnits="userSpaceOnUse" color-interpolation-filters="sRGB">
<feFlood flood-opacity="0" result="BackgroundImageFix"/>
<feColorMatrix in="SourceAlpha" type="matrix" values="0 0 0 0 0 0 0 0 0 0 0 0 0 0 0 0 0 0 127 0"/>
<feOffset dy="4"/>
<feGaussianBlur stdDeviation="10"/>
<feColorMatrix type="matrix" values="0 0 0 0 0.980392 0 0 0 0 0.521569 0 0 0 0 0.0431373 0 0 0 0.05 0"/>
<feBlend mode="normal" in2="BackgroundImageFix" result="effect1_dropShadow"/>
<feBlend mode="normal" in="SourceGraphic" in2="effect1_dropShadow" result="shape"/>
</filter>
<filter id="filter6_d" x="160.893" y="183.138" width="57.485" height="57.485" filterUnits="userSpaceOnUse" color-interpolation-filters="sRGB">
<feFlood flood-opacity="0" result="BackgroundImageFix"/>
<feColorMatrix in="SourceAlpha" type="matrix" values="0 0 0 0 0 0 0 0 0 0 0 0 0 0 0 0 0 0 127 0"/>
<feOffset dy="4"/>
<feGaussianBlur stdDeviation="10"/>
<feColorMatrix type="matrix" values="0 0 0 0 0.980392 0 0 0 0 0.521569 0 0 0 0 0.0431373 0 0 0 0.05 0"/>
<feBlend mode="normal" in2="BackgroundImageFix" result="effect1_dropShadow"/>
<feBlend mode="normal" in="SourceGraphic" in2="effect1_dropShadow" result="shape"/>
</filter>
<filter id="filter7_d" x="409.434" y="195.1" width="60.5688" height="59.9339" filterUnits="userSpaceOnUse" color-interpolation-filters="sRGB">
<feFlood flood-opacity="0" result="BackgroundImageFix"/>
<feColorMatrix in="SourceAlpha" type="matrix" values="0 0 0 0 0 0 0 0 0 0 0 0 0 0 0 0 0 0 127 0"/>
<feOffset dy="4"/>
<feGaussianBlur stdDeviation="10"/>
<feColorMatrix type="matrix" values="0 0 0 0 0.980392 0 0 0 0 0.521569 0 0 0 0 0.0431373 0 0 0 0.05 0"/>
<feBlend mode="normal" in2="BackgroundImageFix" result="effect1_dropShadow"/>
<feBlend mode="normal" in="SourceGraphic" in2="effect1_dropShadow" result="shape"/>
</filter>
<filter id="filter8_d" x="441.083" y="139.724" width="59.3287" height="59.3287" filterUnits="userSpaceOnUse" color-interpolation-filters="sRGB">
<feFlood flood-opacity="0" result="BackgroundImageFix"/>
<feColorMatrix in="SourceAlpha" type="matrix" values="0 0 0 0 0 0 0 0 0 0 0 0 0 0 0 0 0 0 127 0"/>
<feOffset dy="4"/>
<feGaussianBlur stdDeviation="10"/>
<feColorMatrix type="matrix" values="0 0 0 0 0.980392 0 0 0 0 0.521569 0 0 0 0 0.0431373 0 0 0 0.05 0"/>
<feBlend mode="normal" in2="BackgroundImageFix" result="effect1_dropShadow"/>
<feBlend mode="normal" in="SourceGraphic" in2="effect1_dropShadow" result="shape"/>
</filter>
<filter id="filter9_d" x="62.1776" y="182.816" width="68.3659" height="68.3659" filterUnits="userSpaceOnUse" color-interpolation-filters="sRGB">
<feFlood flood-opacity="0" result="BackgroundImageFix"/>
<feColorMatrix in="SourceAlpha" type="matrix" values="0 0 0 0 0 0 0 0 0 0 0 0 0 0 0 0 0 0 127 0"/>
<feOffset dy="4"/>
<feGaussianBlur stdDeviation="10"/>
<feColorMatrix type="matrix" values="0 0 0 0 0.980392 0 0 0 0 0.521569 0 0 0 0 0.0431373 0 0 0 0.05 0"/>
<feBlend mode="normal" in2="BackgroundImageFix" result="effect1_dropShadow"/>
<feBlend mode="normal" in="SourceGraphic" in2="effect1_dropShadow" result="shape"/>
</filter>
<filter id="filter10_d" x="122.593" y="210.683" width="59.3617" height="59.5162" filterUnits="userSpaceOnUse" color-interpolation-filters="sRGB">
<feFlood flood-opacity="0" result="BackgroundImageFix"/>
<feColorMatrix in="SourceAlpha" type="matrix" values="0 0 0 0 0 0 0 0 0 0 0 0 0 0 0 0 0 0 127 0"/>
<feOffset dy="4"/>
<feGaussianBlur stdDeviation="10"/>
<feColorMatrix type="matrix" values="0 0 0 0 0.980392 0 0 0 0 0.521569 0 0 0 0 0.0431373 0 0 0 0.05 0"/>
<feBlend mode="normal" in2="BackgroundImageFix" result="effect1_dropShadow"/>
<feBlend mode="normal" in="SourceGraphic" in2="effect1_dropShadow" result="shape"/>
</filter>
<filter id="filter11_d" x="457.632" y="194.042" width="59.3963" height="59.3963" filterUnits="userSpaceOnUse" color-interpolation-filters="sRGB">
<feFlood flood-opacity="0" result="BackgroundImageFix"/>
<feColorMatrix in="SourceAlpha" type="matrix" values="0 0 0 0 0 0 0 0 0 0 0 0 0 0 0 0 0 0 127 0"/>
<feOffset dy="4"/>
<feGaussianBlur stdDeviation="10"/>
<feColorMatrix type="matrix" values="0 0 0 0 0.980392 0 0 0 0 0.521569 0 0 0 0 0.0431373 0 0 0 0.05 0"/>
<feBlend mode="normal" in2="BackgroundImageFix" result="effect1_dropShadow"/>
<feBlend mode="normal" in="SourceGraphic" in2="effect1_dropShadow" result="shape"/>
</filter>
<filter id="filter12_d" x="138" y="38" width="296" height="209" filterUnits="userSpaceOnUse" color-interpolation-filters="sRGB">
<feFlood flood-opacity="0" result="BackgroundImageFix"/>
<feColorMatrix in="SourceAlpha" type="matrix" values="0 0 0 0 0 0 0 0 0 0 0 0 0 0 0 0 0 0 127 0"/>
<feOffset dy="5"/>
<feGaussianBlur stdDeviation="10"/>
<feColorMatrix type="matrix" values="0 0 0 0 0.980392 0 0 0 0 0.521569 0 0 0 0 0.0431373 0 0 0 0.3 0"/>
<feBlend mode="normal" in2="BackgroundImageFix" result="effect1_dropShadow"/>
<feBlend mode="normal" in="SourceGraphic" in2="effect1_dropShadow" result="shape"/>
</filter>
<filter id="filter13_d" x="103.365" y="-167" width="365.269" height="365.269" filterUnits="userSpaceOnUse" color-interpolation-filters="sRGB">
<feFlood flood-opacity="0" result="BackgroundImageFix"/>
<feColorMatrix in="SourceAlpha" type="matrix" values="0 0 0 0 0 0 0 0 0 0 0 0 0 0 0 0 0 0 127 0"/>
<feOffset/>
<feGaussianBlur stdDeviation="10"/>
<feColorMatrix type="matrix" values="0 0 0 0 0.845833 0 0 0 0 0.45675 0 0 0 0 0 0 0 0 1 0"/>
<feBlend mode="normal" in2="BackgroundImageFix" result="effect1_dropShadow"/>
<feBlend mode="normal" in="SourceGraphic" in2="effect1_dropShadow" result="shape"/>
</filter>
<linearGradient id="paint0_linear" x1="58.3436" y1="6.32129" x2="66.397" y2="13.3407" gradientUnits="userSpaceOnUse">
<stop stop-color="#FA850B"/>
<stop offset="1" stop-color="#FA280B"/>
</linearGradient>
<linearGradient id="paint1_linear" x1="119.25" y1="45.3213" x2="131.521" y2="56.0175" gradientUnits="userSpaceOnUse">
<stop stop-color="#FA850B"/>
<stop offset="1" stop-color="#FA280B"/>
</linearGradient>
<linearGradient id="paint2_linear" x1="455.017" y1="38.3213" x2="455.017" y2="52.5893" gradientUnits="userSpaceOnUse">
<stop/>
<stop offset="1" stop-color="#4A4A4A"/>
</linearGradient>
<linearGradient id="paint3_linear" x1="459.974" y1="4.45046" x2="477.746" y2="19.9404" gradientUnits="userSpaceOnUse">
<stop stop-color="#FA850B"/>
<stop offset="1" stop-color="#FA280B"/>
</linearGradient>
<linearGradient id="paint4_linear" x1="105.324" y1="103.322" x2="110.672" y2="84.6737" gradientUnits="userSpaceOnUse">
<stop/>
<stop offset="1" stop-color="#4A4A4A"/>
</linearGradient>
<linearGradient id="paint5_linear" x1="67.6582" y1="62.0801" x2="82.3587" y2="74.8932" gradientUnits="userSpaceOnUse">
<stop stop-color="#FA850B"/>
<stop offset="1" stop-color="#FA280B"/>
</linearGradient>
<linearGradient id="paint6_linear" x1="176.248" y1="62.6854" x2="176.248" y2="84.0854" gradientUnits="userSpaceOnUse">
<stop/>
<stop offset="1" stop-color="#4A4A4A"/>
</linearGradient>
<linearGradient id="paint7_linear" x1="396.777" y1="67.898" x2="396.777" y2="79.898" gradientUnits="userSpaceOnUse">
<stop/>
<stop offset="1" stop-color="#4A4A4A"/>
</linearGradient>
<linearGradient id="paint8_linear" x1="458.323" y1="111.05" x2="442.466" y2="99.5291" gradientUnits="userSpaceOnUse">
<stop/>
<stop offset="1" stop-color="#4A4A4A"/>
</linearGradient>
<linearGradient id="paint9_linear" x1="510.257" y1="93.369" x2="525.762" y2="107.827" gradientUnits="userSpaceOnUse">
<stop/>
<stop offset="1" stop-color="#4A4A4A"/>
</linearGradient>
<linearGradient id="paint10_linear" x1="55.5883" y1="131.396" x2="34.0808" y2="119.437" gradientUnits="userSpaceOnUse">
<stop stop-color="#FA850B"/>
<stop offset="1" stop-color="#FA280B"/>
</linearGradient>
<linearGradient id="paint11_linear" x1="145.138" y1="116.706" x2="129.311" y2="121.522" gradientUnits="userSpaceOnUse">
<stop stop-color="#FA850B"/>
<stop offset="1" stop-color="#FA280B"/>
</linearGradient>
<linearGradient id="paint12_linear" x1="90.8606" y1="144.861" x2="90.8606" y2="164.861" gradientUnits="userSpaceOnUse">
<stop/>
<stop offset="1" stop-color="#4A4A4A"/>
</linearGradient>
<linearGradient id="paint13_linear" x1="483.695" y1="142.113" x2="483.695" y2="155.513" gradientUnits="userSpaceOnUse">
<stop/>
<stop offset="1" stop-color="#4A4A4A"/>
</linearGradient>
<linearGradient id="paint14_linear" x1="512.281" y1="141.11" x2="512.281" y2="153.51" gradientUnits="userSpaceOnUse">
<stop/>
<stop offset="1" stop-color="#4A4A4A"/>
</linearGradient>
<linearGradient id="paint15_linear" x1="61.7379" y1="207.791" x2="67.5981" y2="224.81" gradientUnits="userSpaceOnUse">
<stop/>
<stop offset="1" stop-color="#4A4A4A"/>
</linearGradient>
<linearGradient id="paint16_linear" x1="189.635" y1="201.381" x2="199.768" y2="210.213" gradientUnits="userSpaceOnUse">
<stop stop-color="#FA850B"/>
<stop offset="1" stop-color="#FA280B"/>
</linearGradient>
<linearGradient id="paint17_linear" x1="437.867" y1="213.047" x2="454.471" y2="221.904" gradientUnits="userSpaceOnUse">
<stop stop-color="#FA850B"/>
<stop offset="1" stop-color="#FA280B"/>
</linearGradient>
<linearGradient id="paint18_linear" x1="470.748" y1="155.888" x2="485.557" y2="168.797" gradientUnits="userSpaceOnUse">
<stop stop-color="#FA850B"/>
<stop offset="1" stop-color="#FA280B"/>
</linearGradient>
<linearGradient id="paint19_linear" x1="519.628" y1="191.476" x2="526.118" y2="180.676" gradientUnits="userSpaceOnUse">
<stop/>
<stop offset="1" stop-color="#4A4A4A"/>
</linearGradient>
<linearGradient id="paint20_linear" x1="96.3606" y1="201.299" x2="114.6" y2="217.197" gradientUnits="userSpaceOnUse">
<stop stop-color="#FA850B"/>
<stop offset="1" stop-color="#FA280B"/>
</linearGradient>
<linearGradient id="paint21_linear" x1="146.786" y1="232.454" x2="161.903" y2="228.985" gradientUnits="userSpaceOnUse">
<stop stop-color="#FA850B"/>
<stop offset="1" stop-color="#FA280B"/>
</linearGradient>
<linearGradient id="paint22_linear" x1="336.811" y1="241.986" x2="336.811" y2="265.986" gradientUnits="userSpaceOnUse">
<stop/>
<stop offset="1" stop-color="#4A4A4A"/>
</linearGradient>
<linearGradient id="paint23_linear" x1="419.438" y1="257.521" x2="419.438" y2="274.741" gradientUnits="userSpaceOnUse">
<stop/>
<stop offset="1" stop-color="#4A4A4A"/>
</linearGradient>
<linearGradient id="paint24_linear" x1="504.162" y1="222.521" x2="515.283" y2="232.215" gradientUnits="userSpaceOnUse">
<stop stop-color="#FA850B"/>
<stop offset="1" stop-color="#FA280B"/>
</linearGradient>
<linearGradient id="paint25_linear" x1="286" y1="53" x2="414" y2="222" gradientUnits="userSpaceOnUse">
<stop stop-color="#FA850B"/>
<stop offset="1" stop-color="#FA280B"/>
</linearGradient>
<linearGradient id="paint26_linear" x1="286" y1="53" x2="414" y2="222" gradientUnits="userSpaceOnUse">
<stop stop-color="#FA850B"/>
<stop offset="1" stop-color="#FA280B"/>
</linearGradient>
<clipPath id="clip0">
<rect width="571" height="274" fill="white"/>
</clipPath>
</defs>
</svg>
