<svg width="1380" height="144" viewBox="0 0 1380 144" fill="none" xmlns="http://www.w3.org/2000/svg">
<path opacity="0.2" d="M1217.35 81.408C1207.19 77.4956 1196.45 75.2707 1185.56 74.821L156.135 32.2947C151.521 32.1041 146.983 33.516 143.292 36.2906L0 144H1380L1217.35 81.408Z" fill="white"/>
<path opacity="0.2" d="M1218.26 81.7564C1207.5 77.6166 1196.11 75.3678 1184.58 75.1093L96.4407 50.7006C90.7517 50.5729 85.2776 52.8748 81.3893 57.0297L0 144H1380L1218.26 81.7564Z" fill="white"/>
<path opacity="0.2" d="M1219.34 82.1722C1207.88 77.7618 1195.7 75.5 1183.42 75.5H40.6144C32.3995 75.5 25.02 80.5233 22.0076 88.1659L0 144H1380L1219.34 82.1722Z" fill="white"/>
<path opacity="0.2" d="M247 112.5L1232.19 1.60424C1238.37 0.908172 1244.53 3.13018 1248.84 7.61555L1380 144H0L247 112.5Z" fill="white"/>
<path opacity="0.2" d="M247 112.5L1282.96 14.6373C1290.36 13.938 1297.54 17.4029 1301.6 23.6331L1380 144H0L247 112.5Z" fill="white"/>
<path opacity="0.2" d="M247 112.5L1328.8 34.1372C1338.01 33.47 1346.48 39.1963 1349.29 47.9926L1380 144H0L247 112.5Z" fill="white"/>
<path d="M174.93 76.6816C176.963 75.8991 179.11 75.4541 181.287 75.3642L1213.16 32.7368C1224.7 32.2603 1236.04 35.7899 1245.27 42.7264L1380 144H0L174.93 76.6816Z" fill="white"/>
</svg>
