<svg width="10" height="10" viewBox="0 0 10 10" fill="none" xmlns="http://www.w3.org/2000/svg">
<path d="M1.36593 0.516482C1.13662 0.235405 0.718806 0.203305 0.449248 0.446053V0.446053C0.197668 0.672612 0.168156 1.05673 0.382174 1.31906L2.86948 4.36785C3.16969 4.73582 3.16969 5.26418 2.86948 5.63215L0.382174 8.68094C0.168155 8.94327 0.197668 9.32739 0.449248 9.55395V9.55395C0.718806 9.7967 1.13662 9.76459 1.36593 9.48352L4.50801 5.63215C4.80822 5.26418 4.80822 4.73582 4.50801 4.36785L1.36593 0.516482Z" fill="#ffffff"/>
<path d="M6.34219 0.516482C6.11287 0.235405 5.69506 0.203305 5.42551 0.446053V0.446053C5.17393 0.672612 5.14441 1.05673 5.35843 1.31906L7.84574 4.36785C8.14594 4.73582 8.14594 5.26418 7.84574 5.63215L5.35843 8.68094C5.14441 8.94327 5.17393 9.32739 5.42551 9.55395V9.55395C5.69506 9.7967 6.11287 9.76459 6.34219 9.48352L9.48427 5.63215C9.78447 5.26418 9.78447 4.73582 9.48427 4.36785L6.34219 0.516482Z" fill="#ffffff"/>
</svg>
