<svg width="24" height="24" viewBox="0 0 24 24" fill="none" xmlns="http://www.w3.org/2000/svg">
<path d="M8.32564 10.9162C8.32247 11.6755 8.32564 12.4347 8.32886 13.1939C9.60169 13.2354 10.8776 13.2162 12.1505 13.2354C11.5891 16.0585 7.74831 16.974 5.71628 15.1302C3.62681 13.5129 3.7257 9.96566 5.8981 8.46317C7.41654 7.25097 9.57616 7.55081 11.0946 8.60033C11.6911 8.04848 12.2493 7.45832 12.7884 6.84584C11.5252 5.83781 9.97489 5.12005 8.32564 5.19664C4.88368 5.08179 1.7192 8.09632 1.6618 11.5383C1.44167 14.3519 3.29187 17.1112 5.90449 18.1065C8.50751 19.1081 11.8442 18.4255 13.5062 16.0872C14.6036 14.6103 14.8396 12.709 14.712 10.9226C12.5811 10.9067 10.4534 10.9098 8.32564 10.9162Z" fill="black"/>
<path d="M20.7728 10.9066C20.7664 10.2718 20.7633 9.63381 20.7601 8.99902C20.1253 8.99902 19.4937 8.99902 18.862 8.99902C18.8557 9.63385 18.8493 10.2686 18.8461 10.9066C18.2081 10.9098 17.5733 10.913 16.9385 10.9194C16.9385 11.5542 16.9385 12.1858 16.9385 12.8175C17.5733 12.8239 18.2113 12.8302 18.8461 12.8366C18.8525 13.4714 18.8525 14.1062 18.8589 14.741C19.4937 14.741 20.1253 14.741 20.7601 14.741C20.7633 14.1062 20.7664 13.4714 20.7728 12.8334C21.4108 12.827 22.0457 12.8239 22.6804 12.8175C22.6804 12.1858 22.6804 11.551 22.6804 10.9194C22.0457 10.913 21.4077 10.913 20.7728 10.9066Z" fill="black"/>
</svg>
