<svg width="24" height="24" viewBox="0 0 24 24" fill="none" xmlns="http://www.w3.org/2000/svg">
<path fill-rule="evenodd" clip-rule="evenodd" d="M15.6731 11.9188C15.6731 10.8365 15.2903 9.91304 14.5257 9.14733C14.1668 8.77698 13.7359 8.4841 13.2594 8.28675C12.7829 8.0894 12.2711 7.99178 11.7554 7.9999C10.6731 7.9999 9.74971 8.38276 8.98514 9.14733C8.61444 9.50626 8.32127 9.93737 8.12372 10.414C7.92617 10.8907 7.82844 11.4028 7.83657 11.9188C7.83657 12.9999 8.21943 13.9233 8.98514 14.689C9.34403 15.0594 9.77501 15.3523 10.2515 15.5496C10.7279 15.747 11.2398 15.8446 11.7554 15.8365C12.8366 15.8365 13.76 15.4536 14.5257 14.689C14.8961 14.3302 15.1889 13.8992 15.3863 13.4227C15.5836 12.9463 15.6813 12.4344 15.6731 11.9188ZM17.7851 11.9188C17.7851 13.5919 17.1989 15.0159 16.0251 16.1885C14.8526 17.3622 13.4286 17.9485 11.7554 17.9485C10.0811 17.9485 8.65829 17.3622 7.48457 16.1885C6.31086 15.0148 5.72457 13.5919 5.72457 11.9188C5.72457 10.2445 6.31086 8.82162 7.48457 7.6479C8.65829 6.47419 10.0811 5.8879 11.7554 5.8879C13.4286 5.8879 14.8526 6.47419 16.0251 7.6479C17.1989 8.82162 17.7851 10.2445 17.7851 11.9188ZM19.4389 5.64219C19.4389 6.03076 19.3017 6.36219 19.0251 6.63762C18.8964 6.7708 18.7418 6.87621 18.5708 6.94736C18.3998 7.01852 18.2161 7.0539 18.0309 7.05133C17.6423 7.05133 17.3109 6.91419 17.0366 6.63762C16.9034 6.5089 16.798 6.35429 16.7268 6.18328C16.6557 6.01228 16.6203 5.82853 16.6229 5.64333C16.6229 5.25476 16.76 4.92333 17.0354 4.6479C17.3109 4.37247 17.6423 4.23419 18.0297 4.23419C18.4183 4.23419 18.7497 4.37133 19.0251 4.6479C19.3006 4.92333 19.4389 5.25476 19.4389 5.64219ZM11.7554 2.27533L10.5829 2.26733C10.0446 2.2621 9.50627 2.2621 8.968 2.26733C8.60114 2.27304 8.10857 2.2879 7.49143 2.31304C6.87429 2.33933 6.34857 2.39076 5.91429 2.46619C5.54178 2.52683 5.17565 2.62171 4.82057 2.74962C4.30971 2.95419 3.86057 3.25019 3.47314 3.63762C3.08457 4.02619 2.78971 4.47419 2.58514 4.98504C2.45763 5.34016 2.36313 5.70628 2.30286 6.07876C2.22629 6.51304 2.17486 7.03876 2.14971 7.6559C2.12343 8.27304 2.10857 8.76447 2.104 9.13247C2.09877 9.67075 2.09877 10.2091 2.104 10.7473L2.11086 11.9188L2.104 13.089C2.09877 13.6273 2.09877 14.1656 2.104 14.7039C2.10857 15.0719 2.12343 15.5633 2.14971 16.1805C2.17486 16.7976 2.22629 17.3233 2.30286 17.7576C2.37943 18.1919 2.47429 18.5565 2.58514 18.8525C2.78971 19.3622 3.08571 19.8113 3.47314 20.1988C3.86171 20.5873 4.30971 20.8822 4.82057 21.0868C5.11657 21.1988 5.48114 21.2925 5.91429 21.3702C6.34857 21.4468 6.87429 21.497 7.49143 21.5233C8.10857 21.5485 8.6 21.5633 8.968 21.569C9.336 21.5736 9.87429 21.5736 10.5829 21.569L11.7543 21.561L12.9246 21.569C13.6331 21.5736 14.1726 21.5736 14.5394 21.569C14.9074 21.5633 15.3989 21.5485 16.0171 21.5233C16.6343 21.497 17.16 21.4468 17.5943 21.3702C18.0274 21.2936 18.392 21.1988 18.688 21.0868C19.1977 20.8822 19.6469 20.5862 20.0343 20.1988C20.4229 19.8102 20.7177 19.3622 20.9223 18.8525C21.0503 18.497 21.1451 18.1305 21.2057 17.7576C21.2823 17.3233 21.3326 16.7976 21.3589 16.1805C21.384 15.5633 21.3989 15.0719 21.4046 14.7039C21.4098 14.1656 21.4098 13.6273 21.4046 13.089L21.3966 11.9188L21.4046 10.7473C21.4098 10.2091 21.4098 9.67075 21.4046 9.13247C21.3957 8.6401 21.3805 8.14787 21.3589 7.6559C21.3326 7.03876 21.2823 6.51304 21.2057 6.07876C21.1451 5.70625 21.0502 5.34012 20.9223 4.98504C20.7216 4.47986 20.4194 4.02125 20.0343 3.63762C19.651 3.25265 19.1928 2.95042 18.688 2.74962C18.3325 2.62164 17.966 2.52676 17.5931 2.46619C17.1589 2.39076 16.6331 2.33933 16.016 2.31419C15.3989 2.2879 14.9074 2.27304 14.5394 2.26847C14.0012 2.26324 13.4628 2.26324 12.9246 2.26847L11.7543 2.27533H11.7554ZM23.5086 11.9199C23.5086 14.2559 23.4834 15.8742 23.432 16.7713C23.3303 18.8936 22.6983 20.537 21.5349 21.7005C20.3714 22.8628 18.728 23.4959 16.6057 23.5976C15.7086 23.649 14.0914 23.6742 11.7543 23.6742C9.41714 23.6742 7.8 23.649 6.90171 23.5976C4.77943 23.4959 3.13714 22.8628 1.97371 21.7005C0.811429 20.5359 0.178286 18.8913 0.0765714 16.7702C0.0251429 15.8719 0 14.2559 0 11.9199C0 9.5839 0.0251429 7.96562 0.0765714 7.06733C0.179429 4.94504 0.811429 3.30162 1.97371 2.13933C3.13943 0.974759 4.78171 0.341616 6.90286 0.239901C7.80114 0.188473 9.41829 0.16333 11.7554 0.16333C14.0914 0.16333 15.7097 0.188473 16.6069 0.239901C18.7291 0.342759 20.3726 0.974759 21.536 2.13704C22.6994 3.30047 23.3314 4.9439 23.4331 7.06619C23.4846 7.96447 23.5097 9.58047 23.5097 11.9188L23.5086 11.9199Z" fill="#323C46"/>
</svg>
