<svg width="24" height="24" viewBox="0 0 24 24" fill="none" xmlns="http://www.w3.org/2000/svg">
<g clip-path="url(#clip0)">
<path fill-rule="evenodd" clip-rule="evenodd" d="M22.2092 0.16333C22.5669 0.16333 22.8721 0.290187 23.1281 0.546187C23.3829 0.801044 23.5098 1.10619 23.5098 1.4639V22.3725C23.5098 22.729 23.3829 23.0353 23.1281 23.2902C23.0092 23.4134 22.8664 23.511 22.7083 23.5768C22.5503 23.6427 22.3804 23.6754 22.2092 23.673H16.2241V14.5668H19.2709L19.7292 11.0148H16.2241V8.74962C16.2241 8.17819 16.3441 7.74962 16.5841 7.4639C16.8241 7.17819 17.2904 7.03533 17.9852 7.03533L19.8527 7.02047V3.85133C19.2092 3.7599 18.3007 3.71304 17.1281 3.71304C15.7395 3.71304 14.6298 4.12104 13.7989 4.93704C12.9669 5.75419 12.5509 6.90733 12.5509 8.39647V11.0136H9.49038V14.5656H12.5509V23.6719H1.30066C0.944091 23.6719 0.637805 23.545 0.382948 23.289C0.260005 23.1704 0.162619 23.028 0.0967785 22.8703C0.030938 22.7127 -0.00196556 22.5433 9.07652e-05 22.3725V1.46276C9.07652e-05 1.10847 0.128091 0.801044 0.382948 0.546187C0.637805 0.290187 0.942948 0.16333 1.30066 0.16333H22.2092Z" fill="#323C46"/>
</g>
<defs>
<clipPath id="clip0">
<rect width="24" height="24" fill="white"/>
</clipPath>
</defs>
</svg>
