<svg xmlns="http://www.w3.org/2000/svg" width="178" height="175" viewBox="0 0 178 175">
  <metadata><?xpacket begin="﻿" id="W5M0MpCehiHzreSzNTczkc9d"?>
<x:xmpmeta xmlns:x="adobe:ns:meta/" x:xmptk="Adobe XMP Core 5.6-c142 79.160924, 2017/07/13-01:06:39        ">
   <rdf:RDF xmlns:rdf="http://www.w3.org/1999/02/22-rdf-syntax-ns#">
      <rdf:Description rdf:about=""/>
   </rdf:RDF>
</x:xmpmeta>
                                                                                                    
                                                                                                    
                                                                                                    
                                                                                                    
                                                                                                    
                                                                                                    
                                                                                                    
                                                                                                    
                                                                                                    
                                                                                                    
                                                                                                    
                                                                                                    
                                                                                                    
                                                                                                    
                                                                                                    
                                                                                                    
                                                                                                    
                                                                                                    
                                                                                                    
                                                                                                    
                           
<?xpacket end="w"?></metadata>
<defs>
    <style>
      .cls-1 {
        fill: #2d3e9f;
        fill-rule: evenodd;
      }
    </style>
  </defs>
  <path id="Color_Fill_2" data-name="Color Fill 2" class="cls-1" d="M98,10h3c0.836,1.627,3.257,3.091,1,5,2.518,2.034,6.484,2.092,8,5,1.945,3.731-1.9,5.064,2,7,3.142,2.2,6.749,1.6,11,3a69.882,69.882,0,0,1,19,10c6,4.481,8.282,17.963,13,21V60c3.97-3.994,4.372-11.671,11-13,1.708,2.725,2.536,2.5,2.846,4.936-0.7,5.149-2.706-.308-1.846,2.064,0,0.333,1,3.667,1,4,3.992-1.215,4.423-1.83,9-1v6c-0.961,1.418-.976,3.273-1,6-2.45,1.246-6.573,2.7-9,4v2c21.218,13.484,4.9,55.992-3,71-2.6,4.938-6.147,6.94-7,14,6.024,2.439,18.531,4.93,20,12-0.752,1.073-.6.946-1,3H138c-0.694-1.261-2.73-3.607-3-5-0.83-4.287,3.072-11.921,4-16V128h-2v2c-5.984,8.48-1.153,19.829-16,20-1.233-1.629-9.343-9.177-11-10-4.742,8.295-19.941,14.456-31,7-3.2-2.155-3.742-5.365-8-7-1.6,6.525-6.55,10.153-15,10-4.131-5.3-8.764-7.18-12-14H43v16c2.266,3.491,3.594,19.721,3,23H8c-1.976-4.163-5.681-1.581-8-5,2.056-1.178,20.646-10.258,21-11v-5c-9.559-9.33-17.316-31.74-21-47V90c2.453-7.942,8.882-12.829,13-19-5.7-.747-5.313-2.483-7-7-2.6.625-1.9,0.464-5,0a18.312,18.312,0,0,1-1-6c2.418-1.3,2.833-1.8,7-2,2.312,5.107,6.565,10.164,12,12V67a6.107,6.107,0,0,0,2-2c-5.018-3.312-8.61-8.948-13-13l1-3c2.091-1.121,1.832-1.434,5-2,1.021,0.8.274,0.355,2,1,1.635,4.481,5.164,9.936,9,12,1.351-15.734,16.154-25.763,29-30,4.545-1.5,9.459-.681,13-3,1.082-1.7,1.361-7.074,2-9,4.795-2.051,10.309-3.682,13-8-2.852-1.772-4.267-2.9-5-7,6.612-2.3,20.014-6.163,24,2C98.685,6.615,98.648,6.461,98,10Zm69,44c-1.072,1.189-4,9.647-5,11h-1v1C163.113,65.359,168.912,55.29,167,54Z"/>
</svg>
