<svg width="24" height="24" viewBox="0 0 24 24" fill="none" xmlns="http://www.w3.org/2000/svg">
<path fill-rule="evenodd" clip-rule="evenodd" d="M23.4729 4.90409C23.3626 5.77025 22.1064 6.63926 21.3454 7.29762C22.0963 18.368 9.58884 25.2737 0.46875 19.664C3.02663 19.6832 5.86162 18.9811 7.38328 17.5364C5.17087 17.178 3.60342 16.1747 2.99522 14.2122C3.64327 14.151 4.55278 14.3513 4.9898 14.0792C2.96602 13.3106 1.36575 12.1185 1.26661 9.42509C1.98745 9.50206 2.36217 9.92516 3.26114 9.82405C1.95248 8.98498 0.458156 5.79453 1.7985 3.44141C4.17352 6.07498 7.13831 8.11883 11.7714 8.49434C10.6221 3.60678 17.1008 0.57828 20.0157 4.10628C21.1489 3.86548 22.104 3.44651 23.074 3.0425C22.6767 4.15231 21.8697 4.85216 21.0794 5.56897C21.9384 5.40851 22.846 5.29667 23.4729 4.90409Z" fill="black"/>
</svg>
