<svg width="24" height="24" viewBox="0 0 24 24" fill="none" xmlns="http://www.w3.org/2000/svg">
<path fill-rule="evenodd" clip-rule="evenodd" d="M19.6341 4.5355C17.6651 2.56425 15.0467 1.47819 12.2569 1.47705C6.50864 1.47705 1.83018 6.15513 1.82794 11.9051C1.82713 13.7432 2.30736 15.5373 3.22003 17.1189L1.74048 22.523L7.26899 21.0728C8.79223 21.9036 10.5073 22.3416 12.2527 22.3421H12.257C12.2573 22.3421 12.2567 22.3421 12.257 22.3421C18.0047 22.3421 22.6834 17.6636 22.6858 11.9135C22.6869 9.12684 21.6031 6.50667 19.6341 4.5355ZM12.2569 20.5809H12.2534C10.6981 20.5803 9.17251 20.1624 7.84163 19.3726L7.52515 19.1848L4.24445 20.0454L5.12015 16.8467L4.91403 16.5187C4.04637 15.1387 3.58811 13.5436 3.58879 11.9057C3.59065 7.12655 7.47922 3.23841 12.2604 3.23841C14.5756 3.23913 16.752 4.14197 18.3886 5.7804C20.0251 7.41882 20.9259 9.59666 20.9249 11.9128C20.923 16.6923 17.0346 20.5809 12.2569 20.5809Z" fill="black"/>
<path fill-rule="evenodd" clip-rule="evenodd" d="M17.0115 14.0889C16.751 13.9585 15.4698 13.3282 15.231 13.2412C14.9921 13.1542 14.8184 13.1107 14.6447 13.3716C14.471 13.6324 13.9716 14.2194 13.8196 14.3933C13.6676 14.5672 13.5155 14.589 13.255 14.4585C12.9944 14.3281 12.1548 14.0529 11.1595 13.1652C10.3848 12.4742 9.86187 11.6209 9.70981 11.3599C9.55783 11.0991 9.69364 10.9581 9.82411 10.8282C9.94133 10.7114 10.0847 10.5238 10.215 10.3716C10.3453 10.2195 10.3887 10.1107 10.4756 9.93695C10.5624 9.76301 10.519 9.61082 10.4539 9.48043C10.3887 9.35 9.86758 8.06739 9.65046 7.54555C9.43887 7.03751 9.22408 7.10634 9.0641 7.09825C8.91233 7.09068 8.73839 7.08911 8.56469 7.08911C8.391 7.08911 8.10864 7.15435 7.86983 7.41516C7.63099 7.67606 6.95776 8.30653 6.95776 9.58902C6.95776 10.8717 7.89151 12.1108 8.02181 12.2846C8.15207 12.4586 9.85929 15.0906 12.4733 16.2193C13.095 16.4878 13.5804 16.6481 13.9588 16.7682C14.583 16.9666 15.1511 16.9385 15.6001 16.8714C16.1008 16.7966 17.1418 16.2411 17.359 15.6325C17.5761 15.0237 17.5761 14.5019 17.5109 14.3933C17.4458 14.2846 17.2721 14.2194 17.0115 14.0889Z" fill="black"/>
</svg>
